<?xml version="1.0" standalone="no"?>
<!DOCTYPE svg PUBLIC "-//W3C//DTD SVG 1.1//EN" "http://www.w3.org/Graphics/SVG/1.1/DTD/svg11.dtd" >
<svg xmlns="http://www.w3.org/2000/svg" xmlns:xlink="http://www.w3.org/1999/xlink" version="1.1">
<metadata>
Created by FontForge 20160407 at Mon Jun 20 22:21:56 2016
 By Jimmy Wärting
Copyright (c) 1999 by Hubert Jocham. All rights reserved.
</metadata>
<defs>
<font id="NewJuneLight" horiz-adv-x="572" >
  <font-face 
    font-family="NewJuneLight"
    font-weight="400"
    font-stretch="normal"
    units-per-em="1000"
    panose-1="2 0 5 3 3 0 0 2 0 4"
    ascent="805"
    descent="-195"
    x-height="544"
    cap-height="744"
    bbox="-40 -194.001 1282 952"
    underline-thickness="50"
    underline-position="-50"
    unicode-range="U+000D-FB02"
  />
<missing-glyph horiz-adv-x="970" 
 />
    <glyph glyph-name="fi" unicode="fi" horiz-adv-x="595" 
d="M508 0h-51.998v488h-286v-488h-50v488h-90v46h90v62c0 56 13 98.167 39 126.5s62.667 42.5 110 42.5c23.333 0 56.666 -4.66699 99.999 -14l-9 -49c-36.667 9.33301 -67.334 14 -92.001 14c-36 0 -61.333 -9.33301 -76 -28s-22 -50 -22 -94v-60h338v-534zM481.002 680
c-11.333 0 -20.5 3.83301 -27.5 11.5s-10.5 18.167 -10.5 31.5s3.5 23.833 10.5 31.5s16.167 11.5 27.5 11.5c12 0 21.5 -3.83301 28.5 -11.5s10.5 -18.167 10.5 -31.5s-3.5 -23.833 -10.5 -31.5s-16.5 -11.5 -28.5 -11.5z" />
    <glyph glyph-name="fl" unicode="fl" horiz-adv-x="585" 
d="M505 0l-50.001 -0.000976562v700c-65.333 12 -122.666 18 -171.999 18c-75.333 0 -113 -42.333 -113 -127v-57h173v-46h-173v-488h-50v488h-90v46h90v60c0 54.667 15.167 96.834 45.5 126.501s69.5 44.5 117.5 44.5c48.667 0 106 -5 172 -15l50 18v-768z" />
    <glyph glyph-name=".notdef" horiz-adv-x="970" 
 />
    <glyph glyph-name=".null" horiz-adv-x="0" 
 />
    <glyph glyph-name=".null" horiz-adv-x="0" 
 />
    <glyph glyph-name="CR" unicode="&#xd;" horiz-adv-x="251" 
 />
    <glyph glyph-name="space" unicode=" " horiz-adv-x="251" 
 />
    <glyph glyph-name="exclam" unicode="!" horiz-adv-x="202" 
d="M131 235l-52 -10v519h52v-509zM105 -9c-11.333 0 -20.5 3.83301 -27.5 11.5s-10.5 18.167 -10.5 31.5s3.5 23.833 10.5 31.5s16.167 11.5 27.5 11.5c12 0 21.5 -3.83301 28.5 -11.5s10.5 -18.167 10.5 -31.5s-3.5 -23.833 -10.5 -31.5s-16.5 -11.5 -28.5 -11.5z" />
    <glyph glyph-name="quotedbl" unicode="&#x22;" horiz-adv-x="360" 
d="M287 576h-43l-6 187h55zM114 576h-42l-6 187h55z" />
    <glyph glyph-name="numbersign" unicode="#" horiz-adv-x="685" 
d="M430 0h-49l40 217h-197l-43 -217h-48l41 217h-135l8 50h137l39 200h-144l9 49h144l43 228h49l-43 -228h195l43 228h47l-42 -228h139l-9 -49h-138l-37 -200h144l-9 -50h-145zM432 267l36 200h-196l-39 -200h199z" />
    <glyph glyph-name="dollar" unicode="$" 
d="M316 -129l-47.998 -0.000976562v123c-56.667 6 -115.334 20 -176.001 42l-39 14l12 52l36 -13c86 -30.667 154 -46 204 -46c49.333 0 90.5 12.167 123.5 36.5s49.5 61.5 49.5 111.5c0 72.667 -42 119.334 -126 140.001l-134 34c-108 28 -162 90.333 -162 187
c0 62.667 20.667 110.334 62 143.001s91.333 49.667 150 51v121h48v-122c41.333 -2.66699 98.666 -16.334 171.999 -41.001l37 -13l-13 -50l-35 12c-85.333 29.333 -151 44 -197 44c-50 0 -91.167 -11.333 -123.5 -34s-48.5 -58.667 -48.5 -108
c0 -38 9.83301 -68.167 29.5 -90.5s50.167 -38.833 91.5 -49.5l134 -34c54 -13.333 95 -35 123 -65s42 -70.667 42 -122c0 -62.667 -20.667 -111 -62 -145s-91.333 -52.333 -150 -55v-123z" />
    <glyph glyph-name="percent" unicode="%" horiz-adv-x="902" 
d="M222 372c-56.667 0 -101.166 17.333 -133.499 52s-48.5 82 -48.5 142s16.5 107.333 49.5 142s77.833 52 134.5 52c57.333 0 102.333 -17.167 135 -51.5s49 -81.833 49 -142.5c0 -60 -16.833 -107.333 -50.5 -142s-78.834 -52 -135.501 -52zM224.001 416
c90.667 0 136.001 49.999 136.001 149.999c0 48.667 -11.833 85.834 -35.5 111.501s-57.834 38.5 -102.501 38.5c-88.667 0 -133 -50 -133 -150c0 -48 11.5 -85 34.5 -111s56.5 -39 100.5 -39zM183.002 -0.000976562h-61l589 744h60zM676.002 -14.001
c-56.667 0 -101.166 17.333 -133.499 52s-48.5 82 -48.5 142s16.5 107.333 49.5 142s77.833 52 134.5 52c57.333 0 102.333 -17.167 135 -51.5s49 -81.833 49 -142.5c0 -60 -16.833 -107.333 -50.5 -142s-78.834 -52 -135.501 -52zM678.003 29.999
c90.667 0 136.001 49.999 136.001 149.999c0 48.667 -11.833 85.834 -35.5 111.501s-57.834 38.5 -102.501 38.5c-88.667 0 -133 -50 -133 -150c0 -48 11.5 -85 34.5 -111s56.5 -39 100.5 -39z" />
    <glyph glyph-name="ampersand" unicode="&#x26;" horiz-adv-x="680" 
d="M628 0h-64.001l-62 70c-27.333 -24.667 -61.833 -44.5 -103.5 -59.5s-82.5 -22.5 -122.5 -22.5c-70 0 -124.333 18.167 -163 54.5s-58 82.166 -58 137.499c0 88.667 54.333 157.334 163 206.001l-42 49c-6.66699 8 -16.167 21.333 -28.5 40s-20.5 35.667 -24.5 51
s-6 32.666 -6 51.999c0 56.667 19.333 100.5 58 131.5s86.667 46.5 144 46.5c56 0 101.667 -14.667 137 -44s53 -70.666 53 -123.999c0 -50 -15.833 -91.333 -47.5 -124s-85.5 -64.667 -161.5 -96l205 -229c43.333 50 65 122 65 216v89h50v-90
c0 -48.667 -7.16699 -95.167 -21.5 -139.5s-34.166 -80.5 -59.499 -108.5zM270.999 403c68 26 116.833 52.332 146.5 78.999s44.5 61.667 44.5 105c0 36 -12.5 65.667 -37.5 89s-60.167 35 -105.5 35c-49.333 0 -87 -12.333 -113 -37s-39 -56.667 -39 -96
c0 -28.667 7.33301 -54.667 22 -78s42 -55.666 82 -96.999zM470.999 104.999l-222.001 245.999c-50.667 -22 -86.667 -46.667 -108 -74s-32 -59.333 -32 -96c0 -40.667 13.833 -75 41.5 -103s69.834 -42 126.501 -42c34 0 69 6.33301 105 19s65.667 29.334 89 50.001z" />
    <glyph glyph-name="quotesingle" unicode="'" horiz-adv-x="200" 
d="M123 576h-43l-8 187h59z" />
    <glyph glyph-name="parenleft" unicode="(" horiz-adv-x="269" 
d="M246 -26l-0.000976562 -48.0039c-26 0.666992 -50 7.33398 -72 20.001s-43 33.5 -63 62.5s-35.833 71.5 -47.5 127.5s-17.5 123 -17.5 201c0 63.333 4 119.333 12 168s18.333 87.667 31 117s28 53.333 46 72s35.833 31.5 53.5 38.5s36.834 10.833 57.501 11.5v-48
c-14 -0.666992 -27 -3.66699 -39 -9s-25 -16 -39 -32s-25.833 -36.5 -35.5 -61.5s-17.834 -59.5 -24.501 -103.5s-10 -95 -10 -153c0 -71.333 4.66699 -132.166 14 -182.499s21.833 -87.666 37.5 -111.999s31.334 -41.666 47.001 -51.999s32.167 -15.833 49.5 -16.5z" />
    <glyph glyph-name="parenright" unicode=")" horiz-adv-x="269" 
d="M33 -74l-0.000976562 48.0039c17.333 0.666992 33.833 6.16699 49.5 16.5s31.334 27.666 47.001 51.999s28.167 61.666 37.5 111.999s14 111.166 14 182.499c0 58 -3.33301 109 -10 153s-14.834 78.5 -24.501 103.5s-21.5 45.5 -35.5 61.5s-27 26.667 -39 32
s-25 8.33301 -39 9v48c20.667 -0.666992 39.834 -4.5 57.501 -11.5s35.5 -19.833 53.5 -38.5s33.333 -42.667 46 -72s23 -68.333 31 -117s12 -104.667 12 -168c0 -78 -5.83301 -145 -17.5 -201s-27.5 -98.5 -47.5 -127.5s-41 -49.833 -63 -62.5s-46 -19.334 -72 -20.001z
" />
    <glyph glyph-name="asterisk" unicode="*" horiz-adv-x="534" 
d="M424 384l-47 -35l-101 173l-103 -173l-46 35l125 154l-187 48l18 54l180 -76l-15 199h55l-14 -199l182 75l15 -54l-186 -48z" />
    <glyph glyph-name="plus" unicode="+" 
d="M310 49h-52v221h-198v51h198v219h52v-219h202v-51h-202v-221z" />
    <glyph glyph-name="comma" unicode="," horiz-adv-x="202" 
d="M59 -53l40.998 157h58l-46 -171c-5.33301 -16 -14.666 -24 -27.999 -24c-10.667 0 -18.167 3.66699 -22.5 11s-5.16602 16.333 -2.49902 27z" />
    <glyph glyph-name="hyphen" unicode="-" horiz-adv-x="401" 
d="M337 302h-271v51h271v-51z" />
    <glyph glyph-name="period" unicode="." horiz-adv-x="202" 
d="M105 -9c-11.333 0 -20.5 3.83301 -27.5 11.5s-10.5 18.167 -10.5 31.5s3.5 23.833 10.5 31.5s16.167 11.5 27.5 11.5c12 0 21.5 -3.83301 28.5 -11.5s10.5 -18.167 10.5 -31.5s-3.5 -23.833 -10.5 -31.5s-16.5 -11.5 -28.5 -11.5z" />
    <glyph glyph-name="slash" unicode="/" horiz-adv-x="398" 
d="M78 0h-54l311 744h51z" />
    <glyph glyph-name="zero" unicode="0" 
d="M463 227v287c0 63.333 -13.333 110.833 -40 142.5s-69 47.5 -127 47.5c-114.667 0 -172 -63.333 -172 -190v-287c0 -126.667 57.667 -190 173 -190c110.667 0 166 63.333 166 190zM512 513v-285c0 -78 -18.5 -137.333 -55.5 -178s-90.5 -61 -160.5 -61
c-70.667 0 -125.334 20.333 -164.001 61s-58 99 -58 175v291c0 76 19.333 134.333 58 175s93.334 61 164.001 61c70 0 123.5 -20.333 160.5 -61s55.5 -100 55.5 -178z" />
    <glyph glyph-name="one" unicode="1" 
d="M536 0h-460.999v51h224v641h-61c-46.667 0 -82 -6 -106 -18l-13 49c27.333 14 65.666 21 114.999 21h64c20 0 34.167 -4 42.5 -12s12.5 -22 12.5 -42v-639h183v-51z" />
    <glyph glyph-name="two" unicode="2" 
d="M517 0l-414 -0.00195312c-10.667 0 -19.167 3.5 -25.5 10.5s-9.5 16.167 -9.5 27.5c0 16.667 6 30.334 18 41.001l261 254c40.667 40 70.5 76.833 89.5 110.5s28.5 69.5 28.5 107.5c0 51.333 -14.833 89 -44.5 113s-68.5 36 -116.5 36
c-50.667 0 -113.667 -12.333 -189 -37l-31 -10l-11 50l28 9c80 26 147.333 39 202 39c61.333 0 112 -16 152 -48s60 -83 60 -153c0 -83.333 -43 -166.666 -129 -249.999l-263 -252h394v-48z" />
    <glyph glyph-name="three" unicode="3" 
d="M433 290l-57.001 61.001h-135v46h135l45 64c25.333 36.667 38 72.667 38 108c0 40.667 -12.667 72.667 -38 96s-65 35 -119 35c-36.667 0 -97.667 -11.667 -183 -35l-33 -9l-12 48l36 11c79.333 24 143.666 36 192.999 36c66.667 0 117.667 -15.833 153 -47.5
s53 -76.167 53 -133.5c0 -43.333 -14.333 -85 -43 -125l-49 -69l62 -64c34.667 -36.667 52 -79 52 -127c0 -58.667 -20.167 -105.5 -60.5 -140.5s-94.833 -52.5 -163.5 -52.5c-57.333 0 -128.666 12.667 -213.999 38l-34 10l12 50l33 -10
c88.667 -26 156.334 -39 203.001 -39c58 0 101.333 12.667 130 38s43 60.333 43 105c0 37.333 -15.667 72.666 -47 105.999z" />
    <glyph glyph-name="four" unicode="4" 
d="M469 0h-50v147h-340c-23.333 0 -35 11.333 -35 34c0 12 5 26 15 42l322 497c12.667 20 28.667 30 48 30c26.667 0 40 -14.333 40 -43v-514h90v-46h-90v-147zM419 193v500l-324 -500h324z" />
    <glyph glyph-name="five" unicode="5" 
d="M100 27l-30.999 8.99805l10 50l33 -10c77.333 -23.333 136.666 -35 177.999 -35c61.333 0 108 17.833 140 53.5s48 82.834 48 141.501c0 121.333 -61.667 182 -185 182c-43.333 0 -91 -8 -143 -24l-50 -15v365h398v-52h-351v-252c62 18 112.667 27 152 27
c72 0 128.333 -19.167 169 -57.5s61 -96.166 61 -173.499c0 -74 -21.333 -133.167 -64 -177.5s-100.667 -66.5 -174 -66.5c-48 0 -111.667 11.667 -191 35z" />
    <glyph glyph-name="six" unicode="6" 
d="M503 657l-31.999 8.99902c-82.667 23.333 -143.334 35 -182.001 35c-112.667 0 -169 -60.667 -169 -182v-92c74.667 25.333 132.667 38 174 38c77.333 0 135.833 -20 175.5 -60s59.5 -97 59.5 -171c0 -70 -19.667 -127.5 -59 -172.5s-95 -67.5 -167 -67.5
s-128.833 22.333 -170.5 67s-62.5 104 -62.5 178v280c0 72.667 19 129.334 57 170.001s91.333 61 160 61c44 0 108.333 -11.333 193 -34l33 -9zM120.001 382.999v-140c0 -62 16 -110.833 48 -146.5s77.667 -53.5 137 -53.5c55.333 0 98 17.333 128 52s45 81 45 139
c0 120.667 -63 181 -189 181c-34 0 -90.333 -10.667 -169 -32z" />
    <glyph glyph-name="seven" unicode="7" 
d="M252 0l-55 0.000976562l287 695h-411v49h421c26.667 0 40 -12.667 40 -38c0 -12.667 -3.33301 -26.334 -10 -41.001z" />
    <glyph glyph-name="eight" unicode="8" 
d="M423 376l61.001 -68c32.667 -36.667 49 -78.667 49 -126c0 -58 -21.333 -104.333 -64 -139s-100.667 -52 -174 -52c-74.667 0 -133.834 17.167 -177.501 51.5s-65.5 80.833 -65.5 139.5c0 47.333 17.333 90.333 52 129l58 65l-48 65c-27.333 38 -41 80.667 -41 128
c0 55.333 19.333 99.666 58 132.999s92 50 160 50c68.667 0 122.5 -16.667 161.5 -50s58.5 -77.666 58.5 -132.999c0 -48 -13.333 -90 -40 -126zM435.001 289l-54 60h-178l-55 -60c-30 -32.667 -45 -68.667 -45 -108c0 -43.333 16.667 -78 50 -104s80.333 -39 141 -39
c61.333 0 107.833 13 139.5 39s47.5 61 47.5 105c0 38 -15.333 73.667 -46 107zM381.001 396l44 62c24 34 36 71 36 111s-14.333 72.5 -43 97.5s-71 37.5 -127 37.5s-98 -12.5 -126 -37.5s-42 -57.5 -42 -97.5c0 -34.667 12 -71.667 36 -111l45 -62h177z" />
    <glyph glyph-name="nine" unicode="9" 
d="M466 225l-0.000976562 92.001c-74.667 -25.333 -132.667 -38 -174 -38c-77.333 0 -135.833 20 -175.5 60s-59.5 97 -59.5 171c0 70 19.667 127.5 59 172.5s95 67.5 167 67.5s128.833 -22.333 170.5 -67s62.5 -104 62.5 -178v-280c0 -72.667 -19 -129.334 -57 -170.001
s-91.333 -61 -160 -61c-44 0 -108.333 11.333 -193 34l-33 9l10 50l32 -9c82.667 -23.333 143.334 -35 182.001 -35c112.667 0 169 60.667 169 182zM465.999 361.001l-0.000976562 140c0 62 -16 110.833 -48 146.5s-77.667 53.5 -137 53.5c-56 0 -98.833 -17.333 -128.5 -52
s-44.5 -81 -44.5 -139s14.833 -102.667 44.5 -134s77.834 -47 144.501 -47c34 0 90.333 10.667 169 32z" />
    <glyph glyph-name="colon" unicode=":" horiz-adv-x="202" 
d="M105 -9c-11.333 0 -20.5 3.83301 -27.5 11.5s-10.5 18.167 -10.5 31.5s3.5 23.833 10.5 31.5s16.167 11.5 27.5 11.5c12 0 21.5 -3.83301 28.5 -11.5s10.5 -18.167 10.5 -31.5s-3.5 -23.833 -10.5 -31.5s-16.5 -11.5 -28.5 -11.5zM105 451
c-11.333 0 -20.5 3.83301 -27.5 11.5s-10.5 18.167 -10.5 31.5s3.5 23.833 10.5 31.5s16.167 11.5 27.5 11.5c12 0 21.5 -3.83301 28.5 -11.5s10.5 -18.167 10.5 -31.5s-3.5 -23.833 -10.5 -31.5s-16.5 -11.5 -28.5 -11.5z" />
    <glyph glyph-name="semicolon" unicode=";" horiz-adv-x="202" 
d="M59 -53l40.998 157h58l-46 -171c-5.33301 -16 -14.666 -24 -27.999 -24c-10.667 0 -18.167 3.66699 -22.5 11s-5.16602 16.333 -2.49902 27zM123.998 451c-11.333 0 -20.5 3.83301 -27.5 11.5s-10.5 18.167 -10.5 31.5s3.5 23.833 10.5 31.5s16.167 11.5 27.5 11.5
c12 0 21.5 -3.83301 28.5 -11.5s10.5 -18.167 10.5 -31.5s-3.5 -23.833 -10.5 -31.5s-16.5 -11.5 -28.5 -11.5z" />
    <glyph glyph-name="less" unicode="&#x3c;" 
d="M523 69l-448 186c-17.333 8 -26 21.667 -26 41c0 18 9 31 27 39l447 187v-59l-426 -168l426 -169v-57z" />
    <glyph glyph-name="equal" unicode="=" 
d="M512 358h-452v55h452v-55zM512 186h-452v55h452v-55z" />
    <glyph glyph-name="greater" unicode="&#x3e;" 
d="M497 255l-448 -186v57l426 168l-426 169v59l447 -187c18 -8 27 -21 27 -39c0 -19.333 -8.66699 -33 -26 -41z" />
    <glyph glyph-name="question" unicode="?" horiz-adv-x="443" 
d="M242 234l-47 -9.00098v72c0 26.667 9.33301 49.667 28 69l75 81c24.667 26.667 41.667 49.334 51 68.001s14 42.667 14 72c0 34 -11.167 61.333 -33.5 82s-55.166 31 -98.499 31c-49.333 0 -99 -8.33301 -149 -25l-30 -10l-10 46l32 10c55.333 17.333 108 26 158 26
c54.667 0 98.167 -14 130.5 -42s48.5 -67 48.5 -117c0 -35.333 -5.83301 -65 -17.5 -89s-29.834 -49.667 -54.501 -77l-97 -103v-85zM219 -9.00098c-11.333 0 -20.5 3.83301 -27.5 11.5s-10.5 18.167 -10.5 31.5s3.5 23.833 10.5 31.5s16.167 11.5 27.5 11.5
c12 0 21.5 -3.83301 28.5 -11.5s10.5 -18.167 10.5 -31.5s-3.5 -23.833 -10.5 -31.5s-16.5 -11.5 -28.5 -11.5z" />
    <glyph glyph-name="at" unicode="@" horiz-adv-x="905" 
d="M740 -3l-40.998 19.998c-14.667 6.66699 -29 10 -43 10c-20 0 -51.833 -6.16699 -95.5 -18.5s-87.834 -18.5 -132.501 -18.5c-103.333 0 -185.5 34.667 -246.5 104s-91.5 156 -91.5 260c0 116.667 36.667 212.167 110 286.5s165.666 111.5 276.999 111.5
c102 0 186.167 -31.667 252.5 -95s99.5 -146 99.5 -248c0 -73.333 -17.833 -132.666 -53.5 -177.999s-78.5 -68 -128.5 -68c-15.333 0 -33.666 3.33301 -54.999 10s-36.666 10 -45.999 10c-14 0 -34.667 -2.66699 -62 -8s-48.666 -8 -63.999 -8c-48 0 -85 15.167 -111 45.5
s-39 70.166 -39 119.499c0 60.667 17.5 112 52.5 154s83.5 63 145.5 63c29.333 0 66.333 -3 111 -9l5 36h46l-47 -352c4 -3.33301 12.667 -7.16602 26 -11.499s26.666 -6.5 39.999 -6.5c37.333 0 69 17.833 95 53.5s39 85.834 39 150.501
c0 88.667 -28.833 160.167 -86.5 214.5s-130.834 81.5 -219.501 81.5c-101.333 0 -183 -32.5 -245 -97.5s-93 -149.833 -93 -254.5c0 -94.667 26.167 -171.5 78.5 -230.5s124.166 -88.5 215.499 -88.5c36.667 0 79.667 6.83301 129 20.5s82 20.5 98 20.5
c19.333 0 38.333 -5.33301 57 -16l41 -25zM537.002 225.998l37 271c-36.667 6 -72 9 -106 9c-50 0 -87.333 -16.833 -112 -50.5s-37 -75.5 -37 -125.5c0 -34.667 9.16699 -63.167 27.5 -85.5s45.833 -33.5 82.5 -33.5c20 0 56 5 108 15z" />
    <glyph glyph-name="A" unicode="A" horiz-adv-x="660" 
d="M640 0h-55.999l-66 177h-379l-66 -177h-53l269 718c8 22 22.333 33 43 33c21.333 0 35.666 -10.333 42.999 -31zM503.001 223l-171 471l-177 -471h348z" />
    <glyph glyph-name="B" unicode="B" horiz-adv-x="656" 
d="M395 0h-254.999c-36.667 0 -55 17.667 -55 53v640c0 34 17.667 51 53 51h251c57.333 0 102.333 -14.667 135 -44s49 -72.333 49 -129c0 -45.333 -13 -87 -39 -125l-49 -69l65 -69c34.667 -36.667 52 -79 52 -127c0 -56 -18.333 -100.167 -55 -132.5
s-87.334 -48.5 -152.001 -48.5zM439.001 397l44 64c23.333 34 35 70.667 35 110c0 85.333 -44.667 128 -134 128h-248v-302h303zM499.001 289l-60 62h-303v-305h261c48.667 0 86 11.667 112 35s39 55.333 39 96c0 40 -16.333 77.333 -49 112z" />
    <glyph glyph-name="C" unicode="C" horiz-adv-x="651" 
d="M612 40l-41.9971 -13.001c-75.333 -23.333 -138.666 -35 -189.999 -35c-96.667 0 -173.834 31.333 -231.501 94s-86.5 157.334 -86.5 284.001c0 124 29.5 218 88.5 282s135.5 96 229.5 96c51.333 0 114.666 -11.667 189.999 -35l42 -13l-10 -50l-42 13
c-74 22.667 -133.667 34 -179 34c-82.667 0 -147.334 -27 -194.001 -81s-70 -136 -70 -246s23.5 -192 70.5 -246s111.833 -81 194.5 -81c45.333 0 104.666 11.333 177.999 34l42 13z" />
    <glyph glyph-name="D" unicode="D" horiz-adv-x="710" 
d="M334 0h-193c-37.333 0 -56 17.667 -56 53v638c0 35.333 18.667 53 56 53h196c96.667 0 173.834 -33.167 231.501 -99.5s86.5 -157.833 86.5 -274.5c0 -116 -29.333 -206.667 -88 -272s-136.334 -98 -233.001 -98zM138 49h193c86 0 152.667 28 200 84s71 135 71 237
c0 100 -24.5 179.5 -73.5 238.5s-117.167 88.5 -204.5 88.5h-186v-648z" />
    <glyph glyph-name="E" unicode="E" horiz-adv-x="596" 
d="M541 0h-400c-37.333 0 -56 17.667 -56 53v638c0 35.333 18.667 53 56 53h397v-49h-400v-290h352v-48h-352v-308h403v-49z" />
    <glyph glyph-name="F" unicode="F" horiz-adv-x="559" 
d="M496 343h-359v-343h-52v691c0 35.333 18.667 53 56 53h387v-49h-391v-305h359v-47z" />
    <glyph glyph-name="G" unicode="G" horiz-adv-x="702" 
d="M591 67l-0.000976562 229h-186v46h182c35.333 0 53 -17.333 53 -52v-214c0 -17.333 -3.83301 -30 -11.5 -38s-20.834 -14.667 -39.501 -20c-61.333 -17.333 -123.666 -26 -186.999 -26c-102 0 -184.167 31.333 -246.5 94s-93.5 157 -93.5 283c0 124 30.833 218 92.5 282
s141.834 96 240.501 96c51.333 0 118.333 -12 201 -36l42 -12l-11 -51l-45 13c-79.333 23.333 -142 35 -188 35c-88 0 -156.5 -27 -205.5 -81s-73.5 -136 -73.5 -246c0 -108.667 26.167 -190.667 78.5 -246s122.166 -83 209.499 -83c60.667 0 123.334 9 188.001 27z" />
    <glyph glyph-name="H" unicode="H" horiz-adv-x="699" 
d="M614 0h-50v355h-428v-355h-51v744h51v-342h428v342h50v-744z" />
    <glyph glyph-name="I" unicode="I" horiz-adv-x="223" 
d="M138 0h-53v744h53v-744z" />
    <glyph glyph-name="J" unicode="J" horiz-adv-x="360" 
d="M222 168l-0.000976562 576h53v-577c0 -56 -13.667 -98.5 -41 -127.5s-65.666 -43.5 -114.999 -43.5c-23.333 0 -56.666 5 -99.999 15l8 51c40 -10 71 -15 93 -15c37.333 0 63.666 9.16699 78.999 27.5s23 49.5 23 93.5z" />
    <glyph glyph-name="K" unicode="K" horiz-adv-x="632" 
d="M602 0h-56l-210 445l-142 -169c-26 -32 -42.333 -55.333 -49 -70s-10 -36.667 -10 -66v-140h-50v744h50l-1 -472l383 472h70l-213 -254z" />
    <glyph glyph-name="L" unicode="L" horiz-adv-x="546" 
d="M511 0h-372c-36 0 -54 17.667 -54 53v691h53v-694h373v-50z" />
    <glyph glyph-name="M" unicode="M" horiz-adv-x="848" 
d="M763 0h-51.999v690l-252 -666c-6.66699 -18 -19.334 -27 -38.001 -27c-19.333 0 -32.333 9 -39 27l-247 666v-690h-50v702c0 31.333 15.333 47 46 47c26 0 44.333 -14 55 -42l236 -647l244 647c10 28 27.667 42 53 42c29.333 0 44 -15.667 44 -47v-702z" />
    <glyph glyph-name="N" unicode="N" horiz-adv-x="722" 
d="M550 23l-415 662v-685h-50v706c0 30 13.667 45 41 45c19.333 0 35 -9.33301 47 -28l415 -661v682h49v-704c0 -30 -13.667 -45 -41 -45c-18.667 0 -34 9.33301 -46 28z" />
    <glyph glyph-name="O" unicode="O" horiz-adv-x="768" 
d="M383 -8c-100 0 -179.667 33.1689 -239 99.502s-89 159.166 -89 278.499c0 118.667 30.333 211.334 91 278.001s141 100 241 100c98.667 0 177.667 -33.333 237 -100s89 -159.334 89 -278.001c0 -120.667 -30 -213.834 -90 -279.501s-140 -98.5 -240 -98.5zM385 39.002
c86 0 153 28.667 201 86s72 139 72 245c0 104.667 -24 185.834 -72 243.501s-114.667 86.5 -200 86.5c-86 0 -153.833 -28.833 -203.5 -86.5s-74.5 -138.834 -74.5 -243.501c0 -105.333 24.833 -186.833 74.5 -244.5s117.167 -86.5 202.5 -86.5z" />
    <glyph glyph-name="P" unicode="P" horiz-adv-x="607" 
d="M135 0h-50v692c0 34.667 18 52 54 52h222c60 0 109.333 -20 148 -60s58 -93.667 58 -161c0 -68 -20.167 -121.833 -60.5 -161.5s-92.833 -59.5 -157.5 -59.5h-214v-302zM135 348l214 0.000976562c52 0 93 15.5 123 46.5s45 74.167 45 129.5
c0 53.333 -14.667 95.666 -44 126.999s-68.333 47 -117 47h-221v-350z" />
    <glyph glyph-name="Q" unicode="Q" horiz-adv-x="767" 
d="M697 -66l-20 -0.00390625c-43.333 0 -92.5 11 -147.5 33s-100.833 33 -137.5 33c-102.667 0 -184.5 31.833 -245.5 95.5s-91.5 155.167 -91.5 274.5c0 118.667 30.333 211.334 91 278.001s141 100 241 100c98.667 0 177.5 -33.167 236.5 -99.5
s88.5 -159.166 88.5 -278.499c0 -91.333 -16.667 -165.166 -50 -221.499s-83.333 -98.166 -150 -125.499c58 -29.333 113 -44 165 -44h20v-45zM387 45.9961c86 0 152.833 27.501 200.5 82.501s71.5 135.5 71.5 241.5c0 104.667 -24.167 185.834 -72.5 243.501
s-115.166 86.5 -200.499 86.5c-86.667 0 -154.834 -28.833 -204.501 -86.5s-74.5 -138.834 -74.5 -243.501s25 -184.834 75 -240.501s118.333 -83.5 205 -83.5z" />
    <glyph glyph-name="R" unicode="R" horiz-adv-x="638" 
d="M608 0l-58 -0.000976562l-141 311h-272v-311h-52v693c0 18 4 31 12 39s21 12 39 12h246c60 0 106.833 -16.667 140.5 -50s50.5 -81.333 50.5 -144c0 -47.333 -17.667 -94.666 -53 -141.999l-62 -82zM421 356.999l45 63c34 50 51 93 51 129c0 99.333 -47.667 149 -143 149
h-237v-341h284z" />
    <glyph glyph-name="S" unicode="S" horiz-adv-x="624" 
d="M104 36l-39 12.998l13 51l38 -13c89.333 -30.667 164 -46 224 -46c46.667 0 86 12.333 118 37s48 62 48 112c0 38 -10 68.167 -30 90.5s-52.333 38.5 -97 48.5l-143 32c-113.333 26 -170 89.333 -170 190c0 64.667 21.333 113.834 64 147.501s94.334 50.5 155.001 50.5
c62.667 0 139.334 -14 230.001 -42l39 -12l-12 -52l-39 13c-88 29.333 -160.667 44 -218 44c-47.333 0 -87 -12.5 -119 -37.5s-48 -62.167 -48 -111.5c0 -38 10 -67.833 30 -89.5s52 -37.5 96 -47.5l144 -33c114 -25.333 171 -88.666 171 -189.999
c0 -64.667 -21.333 -114 -64 -148s-94.334 -51 -155.001 -51c-70.667 0 -149.334 14.667 -236.001 44z" />
    <glyph glyph-name="T" unicode="T" horiz-adv-x="598" 
d="M326 0h-54v695h-237v49h528v-49h-237v-695z" />
    <glyph glyph-name="U" unicode="U" horiz-adv-x="708" 
d="M575 261v483h53v-483c0 -86 -23.667 -153.333 -71 -202s-115 -73 -203 -73s-155.667 24.333 -203 73s-71 116 -71 202v483h53v-483c0 -72.667 18.5 -128.5 55.5 -167.5s92.167 -58.5 165.5 -58.5c147.333 0 221 75.333 221 226z" />
    <glyph glyph-name="V" unicode="V" horiz-adv-x="654" 
d="M327 59l246.001 685h56l-266 -721c-6.66699 -18.667 -19.334 -28 -38.001 -28c-19.333 0 -32.333 9.33301 -39 28l-261 721h58z" />
    <glyph glyph-name="W" unicode="W" horiz-adv-x="900" 
d="M688 59l129 685h48l-136 -716c-4 -22.667 -17.333 -34 -40 -34c-21.333 0 -35 10 -41 30l-199 655l-201 -655c-6 -20 -19.667 -30 -41 -30c-22.667 0 -36 11.333 -40 34l-132 716h52l125 -684l201 656c6 18.667 18.667 28 38 28c20 0 32.667 -9.33301 38 -28z" />
    <glyph glyph-name="X" unicode="X" horiz-adv-x="649" 
d="M609 0h-63l-222 339l-223 -339h-61l252 376l-249 368h63l219 -329l217 329h59l-244 -366z" />
    <glyph glyph-name="Y" unicode="Y" horiz-adv-x="629" 
d="M348 0h-53v322l-270 422h61l238 -373l231 373h60l-267 -420v-324z" />
    <glyph glyph-name="Z" unicode="Z" horiz-adv-x="621" 
d="M566 0h-473c-25.333 0 -38 14 -38 42c0 11.333 4.66699 23.333 14 36l442 619h-444v47h456c24.667 0 37 -14 37 -42c0 -13.333 -4 -25.333 -12 -36l-441 -619h459v-47z" />
    <glyph glyph-name="bracketleft" unicode="[" horiz-adv-x="269" 
d="M244 -65h-163v809h163v-47h-113v-716h113v-46z" />
    <glyph glyph-name="backslash" unicode="\" horiz-adv-x="398" 
d="M386 0h-54l-308 744h51z" />
    <glyph glyph-name="bracketright" unicode="]" horiz-adv-x="269" 
d="M196 -65h-163v46h113v716h-113v47h163v-809z" />
    <glyph glyph-name="asciicircum" unicode="^" 
d="M511 43h-56.999l-164 441l-163 -441h-54l181 471c6.66699 19.333 19 29 37 29c17.333 0 29.666 -9.66699 36.999 -29z" />
    <glyph glyph-name="underscore" unicode="_" horiz-adv-x="500" 
d="M502 -160h-504v49h504v-49z" />
    <glyph glyph-name="grave" unicode="`" horiz-adv-x="526" 
d="M329 649l-123.999 114h78l82 -80c6 -5.33301 9 -12.333 9 -21c0 -6 -2.33301 -11.333 -7 -16s-10.334 -7 -17.001 -7c-7.33301 0 -14.333 3.33301 -21 10z" />
    <glyph glyph-name="a" unicode="a" horiz-adv-x="580" 
d="M531 -5l-39.999 24.002c-22.667 13.333 -47.334 16.666 -74.001 9.99902l-43 -11c-68 -16.667 -117.667 -25 -149 -25c-52.667 0 -93.834 13 -123.501 39s-44.5 62 -44.5 108c0 55.333 18.833 95.166 56.5 119.499s86.834 36.5 147.501 36.5h178v75
c0 86.667 -46.667 130 -140 130c-44 0 -102 -10.667 -174 -32l-34 -10l-11 48l33 9c84.667 22.667 147 34 187 34c56.667 0 102 -14.5 136 -43.5s51 -74.167 51 -135.5v-299l64 -39zM439.001 74.002l-0.000976562 177h-179c-102 0 -153 -36.667 -153 -110
c0 -68.667 42 -103 126 -103c28.667 0 74.334 7 137.001 21z" />
    <glyph glyph-name="b" unicode="b" horiz-adv-x="587" 
d="M129 467v-396c72 -17.333 126 -26 162 -26c66 0 114.333 20.167 145 60.5s46 95.5 46 165.5c0 151.333 -62 227 -186 227c-36 0 -91.667 -10.333 -167 -31zM80 79l0.000976562 680l49 11v-259c74 24.667 132 37 174 37c76 0 133.167 -23.833 171.5 -71.5
s57.5 -116.5 57.5 -206.5c0 -83.333 -21.333 -149.833 -64 -199.5s-101 -74.5 -175 -74.5c-48.667 0 -103.667 8.66699 -165 26c-16.667 4.66699 -28.834 11.167 -36.501 19.5s-11.5 20.833 -11.5 37.5z" />
    <glyph glyph-name="c" unicode="c" horiz-adv-x="504" 
d="M474 30l-33.998 -9c-66 -17.333 -116.333 -26 -151 -26c-72.667 0 -129.834 22.833 -171.501 68.5s-62.5 115.167 -62.5 208.5c0 88.667 21.167 157 63.5 205s99.166 72 170.499 72c36.667 0 87 -8.66699 151 -26l34 -9l-10 -49l-33 8c-77.333 18.667 -124 28 -140 28
c-122.667 0 -184 -76.333 -184 -229c0 -152 62 -228 186 -228c30 0 76 8.66699 138 26l33 9z" />
    <glyph glyph-name="d" unicode="d" horiz-adv-x="586" 
d="M458 71v396.001c-74.667 20 -130 30.667 -166 32c-64 0 -111 -20.333 -141 -61s-45 -96.334 -45 -167.001c0 -69.333 15.333 -124.333 46 -165s78.334 -61 143.001 -61c39.333 0 93.666 8.66699 162.999 26zM458 511.001v248l48 11v-691c0 -28.667 -15 -47 -45 -55
c-70 -18.667 -127 -28 -171 -28c-74.667 0 -132.5 24 -173.5 72s-61.5 115.333 -61.5 202c0 88 20.5 156.333 61.5 205s98.833 73 173.5 73c40 0 96 -12.333 168 -37z" />
    <glyph glyph-name="e" unicode="e" horiz-adv-x="575" 
d="M108 296h364c0 64.667 -15.167 116.167 -45.5 154.5s-75.833 57.5 -136.5 57.5c-54 0 -97 -19 -129 -57s-49.667 -89.667 -53 -155zM515 39l-42.001 -14c-61.333 -20.667 -117.333 -31 -168 -31c-76 0 -136.667 23.667 -182 71s-68 116 -68 206
c0 92 22.333 161.833 67 209.5s101 71.5 169 71.5c72 0 129 -22.5 171 -67.5s63 -111.833 63 -200.5c0 -23.333 -10.333 -35 -31 -35h-386c2.66699 -67.333 22.334 -118.333 59.001 -153s83.667 -52 141 -52c42.667 0 94 9.66699 154 29l43 14z" />
    <glyph glyph-name="f" unicode="f" horiz-adv-x="364" 
d="M170 0h-49.998v488h-90v46h90v62c0 56 13 98.167 39 126.5s62.667 42.5 110 42.5c23.333 0 56.666 -4.66699 99.999 -14l-9 -49c-36.667 9.33301 -67.334 14 -92.001 14c-36 0 -61.333 -9.33301 -76 -28s-22 -50 -22 -94v-60h173v-46h-173v-488z" />
    <glyph glyph-name="g" unicode="g" horiz-adv-x="576" 
d="M177 100l209.002 0.00195312c51.333 0 90.666 -10.833 117.999 -32.5s41 -50.834 41 -87.501c0 -50 -22 -89.333 -66 -118s-111.333 -43 -202 -43c-64 0 -116.667 11.667 -158 35s-62 59 -62 107c0 36.667 12 69.667 36 99l50 61c16.667 20.667 25 37.334 25 50.001
c0 25.333 -15.333 48.666 -46 69.999c-48 32.667 -72 77.667 -72 135c0 54 19.667 95.333 59 124s93 43 161 43h67c43.333 0 75.666 3 96.999 9l106 29l11 -43l-127 -33c2 -1.33301 4.33301 -3 7 -5s7.66699 -6.83301 15 -14.5s13.833 -16 19.5 -25s10.834 -21 15.501 -36
s7 -30.833 7 -47.5c0 -54.667 -19.333 -96.334 -58 -125.001s-92.667 -43 -162 -43c-12.667 0 -25.334 0.833008 -38.001 2.5s-22 3.16699 -28 4.5l-10 3c12.667 -12 19 -28 19 -48c0 -11.333 -2 -21.5 -6 -30.5s-13.333 -22.5 -28 -40.5zM439.002 376.002
c0 82.667 -56.667 124 -170 124s-170 -41.333 -170 -124c0 -86 56.667 -129 170 -129c51.333 0 92.5 10.5 123.5 31.5s46.5 53.5 46.5 97.5zM384.002 56.002l-239.999 -0.000976562c-26 -28.667 -39 -60 -39 -94s16.167 -59.333 48.5 -76s75.166 -25 128.499 -25
c72 0 125.667 10.333 161 31s53 49.334 53 86.001c0 52 -37.333 78 -112 78z" />
    <glyph glyph-name="h" unicode="h" horiz-adv-x="562" 
d="M487 0h-49v352c0 98.667 -47.667 148 -143 148c-40 0 -95.333 -11 -166 -33v-467h-49v759l49 11v-260c74.667 25.333 131.667 38 171 38c65.333 0 112.833 -17.5 142.5 -52.5s44.5 -81.833 44.5 -140.5v-355z" />
    <glyph glyph-name="i" unicode="i" horiz-adv-x="227" 
d="M113 680c-11.333 0 -20.5 3.83301 -27.5 11.5s-10.5 18.167 -10.5 31.5s3.5 23.833 10.5 31.5s16.167 11.5 27.5 11.5c12 0 21.5 -3.83301 28.5 -11.5s10.5 -18.167 10.5 -31.5s-3.5 -23.833 -10.5 -31.5s-16.5 -11.5 -28.5 -11.5zM140 0h-52v544h52v-544z" />
    <glyph glyph-name="j" unicode="j" horiz-adv-x="244" 
d="M15 -181v47c60 0 90 38.667 90 116v562h51v-560c0 -52 -12.5 -92.5 -37.5 -121.5s-59.5 -43.5 -103.5 -43.5zM130 680c-11.333 0 -20.5 3.83301 -27.5 11.5s-10.5 18.167 -10.5 31.5s3.5 23.833 10.5 31.5s16.167 11.5 27.5 11.5c12 0 21.5 -3.83301 28.5 -11.5
s10.5 -18.167 10.5 -31.5s-3.5 -23.833 -10.5 -31.5s-16.5 -11.5 -28.5 -11.5z" />
    <glyph glyph-name="k" unicode="k" horiz-adv-x="533" 
d="M508 0l-59 0.000976562l-169 322l-105 -115c-16 -17.333 -27.833 -33.833 -35.5 -49.5s-11.5 -36.834 -11.5 -63.501v-94h-48v759l48 11v-554l298 328h65l-171 -186z" />
    <glyph glyph-name="l" unicode="l" horiz-adv-x="211" 
d="M131 0h-51v758l51 12v-770z" />
    <glyph glyph-name="m" unicode="m" horiz-adv-x="850" 
d="M775 0l-48.999 0.000976562v360c0 44 -9.66699 78 -29 102s-52.333 36 -99 36c-40 0 -94 -13 -162 -39c12.667 -23.333 19 -55 19 -95v-364h-51v361c0 92.667 -43.667 139 -131 139c-40 0 -87.667 -9 -143 -27v-473h-50v462c0 16.667 3.66699 29.5 11 38.5
s19.333 16.167 36 21.5c50.667 17.333 101 26 151 26c58 0 102.667 -16.667 134 -50c73.333 33.333 136.666 50 189.999 50c59.333 0 103 -16.333 131 -49s42 -77.334 42 -134.001v-365z" />
    <glyph glyph-name="n" unicode="n" horiz-adv-x="567" 
d="M492 0l-49 0.000976562v348c0 100 -50.333 150 -151 150c-44 0 -98 -8.33301 -162 -25v-473h-50v465c0 16.667 3.5 29.167 10.5 37.5s18.833 14.833 35.5 19.5c64 17.333 121 26 171 26c66 0 115 -17.833 147 -53.5s48 -82.834 48 -141.501v-353z" />
    <glyph glyph-name="o" unicode="o" horiz-adv-x="599" 
d="M300 -6c-76.667 0 -136.667 24.5 -180 73.5s-65 117.167 -65 204.5c0 88 22.5 156.333 67.5 205s104.833 73 179.5 73c75.333 0 134.5 -24.167 177.5 -72.5s64.5 -116.833 64.5 -205.5c0 -88 -21.833 -156.333 -65.5 -205s-103.167 -73 -178.5 -73zM301 39
c62 0 109.499 20.333 142.499 61s49.5 98 49.5 172c0 73.333 -16.833 130.5 -50.5 171.5s-81.167 61.5 -142.5 61.5s-108.666 -20.5 -141.999 -61.5s-50 -98.167 -50 -171.5c0 -74.667 16.667 -132.167 50 -172.5s81 -60.5 143 -60.5z" />
    <glyph glyph-name="p" unicode="p" horiz-adv-x="586" 
d="M128 473v-395.001c70 -20.667 125.333 -31.667 166 -33c64 0 111 20.333 141 61s45 96.334 45 167.001c0 69.333 -15.333 124.333 -46 165s-78.334 61 -143.001 61c-39.333 0 -93.666 -8.66699 -162.999 -26zM128 -176.001l-48 -11v652c0 28.667 15 47 45 55
c70 18.667 127 28 171 28c74.667 0 132.5 -24 173.5 -72s61.5 -115.333 61.5 -202c0 -88 -20.5 -156.333 -61.5 -205s-98.833 -73 -173.5 -73c-44 0 -100 11.667 -168 35v-207z" />
    <glyph glyph-name="q" unicode="q" horiz-adv-x="577" 
d="M458 77v396c-72 17.333 -126 26 -162 26c-66 0 -114.333 -20.167 -145 -60.5s-46 -95.5 -46 -165.5c0 -151.333 62 -227 186 -227c36 0 91.667 10.333 167 31zM507 -175l-49.001 -11v219c-74 -24.667 -132 -37 -174 -37c-76 0 -133.167 23.833 -171.5 71.5
s-57.5 116.5 -57.5 206.5c0 83.333 21.333 149.833 64 199.5s101 74.5 175 74.5c48.667 0 103.667 -8.66699 165 -26c16.667 -4.66699 28.834 -11.167 36.501 -19.5s11.5 -20.833 11.5 -37.5v-640z" />
    <glyph glyph-name="r" unicode="r" horiz-adv-x="342" 
d="M130 0h-49.999v465c0 30.667 16 50 48 58c59.333 16.667 126.666 25 201.999 25v-52c-74 0 -140.667 -8.33301 -200 -25v-471z" />
    <glyph glyph-name="s" unicode="s" horiz-adv-x="529" 
d="M313 237l-105.999 19.001c-44 8 -78.333 24 -103 48s-37 55.333 -37 94c0 49.333 17 87 51 113s75.667 39 125 39c59.333 0 124 -10.667 194 -32l32 -9l-11 -49l-30 8c-73.333 22 -135.333 33 -186 33c-36 0 -65.5 -8.5 -88.5 -25.5s-34.5 -42.167 -34.5 -75.5
c0 -26 7.83301 -46.833 23.5 -62.5s42.167 -26.834 79.5 -33.501l107 -19c43.333 -7.33301 77.166 -23.333 101.499 -48s36.5 -55.667 36.5 -93c0 -49.333 -17 -86.833 -51 -112.5s-76 -38.5 -126 -38.5c-48.667 0 -113 11 -193 33l-32 9l11 50l30 -9
c75.333 -22.667 137 -34 185 -34c37.333 0 67.5 8.33301 90.5 25s34.5 41.667 34.5 75c0 26 -7.66699 46.667 -23 62s-42 26.333 -80 33z" />
    <glyph glyph-name="t" unicode="t" horiz-adv-x="391" 
d="M352 57l9 -49c-42 -9.33301 -76.333 -14 -103 -14c-48 0 -84.167 14.5 -108.5 43.5s-36.5 70.833 -36.5 125.5v325h-88v46h88v142l50 10v-152h186v-46h-186v-322c0 -44 7.5 -75.667 22.5 -95s40.167 -29 75.5 -29c18.667 0 49 5 91 15z" />
    <glyph glyph-name="u" unicode="u" 
d="M442 71v472.999h50v-465c0 -16.667 -3.5 -29.167 -10.5 -37.5s-18.833 -14.833 -35.5 -19.5c-64 -17.333 -121 -26 -171 -26c-66 0 -115 17.833 -147 53.5s-48 82.834 -48 141.501v353h49v-348c0 -100 50.333 -150 151 -150c44 0 98 8.33301 162 25z" />
    <glyph glyph-name="v" unicode="v" horiz-adv-x="523" 
d="M259 45l179 499h55l-192 -520c-8.66699 -22 -23.334 -33 -44.001 -33c-21.333 0 -35.666 11 -42.999 33l-184 520h54z" />
    <glyph glyph-name="w" unicode="w" horiz-adv-x="776" 
d="M586 42l99.999 502h50l-108 -516c-5.33301 -25.333 -19.666 -38 -42.999 -38c-21.333 0 -36 11.667 -44 35l-153 457l-158 -458c-7.33301 -22 -22.333 -33 -45 -33c-24 0 -38.667 12.333 -44 37l-101 516h53l95 -502l165 477c4.66699 18 16.667 27 36 27
c17.333 0 29 -9 35 -27z" />
    <glyph glyph-name="x" unicode="x" horiz-adv-x="532" 
d="M492 0h-64l-163 241l-165 -241h-60l194 276l-190 268h61l161 -234l157 234h58l-184 -266z" />
    <glyph glyph-name="y" unicode="y" horiz-adv-x="523" 
d="M239 -56l9.99902 32l-219 568h58l189 -504l161 504h55l-204 -616c-24 -72.667 -71 -109 -141 -109c-31.333 0 -63.333 5.33301 -96 16l8 48c40.667 -10.667 70.334 -16 89.001 -16c26 0 45.5 6.16699 58.5 18.5s23.5 31.833 31.5 58.5z" />
    <glyph glyph-name="z" unicode="z" horiz-adv-x="518" 
d="M478 0l-386 0.00195312c-24 0 -36 12.333 -36 37c0 13.333 5 25.666 15 36.999l347 425h-349v45h370c23.333 0 35 -11.667 35 -35c0 -14.667 -4.66699 -27.334 -14 -38.001l-348 -426h366v-45z" />
    <glyph glyph-name="braceleft" unicode="{" horiz-adv-x="263" 
d="M239 -67l-30 0.000976562c-38 0 -68.667 11 -92 33s-35 53 -35 93c0 29.333 8.83301 65.666 26.5 108.999s26.5 75 26.5 95c0 37.333 -22 56 -66 56v38c44 0.666992 66 19.334 66 56.001c0 20 -8.83301 51.667 -26.5 95s-26.5 79.666 -26.5 108.999
c0 40 11.667 71.167 35 93.5s54 33.5 92 33.5h30v-48h-30c-52.667 0 -79 -27.333 -79 -82c0 -26.667 8.66699 -61.167 26 -103.5s26 -74.5 26 -96.5c0 -36 -16.333 -61.333 -49 -76c32.667 -14.667 49 -40 49 -76c0 -22 -8.66699 -54.167 -26 -96.5s-26 -76.833 -26 -103.5
c0 -54 26.333 -81 79 -81h30v-48z" />
    <glyph glyph-name="bar" unicode="|" horiz-adv-x="205" 
d="M125 -180h-45v943h45v-943z" />
    <glyph glyph-name="braceright" unicode="}" horiz-adv-x="263" 
d="M65 -67h-30v48h30c52.667 0 79 27.333 79 82c0 26.667 -8.66699 61 -26 103s-26 74 -26 96c0 36 16.333 61.333 49 76c-32.667 14.667 -49 40 -49 76c0 22 8.66699 54.167 26 96.5s26 76.833 26 103.5c0 54.667 -26.333 82 -79 82h-30v48h30
c38 0 68.667 -11.167 92 -33.5s35 -53.5 35 -93.5c0 -29.333 -8.83301 -65.666 -26.5 -108.999s-26.5 -75 -26.5 -95c0 -36.667 22 -55.334 66 -56.001v-38c-44 0 -66 -18.667 -66 -56c0 -20 8.83301 -51.5 26.5 -94.5s26.5 -79.167 26.5 -108.5
c0 -40 -11.667 -71.167 -35 -93.5s-54 -33.5 -92 -33.5z" />
    <glyph glyph-name="asciitilde" unicode="~" 
d="M487 369l38.001 -26c-14.667 -36.667 -34.167 -64.167 -58.5 -82.5s-49.833 -27.5 -76.5 -27.5s-54.334 10 -83.001 30l-62 45c-22.667 16 -42 24 -58 24c-40.667 0 -72.667 -27.667 -96 -83l-37 26c15.333 36.667 35 64.167 59 82.5s49.333 27.5 76 27.5
c28.667 0 56.667 -10 84 -30l61 -46c20.667 -15.333 40.334 -23 59.001 -23c39.333 0 70.666 27.667 93.999 83z" />
    <glyph glyph-name="exclamdown" unicode="&#xa1;" horiz-adv-x="202" 
d="M131 -186h-52v509l52 10v-519zM105 481c-12 0 -21.5 3.83301 -28.5 11.5s-10.5 18.167 -10.5 31.5s3.5 23.833 10.5 31.5s16.5 11.5 28.5 11.5c11.333 0 20.5 -3.83301 27.5 -11.5s10.5 -18.167 10.5 -31.5s-3.5 -23.833 -10.5 -31.5s-16.167 -11.5 -27.5 -11.5z" />
    <glyph glyph-name="cent" unicode="&#xa2;" 
d="M328 -133h-48v129c-65.333 5.33301 -116.333 30.666 -153 75.999s-55 112 -55 200c0 83.333 18.667 148.666 56 195.999s88 74 152 80v125h48v-125c37.333 -3.33301 80.333 -11.666 129 -24.999l34 -9l-10 -49l-33 8c-77.333 18.667 -124 28 -140 28
c-122.667 0 -184 -76.333 -184 -229c0 -152 62 -228 186 -228c30 0 76 8.66699 138 26l33 9l10 -49l-34 -9c-51.333 -13.333 -94.333 -21.666 -129 -24.999v-129z" />
    <glyph glyph-name="sterling" unicode="&#xa3;" 
d="M394 0l-338.996 0.00195312c-12.667 0 -19 7.33301 -19 22c0 16 6.33301 24 19 24c56 0 96.167 14.5 120.5 43.5s36.5 65.833 36.5 110.5c0 24.667 -6.66699 53 -20 85h-126v46h106l-32 57c-14.667 26 -23.834 42.667 -27.501 50s-8.83398 19.166 -15.501 35.499
s-10.834 30.833 -12.501 43.5s-2.5 27.667 -2.5 45c0 57.333 19.333 103.166 58 137.499s88.667 51.5 150 51.5c51.333 0 115.666 -11.667 192.999 -35l33 -10l-10 -51l-32 10c-78 24 -138.667 36 -182 36c-54 0 -93.833 -12.667 -119.5 -38s-38.5 -59 -38.5 -101
c0 -28 4 -53.5 12 -76.5s21.333 -50.333 40 -82s31.667 -55.5 39 -71.5h196v-45h-176c11.333 -31.333 17 -60.333 17 -87c0 -58 -22 -108 -66 -150h194c76.667 0 115 31 115 93h38c0 -43.333 -13.333 -78 -40 -104s-63 -39 -109 -39z" />
    <glyph glyph-name="yen" unicode="&#xa5;" 
d="M321 0h-53v223h-210v46h210v90h-210v45h184l-201 340h64l191 -339l188 339h60l-198 -340h182v-45h-207v-90h207v-46h-207v-223z" />
    <glyph glyph-name="brokenbar" unicode="&#xa6;" horiz-adv-x="210" 
d="M128 388h-42v376h42v-376zM128 -180h-42v376h42v-376z" />
    <glyph glyph-name="section" unicode="&#xa7;" 
d="M469 177v64c0 58.667 -13.833 103.667 -41.5 135s-75.167 47 -142.5 47c-38.667 0 -95.334 -11.667 -170.001 -35v-62c0 -58.667 14 -104.167 42 -136.5s75.333 -48.5 142 -48.5c34.667 0 91.334 12 170.001 36zM469 43v86.999
c-77.333 -25.333 -134.666 -38 -171.999 -38c-77.333 0 -135.333 20 -174 60s-58 98 -58 174v196c0 70.667 19.5 126.334 58.5 167.001s94.167 61 165.5 61c49.333 0 113.666 -11 192.999 -33l32 -9l-10 -50l-33 9c-85.333 22.667 -145.333 34 -180 34
c-117.333 0 -176 -59.667 -176 -179v-87c75.333 24.667 133.333 37 174 37c153.333 0 230 -77 230 -231v-198c0 -71.333 -20 -127.333 -60 -168s-95 -61 -165 -61c-44 0 -108 11.667 -192 35l-32 9l11 51l32 -9c90 -25.333 150.333 -38 181 -38
c116.667 0 175 60.333 175 181z" />
    <glyph glyph-name="dieresis" unicode="&#xa8;" horiz-adv-x="555" 
d="M175 680c-11.333 0 -20.5 3.83301 -27.5 11.5s-10.5 18.167 -10.5 31.5s3.5 23.833 10.5 31.5s16.167 11.5 27.5 11.5c12 0 21.5 -3.83301 28.5 -11.5s10.5 -18.167 10.5 -31.5s-3.5 -23.833 -10.5 -31.5s-16.5 -11.5 -28.5 -11.5zM397 680
c-11.333 0 -20.5 3.83301 -27.5 11.5s-10.5 18.167 -10.5 31.5s3.5 23.833 10.5 31.5s16.167 11.5 27.5 11.5c12 0 21.5 -3.83301 28.5 -11.5s10.5 -18.167 10.5 -31.5s-3.5 -23.833 -10.5 -31.5s-16.5 -11.5 -28.5 -11.5z" />
    <glyph glyph-name="copyright" unicode="&#xa9;" horiz-adv-x="905" 
d="M611 188l-27.999 -7c-52 -13.333 -90.667 -20 -116 -20c-56.667 0 -101.834 17 -135.501 51s-50.5 85.667 -50.5 155c0 66 17.333 116.833 52 152.5s79.667 53.5 135 53.5c20.667 0 59 -7 115 -21l28 -7l-11 -43l-28 7c-49.333 12 -83.666 18 -102.999 18
c-94 0 -141 -53.333 -141 -160c0 -108 47.333 -162 142 -162c19.333 0 53.666 6 102.999 18l28 7zM464.001 -25c-106.667 0 -198.332 37.666 -274.999 112.999s-115 169.333 -115 282c0 112 38.167 204.5 114.5 277.5s168.166 109.5 275.499 109.5
c109.333 0 202.166 -36.167 278.499 -108.5s114.5 -165.166 114.5 -278.499s-38.167 -207.5 -114.5 -282.5s-169.166 -112.5 -278.499 -112.5zM464.003 20.999c97.333 0 179.5 33 246.5 99s100.5 149.333 100.5 250s-33.5 183.167 -100.5 247.5s-149.167 96.5 -246.5 96.5
c-96.667 0 -178.167 -32.333 -244.5 -97s-99.5 -147 -99.5 -247s33.5 -183.167 100.5 -249.5s148.167 -99.5 243.5 -99.5z" />
    <glyph glyph-name="ordfeminine" unicode="&#xaa;" 
d="M467 328l-31 16c-16.667 8 -40.667 9 -72 3l-51 -10c-34.667 -6.66699 -58.667 -10 -72 -10c-40 0 -71.5 11.167 -94.5 33.5s-34.5 50.833 -34.5 85.5c0 79.333 52.667 119 158 119h122v47c0 61.333 -30.667 92 -92 92c-35.333 0 -79.666 -7.33301 -132.999 -22l-29 -8
l-10 46l34 9c57.333 15.333 103.666 23 138.999 23c42 0 75.5 -11.167 100.5 -33.5s37.5 -57.833 37.5 -106.5v-225l45 -25zM392 394v130h-123c-72 0 -108 -25.667 -108 -77c0 -50.667 29.667 -76 89 -76c15.333 0 45.333 4.33301 90 13z" />
    <glyph glyph-name="guillemotleft" unicode="&#xab;" horiz-adv-x="543" 
d="M286 93h-65l-157 150c-12 10.667 -18 23 -18 37s5.66699 26.667 17 38l155 151h65l-190 -189zM497 93h-65l-159 150c-12 10.667 -18 23 -18 37s5.66699 26.667 17 38l157 151h62l-192 -189z" />
    <glyph glyph-name="logicalnot" unicode="&#xac;" 
d="M512 138h-48v224h-404v53h452v-277z" />
    <glyph glyph-name="registered" unicode="&#xae;" horiz-adv-x="905" 
d="M532 360l25.999 39c12.667 20 19 40 19 60c0 22 -6.66699 39.333 -20 52s-30.666 19 -51.999 19h-129v-170h156zM463.999 -25c-106.667 0 -198.332 37.666 -274.999 112.999s-115 169.333 -115 282c0 112 38.167 204.5 114.5 277.5s168.166 109.5 275.499 109.5
c109.333 0 202.166 -36.167 278.499 -108.5s114.5 -165.166 114.5 -278.499s-38.167 -207.5 -114.5 -282.5s-169.166 -112.5 -278.499 -112.5zM464.001 20.999c97.333 0 179.5 33 246.5 99s100.5 149.333 100.5 250s-33.5 183.167 -100.5 247.5s-149.167 96.5 -246.5 96.5
c-96.667 0 -178.167 -32.333 -244.5 -97s-99.5 -147 -99.5 -247s33.5 -183.167 100.5 -249.5s148.167 -99.5 243.5 -99.5zM645.001 166.999l-49 0.000976562l-73 151h-147v-151h-45v363c0 15.333 3.33301 26.166 10 32.499s17.667 9.5 33 9.5h138
c32.667 0 59.5 -10.5 80.5 -31.5s31.5 -48.167 31.5 -81.5c0 -26.667 -7.66699 -51 -23 -73l-36 -52z" />
    <glyph glyph-name="macron" unicode="&#xaf;" horiz-adv-x="515" 
d="M417 675h-302v50h302v-50z" />
    <glyph glyph-name="degree" unicode="&#xb0;" horiz-adv-x="462" 
d="M238 381c-54 0 -96.999 18 -128.999 54s-48 82 -48 138c0 55.333 16.167 101 48.5 137s75.833 54 130.5 54c53.333 0 95.666 -18 126.999 -54s47 -81.667 47 -137c0 -56 -16 -102 -48 -138s-74.667 -54 -128 -54zM240.001 425c40 0 70.999 13.5 92.999 40.5
s33 62.833 33 107.5c0 44 -11.167 79.5 -33.5 106.5s-53.5 40.5 -93.5 40.5c-40.667 0 -72.167 -13.5 -94.5 -40.5s-33.5 -62.5 -33.5 -106.5s11.333 -79.667 34 -107s54.334 -41 95.001 -41z" />
    <glyph glyph-name="plusminus" unicode="&#xb1;" 
d="M512 301h-204v-177h-48v177h-200v52h200v187h48v-187h204v-52zM512 0h-452v49h452v-49z" />
    <glyph glyph-name="acute" unicode="&#xb4;" horiz-adv-x="526" 
d="M380 763l-123.999 -114c-6.66699 -6.66699 -13.667 -10 -21 -10c-6.66699 0 -12.334 2.33301 -17.001 7s-7 10 -7 16c0 8.66699 3 15.667 9 21l82 80h78z" />
    <glyph glyph-name="mu" unicode="&#xb5;" 
d="M444 73l0.000976562 471h50v-462c0 -16.667 -3.33301 -29 -10 -37s-18 -14.333 -34 -19c-66 -18.667 -123 -28 -171 -28c-28.667 0 -57.334 5.16699 -86.001 15.5s-49.334 24.5 -62.001 42.5v-242h-49v730h50v-348c0 -47.333 11.333 -83.833 34 -109.5
s61.334 -38.5 116.001 -38.5c43.333 0 97.333 8.33301 162 25z" />
    <glyph glyph-name="paragraph" unicode="&#xb6;" horiz-adv-x="602" 
d="M542 -186l-46 0.000976562v885h-158v-885h-47v415c-76.667 0 -135.667 24.167 -177 72.5s-62 109.833 -62 184.5c0 75.333 19.833 137.166 59.5 185.499s97.167 72.5 172.5 72.5h258v-930z" />
    <glyph glyph-name="periodcentered" unicode="&#xb7;" horiz-adv-x="363" 
d="M188 324c-11.333 0 -20.5 3.83301 -27.5 11.5s-10.5 18.167 -10.5 31.5s3.5 23.833 10.5 31.5s16.167 11.5 27.5 11.5c12 0 21.5 -3.83301 28.5 -11.5s10.5 -18.167 10.5 -31.5s-3.5 -23.833 -10.5 -31.5s-16.5 -11.5 -28.5 -11.5z" />
    <glyph glyph-name="cedilla" unicode="&#xb8;" horiz-adv-x="515" 
d="M182 -175l11 34.999c28.667 -10.667 52.334 -16 71.001 -16c34.667 0 52 12.333 52 37c0 28.667 -30.667 40.334 -92 35.001l-2 3l41 81h32l-26 -53c27.333 0 49.333 -5.5 66 -16.5s25 -26.833 25 -47.5c0 -22 -8.5 -40.333 -25.5 -55s-40.167 -22 -69.5 -22
c-26.667 0 -54.334 6.33301 -83.001 19z" />
    <glyph glyph-name="ordmasculine" unicode="&#xba;" 
d="M288 328c-55.333 0 -99.332 18.999 -131.999 56.999s-49 90 -49 156c0 65.333 16.667 117 50 155s77.666 57 132.999 57s99.5 -19 132.5 -57s49.5 -89.667 49.5 -155s-16.833 -117.166 -50.5 -155.499s-78.167 -57.5 -133.5 -57.5zM290.001 371.999
c42.667 0 75.499 14.667 98.499 44s34.5 71 34.5 125c0 53.333 -12 94.833 -36 124.5s-57 44.5 -99 44.5c-43.333 0 -76.166 -14.667 -98.499 -44s-33.5 -71 -33.5 -125s11.667 -95.667 35 -125s56.333 -44 99 -44z" />
    <glyph glyph-name="guillemotright" unicode="&#xbb;" horiz-adv-x="543" 
d="M479 243l-157 -150h-65l193 187l-190 189h65l155 -151c11.333 -11.333 17 -24 17 -38s-6 -26.333 -18 -37zM270 243l-159 -150h-65l198 187l-192 189h62l157 -151c11.333 -11.333 17 -24 17 -38s-6 -26.333 -18 -37z" />
    <glyph glyph-name="questiondown" unicode="&#xbf;" horiz-adv-x="443" 
d="M413 -153l-32 -9.99902c-55.333 -17.333 -108 -26 -158 -26c-54.667 0 -98.167 14 -130.5 42s-48.5 67 -48.5 117c0 35.333 5.83301 65 17.5 89s29.834 49.667 54.501 77l97 103v85l47 9v-72c0 -26.667 -9.33301 -49.667 -28 -69l-75 -81
c-24.667 -26.667 -41.667 -49.334 -51 -68.001s-14 -42.667 -14 -72c0 -34 11.167 -61.333 33.5 -82s55.166 -31 98.499 -31c49.333 0 99 8.33301 149 25l30 10zM236 481.001c-12 0 -21.5 3.83301 -28.5 11.5s-10.5 18.167 -10.5 31.5s3.5 23.833 10.5 31.5
s16.5 11.5 28.5 11.5c11.333 0 20.5 -3.83301 27.5 -11.5s10.5 -18.167 10.5 -31.5s-3.5 -23.833 -10.5 -31.5s-16.167 -11.5 -27.5 -11.5z" />
    <glyph glyph-name="Agrave" unicode="&#xc0;" horiz-adv-x="660" 
d="M640 0h-55.999l-66 177h-379l-66 -177h-53l269 718c8 22 22.333 33 43 33c21.333 0 35.666 -10.333 42.999 -31zM503.001 223l-171 471l-177 -471h348zM359.001 821l-123.999 114h78l82 -80c6 -5.33301 9 -12.333 9 -21c0 -6 -2.33301 -11.333 -7 -16
s-10.334 -7 -17.001 -7c-7.33301 0 -14.333 3.33301 -21 10z" />
    <glyph glyph-name="Aacute" unicode="&#xc1;" horiz-adv-x="660" 
d="M640 0h-55.999l-66 177h-379l-66 -177h-53l269 718c8 22 22.333 33 43 33c21.333 0 35.666 -10.333 42.999 -31zM503.001 223l-171 471l-177 -471h348zM437.001 935l-123.999 -114c-6.66699 -6.66699 -13.667 -10 -21 -10c-6.66699 0 -12.334 2.33301 -17.001 7
s-7 10 -7 16c0 8.66699 3 15.667 9 21l82 80h78z" />
    <glyph glyph-name="Acircumflex" unicode="&#xc2;" horiz-adv-x="660" 
d="M640 0h-55.999l-66 177h-379l-66 -177h-53l269 718c8 22 22.333 33 43 33c21.333 0 35.666 -10.333 42.999 -31zM503.001 223l-171 471l-177 -471h348zM487.001 815h-65l-88 96l-89 -96h-63l115 121c10.667 10.667 23 16 37 16s26.333 -5.33301 37 -16z" />
    <glyph glyph-name="Atilde" unicode="&#xc3;" horiz-adv-x="660" 
d="M640 0h-55.999l-66 177h-379l-66 -177h-53l269 718c8 22 22.333 33 43 33c21.333 0 35.666 -10.333 42.999 -31zM503.001 223l-171 471l-177 -471h348zM503.001 926l37.001 -20.001c-12.667 -31.333 -29.334 -54.833 -50.001 -70.5s-42 -23.5 -64 -23.5
c-25.333 0 -49.666 8 -72.999 24l-45 32c-16.667 12 -33 18 -49 18c-32.667 0 -58.334 -21.667 -77.001 -65l-36 21c12.667 30.667 29.5 53.834 50.5 69.501s42.5 23.5 64.5 23.5c26 0 49.667 -8 71 -24l46 -33c16 -11.333 32 -17 48 -17c32 0 57.667 21.667 77 65z" />
    <glyph glyph-name="Adieresis" unicode="&#xc4;" horiz-adv-x="660" 
d="M640 0h-55.999l-66 177h-379l-66 -177h-53l269 718c8 22 22.333 33 43 33c21.333 0 35.666 -10.333 42.999 -31zM503.001 223l-171 471l-177 -471h348zM222.001 834c-11.333 0 -20.5 3.83301 -27.5 11.5s-10.5 18.167 -10.5 31.5s3.5 23.833 10.5 31.5
s16.167 11.5 27.5 11.5c12 0 21.5 -3.83301 28.5 -11.5s10.5 -18.167 10.5 -31.5s-3.5 -23.833 -10.5 -31.5s-16.5 -11.5 -28.5 -11.5zM444.001 834c-11.333 0 -20.5 3.83301 -27.5 11.5s-10.5 18.167 -10.5 31.5s3.5 23.833 10.5 31.5s16.167 11.5 27.5 11.5
c12 0 21.5 -3.83301 28.5 -11.5s10.5 -18.167 10.5 -31.5s-3.5 -23.833 -10.5 -31.5s-16.5 -11.5 -28.5 -11.5z" />
    <glyph glyph-name="Aring" unicode="&#xc5;" horiz-adv-x="664" 
d="M640 0h-56l-66 177h-379l-66 -177h-53l269 716c-36.667 16.667 -55 46 -55 88c0 28 9.33301 51.167 28 69.5s42 27.5 70 27.5s51.5 -9 70.5 -27s28.5 -41.333 28.5 -70c0 -20 -5.16699 -37.667 -15.5 -53s-23.833 -27 -40.5 -35zM503 223l-171 471l-177 -471h348z
M391 804c0 16.667 -5.5 30.5 -16.5 41.5s-25.167 16.5 -42.5 16.5s-31.333 -5.5 -42 -16.5s-16 -24.833 -16 -41.5s5.33301 -30.667 16 -42s24.667 -17 42 -17s31.5 5.66699 42.5 17s16.5 25.333 16.5 42z" />
    <glyph glyph-name="AE" unicode="&#xc6;" horiz-adv-x="986" 
d="M941 0h-400c-36.667 0 -55 17.667 -55 53v119h-344l-66 -172h-56l277 698c12 30.667 34.667 46 68 46h572v-49h-400v-290h359v-47h-359v-309h404v-49zM486 219v476h-138l-188 -476h326z" />
    <glyph glyph-name="Ccedilla" unicode="&#xc7;" horiz-adv-x="651" 
d="M612 40l-41.9971 -13.001c-75.333 -23.333 -138.666 -35 -189.999 -35c-96.667 0 -173.834 31.333 -231.501 94s-86.5 157.334 -86.5 284.001c0 124 29.5 218 88.5 282s135.5 96 229.5 96c51.333 0 114.666 -11.667 189.999 -35l42 -13l-10 -50l-42 13
c-74 22.667 -133.667 34 -179 34c-82.667 0 -147.334 -27 -194.001 -81s-70 -136 -70 -246s23.5 -192 70.5 -246s111.833 -81 194.5 -81c45.333 0 104.666 11.333 177.999 34l42 13zM289.003 -175.001l11 34.999c28.667 -10.667 52.334 -16 71.001 -16
c34.667 0 52 12.333 52 37c0 28.667 -30.667 40.334 -92 35.001l-2 3l41 81h32l-26 -53c27.333 0 49.333 -5.5 66 -16.5s25 -26.833 25 -47.5c0 -22 -8.5 -40.333 -25.5 -55s-40.167 -22 -69.5 -22c-26.667 0 -54.334 6.33301 -83.001 19z" />
    <glyph glyph-name="Egrave" unicode="&#xc8;" horiz-adv-x="596" 
d="M541 0h-400c-37.333 0 -56 17.667 -56 53v638c0 35.333 18.667 53 56 53h397v-49h-400v-290h352v-48h-352v-308h403v-49zM333 821l-123.999 114h78l82 -80c6 -5.33301 9 -12.333 9 -21c0 -6 -2.33301 -11.333 -7 -16s-10.334 -7 -17.001 -7
c-7.33301 0 -14.333 3.33301 -21 10z" />
    <glyph glyph-name="Eacute" unicode="&#xc9;" horiz-adv-x="596" 
d="M541 0h-400c-37.333 0 -56 17.667 -56 53v638c0 35.333 18.667 53 56 53h397v-49h-400v-290h352v-48h-352v-308h403v-49zM425 935l-123.999 -114c-6.66699 -6.66699 -13.667 -10 -21 -10c-6.66699 0 -12.334 2.33301 -17.001 7s-7 10 -7 16c0 8.66699 3 15.667 9 21
l82 80h78z" />
    <glyph glyph-name="Ecircumflex" unicode="&#xca;" horiz-adv-x="596" 
d="M466 815h-65l-88 96l-89 -96h-63l115 121c10.667 10.667 23 16 37 16s26.333 -5.33301 37 -16zM541 0h-400c-37.333 0 -56 17.667 -56 53v638c0 35.333 18.667 53 56 53h397v-49h-400v-290h352v-48h-352v-308h403v-49z" />
    <glyph glyph-name="Edieresis" unicode="&#xcb;" horiz-adv-x="596" 
d="M541 0h-400c-37.333 0 -56 17.667 -56 53v638c0 35.333 18.667 53 56 53h397v-49h-400v-290h352v-48h-352v-308h403v-49zM200 833c-11.333 0 -20.5 3.83301 -27.5 11.5s-10.5 18.167 -10.5 31.5s3.5 23.833 10.5 31.5s16.167 11.5 27.5 11.5
c12 0 21.5 -3.83301 28.5 -11.5s10.5 -18.167 10.5 -31.5s-3.5 -23.833 -10.5 -31.5s-16.5 -11.5 -28.5 -11.5zM422 833c-11.333 0 -20.5 3.83301 -27.5 11.5s-10.5 18.167 -10.5 31.5s3.5 23.833 10.5 31.5s16.167 11.5 27.5 11.5c12 0 21.5 -3.83301 28.5 -11.5
s10.5 -18.167 10.5 -31.5s-3.5 -23.833 -10.5 -31.5s-16.5 -11.5 -28.5 -11.5z" />
    <glyph glyph-name="Igrave" unicode="&#xcc;" horiz-adv-x="223" 
d="M135 820l-123.999 114h78l82 -80c6 -5.33301 9 -12.333 9 -21c0 -6 -2.33301 -11.333 -7 -16s-10.334 -7 -17.001 -7c-7.33301 0 -14.333 3.33301 -21 10zM138.001 0h-53v744h53v-744z" />
    <glyph glyph-name="Iacute" unicode="&#xcd;" horiz-adv-x="223" 
d="M223 934l-123.999 -114c-6.66699 -6.66699 -13.667 -10 -21 -10c-6.66699 0 -12.334 2.33301 -17.001 7s-7 10 -7 16c0 8.66699 3 15.667 9 21l82 80h78zM138.001 0h-53v744h53v-744z" />
    <glyph glyph-name="Icircumflex" unicode="&#xce;" horiz-adv-x="223" 
d="M265 815h-65l-88 96l-89 -96h-63l115 121c10.667 10.667 23 16 37 16s26.333 -5.33301 37 -16zM138 0h-53v744h53v-744z" />
    <glyph glyph-name="Idieresis" unicode="&#xcf;" horiz-adv-x="223" 
d="M138 0h-53v744h53v-744zM2 834c-11.333 0 -20.5 3.83301 -27.5 11.5s-10.5 18.167 -10.5 31.5s3.5 23.833 10.5 31.5s16.167 11.5 27.5 11.5c12 0 21.5 -3.83301 28.5 -11.5s10.5 -18.167 10.5 -31.5s-3.5 -23.833 -10.5 -31.5s-16.5 -11.5 -28.5 -11.5zM224 834
c-11.333 0 -20.5 3.83301 -27.5 11.5s-10.5 18.167 -10.5 31.5s3.5 23.833 10.5 31.5s16.167 11.5 27.5 11.5c12 0 21.5 -3.83301 28.5 -11.5s10.5 -18.167 10.5 -31.5s-3.5 -23.833 -10.5 -31.5s-16.5 -11.5 -28.5 -11.5z" />
    <glyph glyph-name="Eth" unicode="&#xd0;" horiz-adv-x="715" 
d="M339 0h-193c-37.333 0 -56 17.667 -56 53v305h-70v47h70v286c0 35.333 18.667 53 56 53h196c96.667 0 173.834 -33.167 231.501 -99.5s86.5 -157.833 86.5 -274.5c0 -116 -29.333 -206.667 -88 -272s-136.334 -98 -233.001 -98zM143 49h193c86 0 152.667 28 200 84
s71 135 71 237c0 100 -24.5 179.5 -73.5 238.5s-117.167 88.5 -204.5 88.5h-186v-292h229v-47h-229v-309z" />
    <glyph glyph-name="Ntilde" unicode="&#xd1;" horiz-adv-x="722" 
d="M550 23l-415 662v-685h-50v706c0 30 13.667 45 41 45c19.333 0 35 -9.33301 47 -28l415 -661v682h49v-704c0 -30 -13.667 -45 -41 -45c-18.667 0 -34 9.33301 -46 28zM532 927l37 -20.001c-12.667 -31.333 -29.334 -54.833 -50.001 -70.5s-42 -23.5 -64 -23.5
c-25.333 0 -49.666 8 -72.999 24l-45 32c-16.667 12 -33 18 -49 18c-33.333 0 -59 -21.667 -77 -65l-36 21c12.667 30.667 29.5 53.834 50.5 69.501s42.5 23.5 64.5 23.5c26 0 49.667 -8 71 -24l46 -33c16 -11.333 32 -17 48 -17c32 0 57.667 21.667 77 65z" />
    <glyph glyph-name="Ograve" unicode="&#xd2;" horiz-adv-x="768" 
d="M383 -8c-100 0 -179.667 33.1689 -239 99.502s-89 159.166 -89 278.499c0 118.667 30.333 211.334 91 278.001s141 100 241 100c98.667 0 177.667 -33.333 237 -100s89 -159.334 89 -278.001c0 -120.667 -30 -213.834 -90 -279.501s-140 -98.5 -240 -98.5zM385 39.002
c86 0 153 28.667 201 86s72 139 72 245c0 104.667 -24 185.834 -72 243.501s-114.667 86.5 -200 86.5c-86 0 -153.833 -28.833 -203.5 -86.5s-74.5 -138.834 -74.5 -243.501c0 -105.333 24.833 -186.833 74.5 -244.5s117.167 -86.5 202.5 -86.5zM408 820.002l-123.999 114
h78l82 -80c6 -5.33301 9 -12.333 9 -21c0 -6 -2.33301 -11.333 -7 -16s-10.334 -7 -17.001 -7c-7.33301 0 -14.333 3.33301 -21 10z" />
    <glyph glyph-name="Oacute" unicode="&#xd3;" horiz-adv-x="768" 
d="M383 -8c-100 0 -179.667 33.1689 -239 99.502s-89 159.166 -89 278.499c0 118.667 30.333 211.334 91 278.001s141 100 241 100c98.667 0 177.667 -33.333 237 -100s89 -159.334 89 -278.001c0 -120.667 -30 -213.834 -90 -279.501s-140 -98.5 -240 -98.5zM385 39.002
c86 0 153 28.667 201 86s72 139 72 245c0 104.667 -24 185.834 -72 243.501s-114.667 86.5 -200 86.5c-86 0 -153.833 -28.833 -203.5 -86.5s-74.5 -138.834 -74.5 -243.501c0 -105.333 24.833 -186.833 74.5 -244.5s117.167 -86.5 202.5 -86.5zM495 934.002l-123.999 -114
c-6.66699 -6.66699 -13.667 -10 -21 -10c-6.66699 0 -12.334 2.33301 -17.001 7s-7 10 -7 16c0 8.66699 3 15.667 9 21l82 80h78z" />
    <glyph glyph-name="Ocircumflex" unicode="&#xd4;" horiz-adv-x="768" 
d="M540 815h-65l-88 96l-89 -96h-63l115 121c10.667 10.667 23 16 37 16s26.333 -5.33301 37 -16zM383 -8c-100 0 -179.667 33.1689 -239 99.502s-89 159.166 -89 278.499c0 118.667 30.333 211.334 91 278.001s141 100 241 100c98.667 0 177.667 -33.333 237 -100
s89 -159.334 89 -278.001c0 -120.667 -30 -213.834 -90 -279.501s-140 -98.5 -240 -98.5zM385 39.002c86 0 153 28.667 201 86s72 139 72 245c0 104.667 -24 185.834 -72 243.501s-114.667 86.5 -200 86.5c-86 0 -153.833 -28.833 -203.5 -86.5
s-74.5 -138.834 -74.5 -243.501c0 -105.333 24.833 -186.833 74.5 -244.5s117.167 -86.5 202.5 -86.5z" />
    <glyph glyph-name="Otilde" unicode="&#xd5;" horiz-adv-x="768" 
d="M383 -8c-100 0 -179.667 33.1689 -239 99.502s-89 159.166 -89 278.499c0 118.667 30.333 211.334 91 278.001s141 100 241 100c98.667 0 177.667 -33.333 237 -100s89 -159.334 89 -278.001c0 -120.667 -30 -213.834 -90 -279.501s-140 -98.5 -240 -98.5zM385 39.002
c86 0 153 28.667 201 86s72 139 72 245c0 104.667 -24 185.834 -72 243.501s-114.667 86.5 -200 86.5c-86 0 -153.833 -28.833 -203.5 -86.5s-74.5 -138.834 -74.5 -243.501c0 -105.333 24.833 -186.833 74.5 -244.5s117.167 -86.5 202.5 -86.5zM547 929.002l37 -20.001
c-12.667 -31.333 -29.334 -54.833 -50.001 -70.5s-42 -23.5 -64 -23.5c-25.333 0 -49.666 8 -72.999 24l-45 32c-17.333 12 -33.666 18 -48.999 18c-32.667 0 -58.334 -21.667 -77.001 -65l-36 21c12.667 30.667 29.5 53.834 50.5 69.501s42.5 23.5 64.5 23.5
c26 0 49.667 -8 71 -24l46 -33c16 -11.333 32 -17 48 -17c32 0 57.667 21.667 77 65z" />
    <glyph glyph-name="Odieresis" unicode="&#xd6;" horiz-adv-x="768" 
d="M383 -8c-100 0 -179.667 33.1689 -239 99.502s-89 159.166 -89 278.499c0 118.667 30.333 211.334 91 278.001s141 100 241 100c98.667 0 177.667 -33.333 237 -100s89 -159.334 89 -278.001c0 -120.667 -30 -213.834 -90 -279.501s-140 -98.5 -240 -98.5zM385 39.002
c86 0 153 28.667 201 86s72 139 72 245c0 104.667 -24 185.834 -72 243.501s-114.667 86.5 -200 86.5c-86 0 -153.833 -28.833 -203.5 -86.5s-74.5 -138.834 -74.5 -243.501c0 -105.333 24.833 -186.833 74.5 -244.5s117.167 -86.5 202.5 -86.5zM276 833.002
c-11.333 0 -20.5 3.83301 -27.5 11.5s-10.5 18.167 -10.5 31.5s3.5 23.833 10.5 31.5s16.167 11.5 27.5 11.5c12 0 21.5 -3.83301 28.5 -11.5s10.5 -18.167 10.5 -31.5s-3.5 -23.833 -10.5 -31.5s-16.5 -11.5 -28.5 -11.5zM498 833.002c-11.333 0 -20.5 3.83301 -27.5 11.5
s-10.5 18.167 -10.5 31.5s3.5 23.833 10.5 31.5s16.167 11.5 27.5 11.5c12 0 21.5 -3.83301 28.5 -11.5s10.5 -18.167 10.5 -31.5s-3.5 -23.833 -10.5 -31.5s-16.5 -11.5 -28.5 -11.5z" />
    <glyph glyph-name="multiply" unicode="&#xd7;" 
d="M459 80l-175 175l-175 -175l-36 37l174 176l-174 175l36 37l175 -175l175 175l36 -37l-174 -175l174 -176z" />
    <glyph glyph-name="Oslash" unicode="&#xd8;" horiz-adv-x="768" 
d="M184 -53h-49l55 102c-90 65.333 -135 172.333 -135 321c0 118.667 30.333 211.334 91 278.001s141 100 241 100c60.667 0 114 -13 160 -39l46 84h50l-59 -108c86 -66 129 -171 129 -315c0 -120.667 -30 -213.834 -90 -279.501s-140 -98.5 -240 -98.5
c-59.333 0 -111.333 11.333 -156 34zM214 93l310 573.001c-40 22.667 -86 34 -138 34c-86 0 -153.833 -28.833 -203.5 -86.5s-74.5 -138.834 -74.5 -243.501c0 -128 35.333 -220.333 106 -277zM560 641.001l-310 -570.999c38.667 -20.667 83.667 -31 135 -31
c86 0 153 28.667 201 86s72 139 72 245c0 123.333 -32.667 213.666 -98 270.999z" />
    <glyph glyph-name="Ugrave" unicode="&#xd9;" horiz-adv-x="708" 
d="M575 261v483h53v-483c0 -86 -23.667 -153.333 -71 -202s-115 -73 -203 -73s-155.667 24.333 -203 73s-71 116 -71 202v483h53v-483c0 -72.667 18.5 -128.5 55.5 -167.5s92.167 -58.5 165.5 -58.5c147.333 0 221 75.333 221 226zM380 821l-123.999 114h78l82 -80
c6 -5.33301 9 -12.333 9 -21c0 -6 -2.33301 -11.333 -7 -16s-10.334 -7 -17.001 -7c-7.33301 0 -14.333 3.33301 -21 10z" />
    <glyph glyph-name="Uacute" unicode="&#xda;" horiz-adv-x="708" 
d="M470 935l-123.999 -114c-6.66699 -6.66699 -13.667 -10 -21 -10c-6.66699 0 -12.334 2.33301 -17.001 7s-7 10 -7 16c0 8.66699 3 15.667 9 21l82 80h78zM575.001 261v483h53v-483c0 -86 -23.667 -153.333 -71 -202s-115 -73 -203 -73s-155.667 24.333 -203 73
s-71 116 -71 202v483h53v-483c0 -72.667 18.5 -128.5 55.5 -167.5s92.167 -58.5 165.5 -58.5c147.333 0 221 75.333 221 226z" />
    <glyph glyph-name="Ucircumflex" unicode="&#xdb;" horiz-adv-x="708" 
d="M512 815h-65l-88 96l-89 -96h-63l115 121c10.667 10.667 23 16 37 16s26.333 -5.33301 37 -16zM575 261v483h53v-483c0 -86 -23.667 -153.333 -71 -202s-115 -73 -203 -73s-155.667 24.333 -203 73s-71 116 -71 202v483h53v-483c0 -72.667 18.5 -128.5 55.5 -167.5
s92.167 -58.5 165.5 -58.5c147.333 0 221 75.333 221 226z" />
    <glyph glyph-name="Udieresis" unicode="&#xdc;" horiz-adv-x="708" 
d="M575 261v483h53v-483c0 -86 -23.667 -153.333 -71 -202s-115 -73 -203 -73s-155.667 24.333 -203 73s-71 116 -71 202v483h53v-483c0 -72.667 18.5 -128.5 55.5 -167.5s92.167 -58.5 165.5 -58.5c147.333 0 221 75.333 221 226zM248 833
c-11.333 0 -20.5 3.83301 -27.5 11.5s-10.5 18.167 -10.5 31.5s3.5 23.833 10.5 31.5s16.167 11.5 27.5 11.5c12 0 21.5 -3.83301 28.5 -11.5s10.5 -18.167 10.5 -31.5s-3.5 -23.833 -10.5 -31.5s-16.5 -11.5 -28.5 -11.5zM470 833c-11.333 0 -20.5 3.83301 -27.5 11.5
s-10.5 18.167 -10.5 31.5s3.5 23.833 10.5 31.5s16.167 11.5 27.5 11.5c12 0 21.5 -3.83301 28.5 -11.5s10.5 -18.167 10.5 -31.5s-3.5 -23.833 -10.5 -31.5s-16.5 -11.5 -28.5 -11.5z" />
    <glyph glyph-name="Yacute" unicode="&#xdd;" horiz-adv-x="629" 
d="M348 0h-53v322l-270 422h61l238 -373l231 373h60l-267 -420v-324zM456 935l-123.999 -114c-6.66699 -6.66699 -13.667 -10 -21 -10c-6.66699 0 -12.334 2.33301 -17.001 7s-7 10 -7 16c0 8.66699 3 15.667 9 21l82 80h78z" />
    <glyph glyph-name="Thorn" unicode="&#xde;" horiz-adv-x="610" 
d="M349 170h-214v-170h-50v744h50v-132h226c60 0 109.333 -20 148 -60s58 -93.667 58 -161c0 -68 -20.167 -121.833 -60.5 -161.5s-92.833 -59.5 -157.5 -59.5zM135 216l214 0.000976562c52 0 93 15.5 123 46.5s45 74.167 45 129.5c0 53.333 -14.667 95.666 -44 126.999
s-68.333 47 -117 47h-221v-350z" />
    <glyph glyph-name="germandbls" unicode="&#xdf;" horiz-adv-x="561" 
d="M323 0l-78 -0.000976562v46h75c48.667 0 84.5 12 107.5 36s34.5 56 34.5 96c0 39.333 -18.667 75 -56 107l-72 60c-14.667 12.667 -22 26.667 -22 42c0 10.667 4.33301 22.334 13 35.001l49 67c22 30 33 63 33 99c0 39.333 -12.833 71.5 -38.5 96.5
s-60.167 37.5 -103.5 37.5c-90.667 0 -136 -51 -136 -153v-569h-49v569c0 67.333 17.5 117.333 52.5 150s79.5 49 133.5 49c56 0 101.667 -15.667 137 -47s53 -75.333 53 -132c0 -42 -12.667 -81.333 -38 -118l-61 -82l83 -69c47.333 -42 71 -89 71 -141
c0 -54 -17.167 -97.333 -51.5 -130s-79.833 -49 -136.5 -49z" />
    <glyph glyph-name="agrave" unicode="&#xe0;" horiz-adv-x="580" 
d="M531 -5l-39.999 24.002c-22.667 13.333 -47.334 16.666 -74.001 9.99902l-43 -11c-68 -16.667 -117.667 -25 -149 -25c-52.667 0 -93.834 13 -123.501 39s-44.5 62 -44.5 108c0 55.333 18.833 95.166 56.5 119.499s86.834 36.5 147.501 36.5h178v75
c0 86.667 -46.667 130 -140 130c-44 0 -102 -10.667 -174 -32l-34 -10l-11 48l33 9c84.667 22.667 147 34 187 34c56.667 0 102 -14.5 136 -43.5s51 -74.167 51 -135.5v-299l64 -39zM439.001 74.002l-0.000976562 177h-179c-102 0 -153 -36.667 -153 -110
c0 -68.667 42 -103 126 -103c28.667 0 74.334 7 137.001 21zM315 649.002l-123.999 114h78l82 -80c6 -5.33301 9 -12.333 9 -21c0 -6 -2.33301 -11.333 -7 -16s-10.334 -7 -17.001 -7c-7.33301 0 -14.333 3.33301 -21 10z" />
    <glyph glyph-name="aacute" unicode="&#xe1;" horiz-adv-x="580" 
d="M531 -5l-39.999 24.002c-22.667 13.333 -47.334 16.666 -74.001 9.99902l-43 -11c-68 -16.667 -117.667 -25 -149 -25c-52.667 0 -93.834 13 -123.501 39s-44.5 62 -44.5 108c0 55.333 18.833 95.166 56.5 119.499s86.834 36.5 147.501 36.5h178v75
c0 86.667 -46.667 130 -140 130c-44 0 -102 -10.667 -174 -32l-34 -10l-11 48l33 9c84.667 22.667 147 34 187 34c56.667 0 102 -14.5 136 -43.5s51 -74.167 51 -135.5v-299l64 -39zM439.001 74.002l-0.000976562 177h-179c-102 0 -153 -36.667 -153 -110
c0 -68.667 42 -103 126 -103c28.667 0 74.334 7 137.001 21zM417 763.002l-123.999 -114c-6.66699 -6.66699 -13.667 -10 -21 -10c-6.66699 0 -12.334 2.33301 -17.001 7s-7 10 -7 16c0 8.66699 3 15.667 9 21l82 80h78z" />
    <glyph glyph-name="acircumflex" unicode="&#xe2;" horiz-adv-x="580" 
d="M531 -5l-39.999 24.002c-22.667 13.333 -47.334 16.666 -74.001 9.99902l-43 -11c-68 -16.667 -117.667 -25 -149 -25c-52.667 0 -93.834 13 -123.501 39s-44.5 62 -44.5 108c0 55.333 18.833 95.166 56.5 119.499s86.834 36.5 147.501 36.5h178v75
c0 86.667 -46.667 130 -140 130c-44 0 -102 -10.667 -174 -32l-34 -10l-11 48l33 9c84.667 22.667 147 34 187 34c56.667 0 102 -14.5 136 -43.5s51 -74.167 51 -135.5v-299l64 -39zM439.001 74.002l-0.000976562 177h-179c-102 0 -153 -36.667 -153 -110
c0 -68.667 42 -103 126 -103c28.667 0 74.334 7 137.001 21zM452 628.002h-65l-88 96l-89 -96h-63l115 121c10.667 10.667 23 16 37 16s26.333 -5.33301 37 -16z" />
    <glyph glyph-name="atilde" unicode="&#xe3;" horiz-adv-x="580" 
d="M531 -5l-39.999 24.002c-22.667 13.333 -47.334 16.666 -74.001 9.99902l-43 -11c-68 -16.667 -117.667 -25 -149 -25c-52.667 0 -93.834 13 -123.501 39s-44.5 62 -44.5 108c0 55.333 18.833 95.166 56.5 119.499s86.834 36.5 147.501 36.5h178v75
c0 86.667 -46.667 130 -140 130c-44 0 -102 -10.667 -174 -32l-34 -10l-11 48l33 9c84.667 22.667 147 34 187 34c56.667 0 102 -14.5 136 -43.5s51 -74.167 51 -135.5v-299l64 -39zM439.001 74.002l-0.000976562 177h-179c-102 0 -153 -36.667 -153 -110
c0 -68.667 42 -103 126 -103c28.667 0 74.334 7 137.001 21zM458 747.002l37 -20.001c-12.667 -31.333 -29.334 -54.833 -50.001 -70.5s-42 -23.5 -64 -23.5c-26 0 -50.333 8 -73 24l-45 32c-17.333 12 -33.666 18 -48.999 18c-33.333 0 -59 -21.667 -77 -65l-36 21
c12.667 30.667 29.5 53.834 50.5 69.501s42.5 23.5 64.5 23.5c26 0 49.667 -8 71 -24l46 -33c16 -11.333 32 -17 48 -17c32 0 57.667 21.667 77 65z" />
    <glyph glyph-name="adieresis" unicode="&#xe4;" horiz-adv-x="580" 
d="M531 -5l-39.999 24.002c-22.667 13.333 -47.334 16.666 -74.001 9.99902l-43 -11c-68 -16.667 -117.667 -25 -149 -25c-52.667 0 -93.834 13 -123.501 39s-44.5 62 -44.5 108c0 55.333 18.833 95.166 56.5 119.499s86.834 36.5 147.501 36.5h178v75
c0 86.667 -46.667 130 -140 130c-44 0 -102 -10.667 -174 -32l-34 -10l-11 48l33 9c84.667 22.667 147 34 187 34c56.667 0 102 -14.5 136 -43.5s51 -74.167 51 -135.5v-299l64 -39zM439.001 74.002l-0.000976562 177h-179c-102 0 -153 -36.667 -153 -110
c0 -68.667 42 -103 126 -103c28.667 0 74.334 7 137.001 21zM190 680.002c-11.333 0 -20.5 3.83301 -27.5 11.5s-10.5 18.167 -10.5 31.5s3.5 23.833 10.5 31.5s16.167 11.5 27.5 11.5c12 0 21.5 -3.83301 28.5 -11.5s10.5 -18.167 10.5 -31.5s-3.5 -23.833 -10.5 -31.5
s-16.5 -11.5 -28.5 -11.5zM412 680.002c-11.333 0 -20.5 3.83301 -27.5 11.5s-10.5 18.167 -10.5 31.5s3.5 23.833 10.5 31.5s16.167 11.5 27.5 11.5c12 0 21.5 -3.83301 28.5 -11.5s10.5 -18.167 10.5 -31.5s-3.5 -23.833 -10.5 -31.5s-16.5 -11.5 -28.5 -11.5z" />
    <glyph glyph-name="aring" unicode="&#xe5;" horiz-adv-x="580" 
d="M531 -5l-39.999 24.002c-22.667 13.333 -47.334 16.666 -74.001 9.99902l-43 -11c-68 -16.667 -117.667 -25 -149 -25c-52.667 0 -93.834 13 -123.501 39s-44.5 62 -44.5 108c0 55.333 18.833 95.166 56.5 119.499s86.834 36.5 147.501 36.5h178v75
c0 86.667 -46.667 130 -140 130c-44 0 -102 -10.667 -174 -32l-34 -10l-11 48l33 9c84.667 22.667 147 34 187 34c56.667 0 102 -14.5 136 -43.5s51 -74.167 51 -135.5v-299l64 -39zM439.001 74.002l-0.000976562 177h-179c-102 0 -153 -36.667 -153 -110
c0 -68.667 42 -103 126 -103c28.667 0 74.334 7 137.001 21zM392 700.002c0 -28 -9.66797 -51.167 -29.001 -69.5s-42.666 -27.5 -69.999 -27.5c-28 0 -51.333 9.16699 -70 27.5s-28 41.5 -28 69.5c0 28.667 9.33301 52 28 70s42 27 70 27s51.5 -9 70.5 -27
s28.5 -41.333 28.5 -70zM351.999 700.002c0 16.667 -5.5 30.5 -16.5 41.5s-25.167 16.5 -42.5 16.5s-31.333 -5.5 -42 -16.5s-16 -24.833 -16 -41.5s5.33301 -30.667 16 -42s24.667 -17 42 -17s31.5 5.66699 42.5 17s16.5 25.333 16.5 42z" />
    <glyph glyph-name="ae" unicode="&#xe6;" horiz-adv-x="956" 
d="M896 39l-42.001 -13.999c-61.333 -20.667 -117 -31 -167 -31c-52 0 -97.667 11.333 -137 34c-24 13.333 -50.667 16.333 -80 9l-89 -21c-64 -15.333 -117.333 -23 -160 -23c-52.667 0 -93.834 12.833 -123.501 38.5s-44.5 61.5 -44.5 107.5c0 55.333 19 95.333 57 120
s87.333 37 148 37h178v72c0 88.667 -45.667 133 -137 133c-44 0 -102 -10.667 -174 -32l-34 -10l-11 48l33 9c84.667 22.667 147 34 187 34c44 0 81.833 -9.66699 113.5 -29s52.834 -49 63.501 -89c18.667 39.333 45.5 69.166 80.5 89.499s73.167 30.5 114.5 30.5
c72 0 129 -22.5 171 -67.5s63 -111.833 63 -200.5c0 -23.333 -10.333 -35 -31 -35h-386c2.66699 -67.333 22.334 -118.333 59.001 -153s83.667 -52 141 -52c42.667 0 94 9.66699 154 29l43 14zM374.999 61.001l112.001 24c-31.333 50.667 -48 105.667 -50 165h-180
c-50.667 0 -88.834 -8.5 -114.501 -25.5s-38.5 -44.833 -38.5 -83.5c0 -68 42.667 -102 128 -102c33.333 0 81 7.33301 143 22zM489 296.001h364c0 64.667 -15.167 116.167 -45.5 154.5s-75.833 57.5 -136.5 57.5c-54 0 -97 -19 -129 -57s-49.667 -89.667 -53 -155z" />
    <glyph glyph-name="ccedilla" unicode="&#xe7;" horiz-adv-x="504" 
d="M474 30l-33.998 -9c-66 -17.333 -116.333 -26 -151 -26c-72.667 0 -129.834 22.833 -171.501 68.5s-62.5 115.167 -62.5 208.5c0 88.667 21.167 157 63.5 205s99.166 72 170.499 72c36.667 0 87 -8.66699 151 -26l34 -9l-10 -49l-33 8c-77.333 18.667 -124 28 -140 28
c-122.667 0 -184 -76.333 -184 -229c0 -152 62 -228 186 -228c30 0 76 8.66699 138 26l33 9zM196.002 -175l11 34.999c28.667 -10.667 52.334 -16 71.001 -16c34.667 0 52 12.333 52 37c0 28.667 -30.667 40.334 -92 35.001l-2 3l41 81h32l-26 -53
c27.333 0 49.333 -5.5 66 -16.5s25 -26.833 25 -47.5c0 -22 -8.5 -40.333 -25.5 -55s-40.167 -22 -69.5 -22c-26.667 0 -54.334 6.33301 -83.001 19z" />
    <glyph glyph-name="egrave" unicode="&#xe8;" horiz-adv-x="575" 
d="M108 296h364c0 64.667 -15.167 116.167 -45.5 154.5s-75.833 57.5 -136.5 57.5c-54 0 -97 -19 -129 -57s-49.667 -89.667 -53 -155zM515 39l-42.001 -14c-61.333 -20.667 -117.333 -31 -168 -31c-76 0 -136.667 23.667 -182 71s-68 116 -68 206
c0 92 22.333 161.833 67 209.5s101 71.5 169 71.5c72 0 129 -22.5 171 -67.5s63 -111.833 63 -200.5c0 -23.333 -10.333 -35 -31 -35h-386c2.66699 -67.333 22.334 -118.333 59.001 -153s83.667 -52 141 -52c42.667 0 94 9.66699 154 29l43 14zM310.999 649l-123.999 114h78
l82 -80c6 -5.33301 9 -12.333 9 -21c0 -6 -2.33301 -11.333 -7 -16s-10.334 -7 -17.001 -7c-7.33301 0 -14.333 3.33301 -21 10z" />
    <glyph glyph-name="eacute" unicode="&#xe9;" horiz-adv-x="575" 
d="M108 296h364c0 64.667 -15.167 116.167 -45.5 154.5s-75.833 57.5 -136.5 57.5c-54 0 -97 -19 -129 -57s-49.667 -89.667 -53 -155zM515 39l-42.001 -14c-61.333 -20.667 -117.333 -31 -168 -31c-76 0 -136.667 23.667 -182 71s-68 116 -68 206
c0 92 22.333 161.833 67 209.5s101 71.5 169 71.5c72 0 129 -22.5 171 -67.5s63 -111.833 63 -200.5c0 -23.333 -10.333 -35 -31 -35h-386c2.66699 -67.333 22.334 -118.333 59.001 -153s83.667 -52 141 -52c42.667 0 94 9.66699 154 29l43 14zM423.999 763l-123.999 -114
c-6.66699 -6.66699 -13.667 -10 -21 -10c-6.66699 0 -12.334 2.33301 -17.001 7s-7 10 -7 16c0 8.66699 3 15.667 9 21l82 80h78z" />
    <glyph glyph-name="ecircumflex" unicode="&#xea;" horiz-adv-x="575" 
d="M108 296h364c0 64.667 -15.167 116.167 -45.5 154.5s-75.833 57.5 -136.5 57.5c-54 0 -97 -19 -129 -57s-49.667 -89.667 -53 -155zM515 39l-42.001 -14c-61.333 -20.667 -117.333 -31 -168 -31c-76 0 -136.667 23.667 -182 71s-68 116 -68 206
c0 92 22.333 161.833 67 209.5s101 71.5 169 71.5c72 0 129 -22.5 171 -67.5s63 -111.833 63 -200.5c0 -23.333 -10.333 -35 -31 -35h-386c2.66699 -67.333 22.334 -118.333 59.001 -153s83.667 -52 141 -52c42.667 0 94 9.66699 154 29l43 14zM446.999 628h-65l-88 96
l-89 -96h-63l115 121c10.667 10.667 23 16 37 16s26.333 -5.33301 37 -16z" />
    <glyph glyph-name="edieresis" unicode="&#xeb;" horiz-adv-x="575" 
d="M108 296h364c0 64.667 -15.167 116.167 -45.5 154.5s-75.833 57.5 -136.5 57.5c-54 0 -97 -19 -129 -57s-49.667 -89.667 -53 -155zM515 39l-42.001 -14c-61.333 -20.667 -117.333 -31 -168 -31c-76 0 -136.667 23.667 -182 71s-68 116 -68 206
c0 92 22.333 161.833 67 209.5s101 71.5 169 71.5c72 0 129 -22.5 171 -67.5s63 -111.833 63 -200.5c0 -23.333 -10.333 -35 -31 -35h-386c2.66699 -67.333 22.334 -118.333 59.001 -153s83.667 -52 141 -52c42.667 0 94 9.66699 154 29l43 14zM182.999 680
c-11.333 0 -20.5 3.83301 -27.5 11.5s-10.5 18.167 -10.5 31.5s3.5 23.833 10.5 31.5s16.167 11.5 27.5 11.5c12 0 21.5 -3.83301 28.5 -11.5s10.5 -18.167 10.5 -31.5s-3.5 -23.833 -10.5 -31.5s-16.5 -11.5 -28.5 -11.5zM404.999 680c-11.333 0 -20.5 3.83301 -27.5 11.5
s-10.5 18.167 -10.5 31.5s3.5 23.833 10.5 31.5s16.167 11.5 27.5 11.5c12 0 21.5 -3.83301 28.5 -11.5s10.5 -18.167 10.5 -31.5s-3.5 -23.833 -10.5 -31.5s-16.5 -11.5 -28.5 -11.5z" />
    <glyph glyph-name="igrave" unicode="&#xec;" horiz-adv-x="227" 
d="M125 649l-123.999 114h78l82 -80c6 -5.33301 9 -12.333 9 -21c0 -6 -2.33301 -11.333 -7 -16s-10.334 -7 -17.001 -7c-7.33301 0 -14.333 3.33301 -21 10zM140.001 0h-52v544h52v-544z" />
    <glyph glyph-name="iacute" unicode="&#xed;" horiz-adv-x="227" 
d="M229 763l-123.999 -114c-6.66699 -6.66699 -13.667 -10 -21 -10c-6.66699 0 -12.334 2.33301 -17.001 7s-7 10 -7 16c0 8.66699 3 15.667 9 21l82 80h78zM140.001 0h-52v544h52v-544z" />
    <glyph glyph-name="icircumflex" unicode="&#xee;" horiz-adv-x="227" 
d="M267 628h-65l-88 96l-89 -96h-63l115 121c10.667 10.667 23 16 37 16s26.333 -5.33301 37 -16zM140 0h-52v544h52v-544z" />
    <glyph glyph-name="idieresis" unicode="&#xef;" horiz-adv-x="227" 
d="M140 0h-52v544h52v-544zM4 680c-11.333 0 -20.5 3.83301 -27.5 11.5s-10.5 18.167 -10.5 31.5s3.5 23.833 10.5 31.5s16.167 11.5 27.5 11.5c12 0 21.5 -3.83301 28.5 -11.5s10.5 -18.167 10.5 -31.5s-3.5 -23.833 -10.5 -31.5s-16.5 -11.5 -28.5 -11.5zM226 680
c-11.333 0 -20.5 3.83301 -27.5 11.5s-10.5 18.167 -10.5 31.5s3.5 23.833 10.5 31.5s16.167 11.5 27.5 11.5c12 0 21.5 -3.83301 28.5 -11.5s10.5 -18.167 10.5 -31.5s-3.5 -23.833 -10.5 -31.5s-16.5 -11.5 -28.5 -11.5z" />
    <glyph glyph-name="eth" unicode="&#xf0;" horiz-adv-x="605" 
d="M493 250l-0.000976562 182.999c-74.667 22.667 -135.667 34 -183 34c-128.667 0 -193 -69 -193 -207c0 -66.667 16.333 -119.5 49 -158.5s79.334 -58.5 140.001 -58.5c62.667 0 109.5 18.333 140.5 55s46.5 87.334 46.5 152.001zM492.999 478.999v57.001
c0 43.333 -11.333 82.333 -34 117l-144 -81v50l118 63c-33.333 22 -72.333 33 -117 33h-58v45h57c68.667 0 121.667 -16.667 159 -50l81 46v-50l-53 -30c26 -42 39 -89.667 39 -143v-288c0 -76 -20.5 -137.333 -61.5 -184s-99.5 -70 -175.5 -70
c-75.333 0 -133.666 25.167 -174.999 75.5s-62 113.833 -62 190.5c0 73.333 19.833 134.166 59.5 182.499s99.5 72.5 179.5 72.5c41.333 0 103.666 -12 186.999 -36z" />
    <glyph glyph-name="ntilde" unicode="&#xf1;" horiz-adv-x="567" 
d="M492 0l-49 0.000976562v348c0 100 -50.333 150 -151 150c-44 0 -98 -8.33301 -162 -25v-473h-50v465c0 16.667 3.5 29.167 10.5 37.5s18.833 14.833 35.5 19.5c64 17.333 121 26 171 26c66 0 115 -17.833 147 -53.5s48 -82.834 48 -141.501v-353zM451 747.001
l37.001 -20.001c-12.667 -31.333 -29.334 -54.833 -50.001 -70.5s-42 -23.5 -64 -23.5c-25.333 0 -49.666 8 -72.999 24l-45 32c-16.667 12 -33 18 -49 18c-32.667 0 -58.334 -21.667 -77.001 -65l-36 21c12.667 30.667 29.5 53.834 50.5 69.501s42.5 23.5 64.5 23.5
c26 0 49.667 -8 71 -24l46 -33c16 -11.333 32 -17 48 -17c32 0 57.667 21.667 77 65z" />
    <glyph glyph-name="ograve" unicode="&#xf2;" horiz-adv-x="599" 
d="M300 -6c-76.667 0 -136.667 24.5 -180 73.5s-65 117.167 -65 204.5c0 88 22.5 156.333 67.5 205s104.833 73 179.5 73c75.333 0 134.5 -24.167 177.5 -72.5s64.5 -116.833 64.5 -205.5c0 -88 -21.833 -156.333 -65.5 -205s-103.167 -73 -178.5 -73zM301 39
c62 0 109.499 20.333 142.499 61s49.5 98 49.5 172c0 73.333 -16.833 130.5 -50.5 171.5s-81.167 61.5 -142.5 61.5s-108.666 -20.5 -141.999 -61.5s-50 -98.167 -50 -171.5c0 -74.667 16.667 -132.167 50 -172.5s81 -60.5 143 -60.5zM330.999 649l-123.999 114h78l82 -80
c6 -5.33301 9 -12.333 9 -21c0 -6 -2.33301 -11.333 -7 -16s-10.334 -7 -17.001 -7c-7.33301 0 -14.333 3.33301 -21 10z" />
    <glyph glyph-name="oacute" unicode="&#xf3;" horiz-adv-x="599" 
d="M300 -6c-76.667 0 -136.667 24.5 -180 73.5s-65 117.167 -65 204.5c0 88 22.5 156.333 67.5 205s104.833 73 179.5 73c75.333 0 134.5 -24.167 177.5 -72.5s64.5 -116.833 64.5 -205.5c0 -88 -21.833 -156.333 -65.5 -205s-103.167 -73 -178.5 -73zM301 39
c62 0 109.499 20.333 142.499 61s49.5 98 49.5 172c0 73.333 -16.833 130.5 -50.5 171.5s-81.167 61.5 -142.5 61.5s-108.666 -20.5 -141.999 -61.5s-50 -98.167 -50 -171.5c0 -74.667 16.667 -132.167 50 -172.5s81 -60.5 143 -60.5zM407.999 763l-123.999 -114
c-6.66699 -6.66699 -13.667 -10 -21 -10c-6.66699 0 -12.334 2.33301 -17.001 7s-7 10 -7 16c0 8.66699 3 15.667 9 21l82 80h78z" />
    <glyph glyph-name="ocircumflex" unicode="&#xf4;" horiz-adv-x="599" 
d="M455 628h-65l-88 96l-89 -96h-63l115 121c10.667 10.667 23 16 37 16s26.333 -5.33301 37 -16zM300 -6c-76.667 0 -136.667 24.5 -180 73.5s-65 117.167 -65 204.5c0 88 22.5 156.333 67.5 205s104.833 73 179.5 73c75.333 0 134.5 -24.167 177.5 -72.5
s64.5 -116.833 64.5 -205.5c0 -88 -21.833 -156.333 -65.5 -205s-103.167 -73 -178.5 -73zM301 39c62 0 109.499 20.333 142.499 61s49.5 98 49.5 172c0 73.333 -16.833 130.5 -50.5 171.5s-81.167 61.5 -142.5 61.5s-108.666 -20.5 -141.999 -61.5s-50 -98.167 -50 -171.5
c0 -74.667 16.667 -132.167 50 -172.5s81 -60.5 143 -60.5z" />
    <glyph glyph-name="otilde" unicode="&#xf5;" horiz-adv-x="599" 
d="M300 -6c-76.667 0 -136.667 24.5 -180 73.5s-65 117.167 -65 204.5c0 88 22.5 156.333 67.5 205s104.833 73 179.5 73c75.333 0 134.5 -24.167 177.5 -72.5s64.5 -116.833 64.5 -205.5c0 -88 -21.833 -156.333 -65.5 -205s-103.167 -73 -178.5 -73zM301 39
c62 0 109.499 20.333 142.499 61s49.5 98 49.5 172c0 73.333 -16.833 130.5 -50.5 171.5s-81.167 61.5 -142.5 61.5s-108.666 -20.5 -141.999 -61.5s-50 -98.167 -50 -171.5c0 -74.667 16.667 -132.167 50 -172.5s81 -60.5 143 -60.5zM464.999 747l37.001 -20.001
c-12.667 -31.333 -29.334 -54.833 -50.001 -70.5s-42 -23.5 -64 -23.5c-25.333 0 -49.666 8 -72.999 24l-45 32c-16.667 12 -33 18 -49 18c-32.667 0 -58.334 -21.667 -77.001 -65l-36 21c12.667 30.667 29.5 53.834 50.5 69.501s42.5 23.5 64.5 23.5c26 0 49.667 -8 71 -24
l46 -33c16 -11.333 32 -17 48 -17c32 0 57.667 21.667 77 65z" />
    <glyph glyph-name="odieresis" unicode="&#xf6;" horiz-adv-x="599" 
d="M300 -6c-76.667 0 -136.667 24.5 -180 73.5s-65 117.167 -65 204.5c0 88 22.5 156.333 67.5 205s104.833 73 179.5 73c75.333 0 134.5 -24.167 177.5 -72.5s64.5 -116.833 64.5 -205.5c0 -88 -21.833 -156.333 -65.5 -205s-103.167 -73 -178.5 -73zM301 39
c62 0 109.499 20.333 142.499 61s49.5 98 49.5 172c0 73.333 -16.833 130.5 -50.5 171.5s-81.167 61.5 -142.5 61.5s-108.666 -20.5 -141.999 -61.5s-50 -98.167 -50 -171.5c0 -74.667 16.667 -132.167 50 -172.5s81 -60.5 143 -60.5zM191.999 680
c-11.333 0 -20.5 3.83301 -27.5 11.5s-10.5 18.167 -10.5 31.5s3.5 23.833 10.5 31.5s16.167 11.5 27.5 11.5c12 0 21.5 -3.83301 28.5 -11.5s10.5 -18.167 10.5 -31.5s-3.5 -23.833 -10.5 -31.5s-16.5 -11.5 -28.5 -11.5zM413.999 680c-11.333 0 -20.5 3.83301 -27.5 11.5
s-10.5 18.167 -10.5 31.5s3.5 23.833 10.5 31.5s16.167 11.5 27.5 11.5c12 0 21.5 -3.83301 28.5 -11.5s10.5 -18.167 10.5 -31.5s-3.5 -23.833 -10.5 -31.5s-16.5 -11.5 -28.5 -11.5z" />
    <glyph glyph-name="divide" unicode="&#xf7;" 
d="M512 269h-452v53h452v-53zM285 456c-12 0 -21.667 4.16699 -29 12.5s-11 19.166 -11 32.499s3.66699 24.166 11 32.499s17 12.5 29 12.5s21.667 -4.16699 29 -12.5s11 -19.166 11 -32.499s-3.66699 -24.166 -11 -32.499s-17 -12.5 -29 -12.5zM285 42
c-12 0 -21.667 4.16699 -29 12.5s-11 19.166 -11 32.499s3.66699 24.166 11 32.499s17 12.5 29 12.5s21.667 -4.16699 29 -12.5s11 -19.166 11 -32.499s-3.66699 -24.166 -11 -32.499s-17 -12.5 -29 -12.5z" />
    <glyph glyph-name="oslash" unicode="&#xf8;" horiz-adv-x="599" 
d="M158 -53h-47l46 87c-68 46.667 -102 126 -102 238c0 88 22.5 156.333 67.5 205s104.833 73 179.5 73c44 0 82.333 -8.33301 115 -25l34 65h46l-46 -87c62 -47.333 93 -124.333 93 -231c0 -88 -21.833 -156.333 -65.5 -205s-103.167 -73 -178.5 -73
c-39.333 0 -75 6.66699 -107 20zM180 77l213.998 406c-25.333 14.667 -56.666 22 -93.999 22c-61.333 0 -108.666 -20.5 -141.999 -61.5s-50 -98.167 -50 -171.5c0 -91.333 24 -156.333 72 -195zM427.998 460l-213 -404c26 -11.333 54.667 -17 86 -17
c62 0 109.5 20.333 142.5 61s49.5 98 49.5 172c0 84 -21.667 146.667 -65 188z" />
    <glyph glyph-name="ugrave" unicode="&#xf9;" 
d="M442 71v472.999h50v-465c0 -16.667 -3.5 -29.167 -10.5 -37.5s-18.833 -14.833 -35.5 -19.5c-64 -17.333 -121 -26 -171 -26c-66 0 -115 17.833 -147 53.5s-48 82.834 -48 141.501v353h49v-348c0 -100 50.333 -150 151 -150c44 0 98 8.33301 162 25zM303 648.999
l-123.999 114h78l82 -80c6 -5.33301 9 -12.333 9 -21c0 -6 -2.33301 -11.333 -7 -16s-10.334 -7 -17.001 -7c-7.33301 0 -14.333 3.33301 -21 10z" />
    <glyph glyph-name="uacute" unicode="&#xfa;" 
d="M402 763l-123.999 -114c-6.66699 -6.66699 -13.667 -10 -21 -10c-6.66699 0 -12.334 2.33301 -17.001 7s-7 10 -7 16c0 8.66699 3 15.667 9 21l82 80h78zM442.001 71v472.999h50v-465c0 -16.667 -3.5 -29.167 -10.5 -37.5s-18.833 -14.833 -35.5 -19.5
c-64 -17.333 -121 -26 -171 -26c-66 0 -115 17.833 -147 53.5s-48 82.834 -48 141.501v353h49v-348c0 -100 50.333 -150 151 -150c44 0 98 8.33301 162 25z" />
    <glyph glyph-name="ucircumflex" unicode="&#xfb;" 
d="M437 628h-65l-88 96l-89 -96h-63l115 121c10.667 10.667 23 16 37 16s26.333 -5.33301 37 -16zM442 71v472.999h50v-465c0 -16.667 -3.5 -29.167 -10.5 -37.5s-18.833 -14.833 -35.5 -19.5c-64 -17.333 -121 -26 -171 -26c-66 0 -115 17.833 -147 53.5
s-48 82.834 -48 141.501v353h49v-348c0 -100 50.333 -150 151 -150c44 0 98 8.33301 162 25z" />
    <glyph glyph-name="udieresis" unicode="&#xfc;" 
d="M442 71v472.999h50v-465c0 -16.667 -3.5 -29.167 -10.5 -37.5s-18.833 -14.833 -35.5 -19.5c-64 -17.333 -121 -26 -171 -26c-66 0 -115 17.833 -147 53.5s-48 82.834 -48 141.501v353h49v-348c0 -100 50.333 -150 151 -150c44 0 98 8.33301 162 25zM176 679.999
c-11.333 0 -20.5 3.83301 -27.5 11.5s-10.5 18.167 -10.5 31.5s3.5 23.833 10.5 31.5s16.167 11.5 27.5 11.5c12 0 21.5 -3.83301 28.5 -11.5s10.5 -18.167 10.5 -31.5s-3.5 -23.833 -10.5 -31.5s-16.5 -11.5 -28.5 -11.5zM398 679.999c-11.333 0 -20.5 3.83301 -27.5 11.5
s-10.5 18.167 -10.5 31.5s3.5 23.833 10.5 31.5s16.167 11.5 27.5 11.5c12 0 21.5 -3.83301 28.5 -11.5s10.5 -18.167 10.5 -31.5s-3.5 -23.833 -10.5 -31.5s-16.5 -11.5 -28.5 -11.5z" />
    <glyph glyph-name="yacute" unicode="&#xfd;" horiz-adv-x="523" 
d="M239 -56l9.99902 32l-219 568h58l189 -504l161 504h55l-204 -616c-24 -72.667 -71 -109 -141 -109c-31.333 0 -63.333 5.33301 -96 16l8 48c40.667 -10.667 70.334 -16 89.001 -16c26 0 45.5 6.16699 58.5 18.5s23.5 31.833 31.5 58.5zM395.999 763l-123.999 -114
c-6.66699 -6.66699 -13.667 -10 -21 -10c-6.66699 0 -12.334 2.33301 -17.001 7s-7 10 -7 16c0 8.66699 3 15.667 9 21l82 80h78z" />
    <glyph glyph-name="thorn" unicode="&#xfe;" horiz-adv-x="579" 
d="M128 467v-390.001c74.667 -20 130 -30.667 166 -32c64 0 111 20.333 141 61s45 96.334 45 167.001c0 150 -61.667 225 -185 225c-36 0 -91.667 -10.333 -167 -31zM128 -176.001l-48 -11v946l49 11v-259c74 24.667 132 37 174 37c76 0 133.167 -23.333 171.5 -70
s57.5 -115 57.5 -205c0 -88 -20.667 -156.167 -62 -204.5s-99.333 -72.5 -174 -72.5c-43.333 0 -99.333 11.667 -168 35v-207z" />
    <glyph glyph-name="ydieresis" unicode="&#xff;" horiz-adv-x="523" 
d="M239 -56l9.99902 32l-219 568h58l189 -504l161 504h55l-204 -616c-24 -72.667 -71 -109 -141 -109c-31.333 0 -63.333 5.33301 -96 16l8 48c40.667 -10.667 70.334 -16 89.001 -16c26 0 45.5 6.16699 58.5 18.5s23.5 31.833 31.5 58.5zM157.999 680
c-11.333 0 -20.5 3.83301 -27.5 11.5s-10.5 18.167 -10.5 31.5s3.5 23.833 10.5 31.5s16.167 11.5 27.5 11.5c12 0 21.5 -3.83301 28.5 -11.5s10.5 -18.167 10.5 -31.5s-3.5 -23.833 -10.5 -31.5s-16.5 -11.5 -28.5 -11.5zM379.999 680c-11.333 0 -20.5 3.83301 -27.5 11.5
s-10.5 18.167 -10.5 31.5s3.5 23.833 10.5 31.5s16.167 11.5 27.5 11.5c12 0 21.5 -3.83301 28.5 -11.5s10.5 -18.167 10.5 -31.5s-3.5 -23.833 -10.5 -31.5s-16.5 -11.5 -28.5 -11.5z" />
    <glyph glyph-name="dotlessi" unicode="&#x131;" horiz-adv-x="227" 
d="M140 0h-52v544h52v-544z" />
    <glyph glyph-name="Lslash" unicode="&#x141;" horiz-adv-x="559" 
d="M514 0h-371c-36.667 0 -55 17.667 -55 53v339l-70 -33v51l70 35v299h52v-275l169 84v-52l-169 -83v-368h374v-50z" />
    <glyph glyph-name="lslash" unicode="&#x142;" horiz-adv-x="228" 
d="M141 0h-52v421l-68 -43v55l68 44v281l52 12v-258l67 43v-55l-67 -45v-455z" />
    <glyph glyph-name="OE" unicode="&#x152;" horiz-adv-x="1082" 
d="M1027 0h-646c-96.667 -0 -175.167 32.833 -235.5 98.5s-90.5 156.167 -90.5 271.5c0 116 29.667 207.333 89 274s137.333 100 234 100h646v-49h-399v-290h352v-48h-352v-308h402v-49zM572 49v646h-181c-88 0 -156.833 -29.167 -206.5 -87.5s-74.5 -137.5 -74.5 -237.5
c0 -102 24 -181 72 -237s115.333 -84 202 -84h188z" />
    <glyph glyph-name="oe" unicode="&#x153;" horiz-adv-x="1015" 
d="M955 39l-41.999 -14.001c-61.333 -20.667 -117.333 -31 -168 -31c-54.667 0 -101.5 12.5 -140.5 37.5s-67.5 61.833 -85.5 110.5c-17.333 -48 -44.833 -84.667 -82.5 -110s-83.167 -38 -136.5 -38c-76.667 0 -136.667 24.5 -180 73.5s-65 117.167 -65 204.5
c0 88 22.5 156.333 67.5 205s104.833 73 179.5 73c53.333 0 98.666 -12.667 135.999 -38s64.666 -61.666 81.999 -108.999c18 49.333 45.667 86.5 83 111.5s80 37.5 128 37.5c72 0 129 -22.5 171 -67.5s63 -111.833 63 -200.5c0 -23.333 -10.333 -35 -31 -35h-386
c2.66699 -67.333 22.334 -118.333 59.001 -153s83.667 -52 141 -52c42.667 0 94 9.66699 154 29l43 14zM301.001 38.999c62 0 109.499 20.333 142.499 61s49.5 98 49.5 172c0 73.333 -16.833 130.5 -50.5 171.5s-81.167 61.5 -142.5 61.5s-108.666 -20.5 -141.999 -61.5
s-50 -98.167 -50 -171.5c0 -74.667 16.667 -132.167 50 -172.5s81 -60.5 143 -60.5zM548 295.999h364c0 64.667 -15.167 116.167 -45.5 154.5s-75.833 57.5 -136.5 57.5c-54 0 -97 -19 -129 -57s-49.667 -89.667 -53 -155z" />
    <glyph glyph-name="Scaron" unicode="&#x160;" horiz-adv-x="624" 
d="M104 36l-39 12.998l13 51l38 -13c89.333 -30.667 164 -46 224 -46c46.667 0 86 12.333 118 37s48 62 48 112c0 38 -10 68.167 -30 90.5s-52.333 38.5 -97 48.5l-143 32c-113.333 26 -170 89.333 -170 190c0 64.667 21.333 113.834 64 147.501s94.334 50.5 155.001 50.5
c62.667 0 139.334 -14 230.001 -42l39 -12l-12 -52l-39 13c-88 29.333 -160.667 44 -218 44c-47.333 0 -87 -12.5 -119 -37.5s-48 -62.167 -48 -111.5c0 -38 10 -67.833 30 -89.5s52 -37.5 96 -47.5l144 -33c114 -25.333 171 -88.666 171 -189.999
c0 -64.667 -21.333 -114 -64 -148s-94.334 -51 -155.001 -51c-70.667 0 -149.334 14.667 -236.001 44zM470 933.998l-115 -121c-10.667 -10.667 -23 -16 -37 -16s-26.333 5.33301 -37 16l-116 121h65l88 -96l89 96h63z" />
    <glyph glyph-name="scaron" unicode="&#x161;" horiz-adv-x="529" 
d="M313 237l-105.999 19.001c-44 8 -78.333 24 -103 48s-37 55.333 -37 94c0 49.333 17 87 51 113s75.667 39 125 39c59.333 0 124 -10.667 194 -32l32 -9l-11 -49l-30 8c-73.333 22 -135.333 33 -186 33c-36 0 -65.5 -8.5 -88.5 -25.5s-34.5 -42.167 -34.5 -75.5
c0 -26 7.83301 -46.833 23.5 -62.5s42.167 -26.834 79.5 -33.501l107 -19c43.333 -7.33301 77.166 -23.333 101.499 -48s36.5 -55.667 36.5 -93c0 -49.333 -17 -86.833 -51 -112.5s-76 -38.5 -126 -38.5c-48.667 0 -113 11 -193 33l-32 9l11 50l30 -9
c75.333 -22.667 137 -34 185 -34c37.333 0 67.5 8.33301 90.5 25s34.5 41.667 34.5 75c0 26 -7.66699 46.667 -23 62s-42 26.333 -80 33zM429.001 759.001l-115 -121c-10.667 -10.667 -23 -16 -37 -16s-26.333 5.33301 -37 16l-116 121h65l88 -96l89 96h63z" />
    <glyph glyph-name="Ydieresis" unicode="&#x178;" horiz-adv-x="629" 
d="M348 0h-53v322l-270 422h61l238 -373l231 373h60l-267 -420v-324zM214 834c-11.333 0 -20.5 3.83301 -27.5 11.5s-10.5 18.167 -10.5 31.5s3.5 23.833 10.5 31.5s16.167 11.5 27.5 11.5c12 0 21.5 -3.83301 28.5 -11.5s10.5 -18.167 10.5 -31.5s-3.5 -23.833 -10.5 -31.5
s-16.5 -11.5 -28.5 -11.5zM436 834c-11.333 0 -20.5 3.83301 -27.5 11.5s-10.5 18.167 -10.5 31.5s3.5 23.833 10.5 31.5s16.167 11.5 27.5 11.5c12 0 21.5 -3.83301 28.5 -11.5s10.5 -18.167 10.5 -31.5s-3.5 -23.833 -10.5 -31.5s-16.5 -11.5 -28.5 -11.5z" />
    <glyph glyph-name="Zcaron" unicode="&#x17d;" horiz-adv-x="621" 
d="M469 934l-115 -121c-10.667 -10.667 -23 -16 -37 -16s-26.333 5.33301 -37 16l-116 121h65l88 -96l89 96h63zM566 0h-473c-25.333 0 -38 14 -38 42c0 11.333 4.66699 23.333 14 36l442 619h-444v47h456c24.667 0 37 -14 37 -42c0 -13.333 -4 -25.333 -12 -36l-441 -619
h459v-47z" />
    <glyph glyph-name="zcaron" unicode="&#x17e;" horiz-adv-x="518" 
d="M432 759l-115 -121c-10.667 -10.667 -23 -16 -37 -16s-26.333 5.33301 -37 16l-116 121h65l88 -96l89 96h63zM478 0l-386 0.00195312c-24 0 -36 12.333 -36 37c0 13.333 5 25.666 15 36.999l347 425h-349v45h370c23.333 0 35 -11.667 35 -35
c0 -14.667 -4.66699 -27.334 -14 -38.001l-348 -426h366v-45z" />
    <glyph glyph-name="florin" unicode="&#x192;" 
d="M134 -181v47c62 0 93 41.667 93 125v497h-89v46h89v62c0 55.333 13 97.333 39 126s62.667 43 110 43c25.333 0 58.333 -4.33301 99 -13l-7 -50c-41.333 9.33301 -72.333 14 -93 14c-36 0 -61.5 -9.5 -76.5 -28.5s-22.5 -50.167 -22.5 -93.5v-60h174v-46h-174v-500
c0 -52.667 -12.5 -94 -37.5 -124s-59.833 -45 -104.5 -45z" />
    <glyph glyph-name="circumflex" unicode="&#x2c6;" horiz-adv-x="515" 
d="M435 628h-65l-88 96l-89 -96h-63l115 121c10.667 10.667 23 16 37 16s26.333 -5.33301 37 -16z" />
    <glyph glyph-name="caron" unicode="&#x2c7;" horiz-adv-x="515" 
d="M434 759l-115 -121c-10.667 -10.667 -23 -16 -37 -16s-26.333 5.33301 -37 16l-116 121h65l88 -96l89 96h63z" />
    <glyph glyph-name="breve" unicode="&#x2d8;" horiz-adv-x="515" 
d="M384 757h50c0 -40 -15.167 -72.5 -45.5 -97.5s-67.5 -37.5 -111.5 -37.5s-81.167 12.5 -111.5 37.5s-45.5 57.5 -45.5 97.5h50c0 -26.667 10 -47.834 30 -63.501s45.667 -23.5 77 -23.5s57 7.83301 77 23.5s30 36.834 30 63.501z" />
    <glyph glyph-name="dotaccent" unicode="&#x2d9;" horiz-adv-x="515" 
d="M265 680c-11.333 0 -20.5 3.83301 -27.5 11.5s-10.5 18.167 -10.5 31.5s3.5 23.833 10.5 31.5s16.167 11.5 27.5 11.5c12 0 21.5 -3.83301 28.5 -11.5s10.5 -18.167 10.5 -31.5s-3.5 -23.833 -10.5 -31.5s-16.5 -11.5 -28.5 -11.5z" />
    <glyph glyph-name="ring" unicode="&#x2da;" horiz-adv-x="515" 
d="M376 700c0 -28 -9.66797 -51.167 -29.001 -69.5s-42.666 -27.5 -69.999 -27.5c-28 0 -51.333 9.16699 -70 27.5s-28 41.5 -28 69.5c0 28.667 9.33301 52 28 70s42 27 70 27s51.5 -9 70.5 -27s28.5 -41.333 28.5 -70zM335.999 700c0 16.667 -5.5 30.5 -16.5 41.5
s-25.167 16.5 -42.5 16.5s-31.333 -5.5 -42 -16.5s-16 -24.833 -16 -41.5s5.33301 -30.667 16 -42s24.667 -17 42 -17s31.5 5.66699 42.5 17s16.5 25.333 16.5 42z" />
    <glyph glyph-name="ogonek" unicode="&#x2db;" horiz-adv-x="531" 
d="M399 -105l10 -40.999c-38 -14.667 -72.333 -22 -103 -22c-34 0 -61.5 7.16699 -82.5 21.5s-31.5 34.166 -31.5 59.499c0 35.333 16.667 64.333 50 87l48 5l3 -5c-33.333 -19.333 -50 -43.333 -50 -72c0 -34.667 22 -52 66 -52c24.667 0 54.667 6.33301 90 19z" />
    <glyph glyph-name="tilde" unicode="&#x2dc;" horiz-adv-x="515" 
d="M428 747l37.001 -20.001c-12.667 -31.333 -29.334 -54.833 -50.001 -70.5s-42 -23.5 -64 -23.5c-26 0 -50.333 8 -73 24l-45 32c-16.667 12 -33 18 -49 18c-33.333 0 -59 -21.667 -77 -65l-36 21c12.667 30.667 29.5 53.834 50.5 69.501s42.5 23.5 64.5 23.5
c26 0 49.667 -8 71 -24l46 -33c16 -11.333 32 -17 48 -17c32 0 57.667 21.667 77 65z" />
    <glyph glyph-name="hungarumlaut" unicode="&#x2dd;" horiz-adv-x="515" 
d="M451 763l-128 -129c-6.66699 -6.66699 -14 -10 -22 -10c-7.33301 0 -13 2.5 -17 7.5s-6 10.833 -6 17.5c0 7.33301 3.33301 15 10 23l83 91h80zM255 763l-121 -122c-6.66699 -6.66699 -14 -10 -22 -10c-7.33301 0 -13 2.5 -17 7.5s-6 10.833 -6 17.5
c0 7.33301 3.33301 15 10 23l76 84h80z" />
    <glyph glyph-name="pi" unicode="&#x3c0;" horiz-adv-x="675" 
d="M653 57l9 -49c-42 -9.33301 -76.333 -14 -103 -14c-48 0 -84.167 14.5 -108.5 43.5s-36.5 70.833 -36.5 125.5v335h-235v-498h-50v498h-89v46h611v-46h-187v-332c0 -44 7.5 -75.667 22.5 -95s40.167 -29 75.5 -29c18.667 0 49 5 91 15z" />
    <glyph glyph-name="endash" unicode="&#x2013;" 
d="M512 301h-452v54h452v-54z" />
    <glyph glyph-name="emdash" unicode="&#x2014;" horiz-adv-x="970" 
d="M917 301h-862v53h862v-53z" />
    <glyph glyph-name="quoteleft" unicode="&#x2018;" horiz-adv-x="202" 
d="M108 568h-57.998l46 171c5.33301 16 14.666 24 27.999 24c10.667 0 18.167 -3.66699 22.5 -11s5.16602 -16.333 2.49902 -27z" />
    <glyph glyph-name="quoteright" unicode="&#x2019;" horiz-adv-x="202" 
d="M59 606l40.998 157h58l-46 -171c-5.33301 -16 -14.666 -24 -27.999 -24c-10.667 0 -18.167 3.66699 -22.5 11s-5.16602 16.333 -2.49902 27z" />
    <glyph glyph-name="quotesinglbase" unicode="&#x201a;" horiz-adv-x="202" 
d="M59 -53l40.998 157h58l-46 -171c-5.33301 -16 -14.666 -24 -27.999 -24c-10.667 0 -18.167 3.66699 -22.5 11s-5.16602 16.333 -2.49902 27z" />
    <glyph glyph-name="quotedblleft" unicode="&#x201c;" horiz-adv-x="372" 
d="M284 568h-57.998l46 171c5.33301 16 14.666 24 27.999 24c10.667 0 18.167 -3.66699 22.5 -11s5.16602 -16.333 2.49902 -27zM108.002 568h-57.998l46 171c5.33301 16 14.666 24 27.999 24c10.667 0 18.167 -3.66699 22.5 -11s5.16602 -16.333 2.49902 -27z" />
    <glyph glyph-name="quotedblright" unicode="&#x201d;" horiz-adv-x="372" 
d="M59 606l40.998 157h58l-46 -171c-5.33301 -16 -14.666 -24 -27.999 -24c-10.667 0 -18.167 3.66699 -22.5 11s-5.16602 16.333 -2.49902 27zM234.998 606l40.998 157h58l-46 -171c-5.33301 -16 -14.666 -24 -27.999 -24c-10.667 0 -18.167 3.66699 -22.5 11
s-5.16602 16.333 -2.49902 27z" />
    <glyph glyph-name="quotedblbase" unicode="&#x201e;" horiz-adv-x="372" 
d="M59 -53l40.998 157h58l-46 -171c-5.33301 -16 -14.666 -24 -27.999 -24c-10.667 0 -18.167 3.66699 -22.5 11s-5.16602 16.333 -2.49902 27zM234.998 -53l40.998 157h58l-46 -171c-5.33301 -16 -14.666 -24 -27.999 -24c-10.667 0 -18.167 3.66699 -22.5 11
s-5.16602 16.333 -2.49902 27z" />
    <glyph glyph-name="dagger" unicode="&#x2020;" horiz-adv-x="534" 
d="M305 -186h-63l16 632l-208 -14v63l208 -13l-16 262h62l-14 -262l205 13v-63l-206 14z" />
    <glyph glyph-name="daggerdbl" unicode="&#x2021;" horiz-adv-x="534" 
d="M304 -186h-62l16 264l-208 -13v63l210 -14l-20 164v1l20 166l-210 -14v63l208 -13l-16 263h62l-14 -263l205 13v-63l-207 14l20 -166l-20 -165l207 14v-63l-205 13z" />
    <glyph glyph-name="bullet" unicode="&#x2022;" horiz-adv-x="420" 
d="M218 212c-34 0 -60.667 10.667 -80 32s-29 51 -29 89s9.66699 67.667 29 89s46 32 80 32s60.833 -10.667 80.5 -32s29.5 -51 29.5 -89s-9.83301 -67.667 -29.5 -89s-46.5 -32 -80.5 -32z" />
    <glyph glyph-name="ellipsis" unicode="&#x2026;" horiz-adv-x="606" 
d="M105 -9c-11.333 0 -20.5 3.83301 -27.5 11.5s-10.5 18.167 -10.5 31.5s3.5 23.833 10.5 31.5s16.167 11.5 27.5 11.5c12 0 21.5 -3.83301 28.5 -11.5s10.5 -18.167 10.5 -31.5s-3.5 -23.833 -10.5 -31.5s-16.5 -11.5 -28.5 -11.5zM307 -9
c-11.333 0 -20.5 3.83301 -27.5 11.5s-10.5 18.167 -10.5 31.5s3.5 23.833 10.5 31.5s16.167 11.5 27.5 11.5c12 0 21.5 -3.83301 28.5 -11.5s10.5 -18.167 10.5 -31.5s-3.5 -23.833 -10.5 -31.5s-16.5 -11.5 -28.5 -11.5zM509 -9c-11.333 0 -20.5 3.83301 -27.5 11.5
s-10.5 18.167 -10.5 31.5s3.5 23.833 10.5 31.5s16.167 11.5 27.5 11.5c12 0 21.5 -3.83301 28.5 -11.5s10.5 -18.167 10.5 -31.5s-3.5 -23.833 -10.5 -31.5s-16.5 -11.5 -28.5 -11.5z" />
    <glyph glyph-name="perthousand" unicode="&#x2030;" horiz-adv-x="1322" 
d="M222 372c-56.667 0 -101.166 17.333 -133.499 52s-48.5 82 -48.5 142s16.5 107.333 49.5 142s77.833 52 134.5 52c57.333 0 102.333 -17.167 135 -51.5s49 -81.833 49 -142.5c0 -60 -16.833 -107.333 -50.5 -142s-78.834 -52 -135.501 -52zM224.001 416
c90.667 0 136.001 49.999 136.001 149.999c0 48.667 -11.833 85.834 -35.5 111.501s-57.834 38.5 -102.501 38.5c-88.667 0 -133 -50 -133 -150c0 -48 11.5 -85 34.5 -111s56.5 -39 100.5 -39zM183.002 -0.000976562h-61l589 744h60zM676.002 -14.001
c-56.667 0 -101.166 17.333 -133.499 52s-48.5 82 -48.5 142s16.5 107.333 49.5 142s77.833 52 134.5 52c57.333 0 102.333 -17.167 135 -51.5s49 -81.833 49 -142.5c0 -60 -16.833 -107.333 -50.5 -142s-78.834 -52 -135.501 -52zM678.003 29.999
c90.667 0 136.001 49.999 136.001 149.999c0 48.667 -11.833 85.834 -35.5 111.501s-57.834 38.5 -102.501 38.5c-88.667 0 -133 -50 -133 -150c0 -48 11.5 -85 34.5 -111s56.5 -39 100.5 -39zM1096 -14.002c-56.667 0 -101.166 17.333 -133.499 52s-48.5 82 -48.5 142
s16.5 107.333 49.5 142s77.833 52 134.5 52c57.333 0 102.333 -17.167 135 -51.5s49 -81.833 49 -142.5c0 -60 -16.833 -107.333 -50.5 -142s-78.834 -52 -135.501 -52zM1098 29.998c90.667 0 136.001 49.999 136.001 149.999c0 48.667 -11.833 85.834 -35.5 111.501
s-57.834 38.5 -102.501 38.5c-88.667 0 -133 -50 -133 -150c0 -48 11.5 -85 34.5 -111s56.5 -39 100.5 -39z" />
    <glyph glyph-name="guilsinglleft" unicode="&#x2039;" horiz-adv-x="334" 
d="M288 93h-65l-159 150c-12 10.667 -18 23 -18 37s5.66699 26.667 17 38l157 151h62l-192 -189z" />
    <glyph glyph-name="guilsinglright" unicode="&#x203a;" horiz-adv-x="334" 
d="M270 243l-159 -150h-65l198 187l-192 189h62l157 -151c11.333 -11.333 17 -24 17 -38s-6 -26.333 -18 -37z" />
    <glyph glyph-name="fraction" unicode="&#x2044;" horiz-adv-x="874" 
d="M183 0h-61l589 744h60z" />
    <glyph glyph-name="Euro" unicode="&#x20ac;" 
d="M541 28l-33.999 -9c-68.667 -18 -119 -27 -151 -27c-74 0 -133 24.5 -177 73.5s-66 120.833 -66 215.5h-76v48h76v89h-76v47h76c0 92.667 22.167 163.667 66.5 213s103.166 74 176.499 74c36.667 0 87 -8.66699 151 -26l34 -9l-10 -51l-32 9
c-58.667 16.667 -105.667 25 -141 25c-127.333 0 -191 -78.333 -191 -235h249v-47h-250v-89h250v-48h-249c0 -80.667 16.5 -140.667 49.5 -180s80.167 -59 141.5 -59c23.333 0 70.333 9 141 27l32 9z" />
    <glyph glyph-name="trademark" unicode="&#x2122;" horiz-adv-x="843" 
d="M784 334h-42v337l-108 -319c-4.66699 -12 -14 -18 -28 -18c-13.333 0 -22.333 6.33301 -27 19l-103 318v-337h-42v381c0 10 3.16699 17.833 9.5 23.5s13.833 8.5 22.5 8.5c20.667 0 33.334 -8 38.001 -24l104 -331l106 326c5.33301 17.333 17.666 26 36.999 26
c22 0 33 -9.66699 33 -29v-381zM228 334h-47v368h-119v42h286v-42h-120v-368z" />
    <glyph glyph-name="Omega" unicode="&#x2126;" horiz-adv-x="769" 
d="M644 0l-199.998 -0.000976562v169c64 12.667 116.667 42.667 158 90s62 105 62 173c0 79.333 -25.5 144 -76.5 194s-116.5 75 -196.5 75c-81.333 0 -147.833 -24.333 -199.5 -73s-77.5 -114 -77.5 -196c0 -72.667 19.5 -131.5 58.5 -176.5s91.833 -73.167 158.5 -84.5
v-171h-200v45h156v88c-68.667 19.333 -123.334 55.333 -164.001 108s-61 116.334 -61 191.001c0 93.333 31.5 169.166 94.5 227.499s141.833 87.5 236.5 87.5c93.333 0 170.666 -29.333 231.999 -88s92 -134.334 92 -227.001c0 -71.333 -21 -134.166 -63 -188.499
s-97.333 -91.166 -166 -110.499v-88h156v-45z" />
    <glyph glyph-name="partialdiff" unicode="&#x2202;" 
d="M459 427l0.000976562 92.001c0 121.333 -56.333 182 -169 182c-38.667 0 -99.334 -11.667 -182.001 -35l-32 -9l-10 50l33 9c84.667 22.667 149 34 193 34c68.667 0 122 -20.333 160 -61s57 -97.334 57 -170.001v-280c0 -74 -20.833 -133.333 -62.5 -178
s-98.5 -67 -170.5 -67s-127.667 22.5 -167 67.5s-59 102.5 -59 172.5c0 74 19.833 131 59.5 171s98.167 60 175.5 60c41.333 0 99.333 -12.667 174 -38zM459.001 243.001v140c-78.667 21.333 -135 32 -169 32c-125.333 0 -188 -60.333 -188 -181
c0 -58 14.833 -104.333 44.5 -139s72.167 -52 127.5 -52c59.333 0 105 17.833 137 53.5s48 84.5 48 146.5z" />
    <glyph glyph-name="Delta" unicode="&#x2206;" horiz-adv-x="630" 
d="M622 0h-598.001l263 721c6.66699 18.667 19.334 28 38.001 28c19.333 0 32.333 -9.33301 39 -28zM547.999 46l-225 639l-229 -639h454z" />
    <glyph glyph-name="product" unicode="&#x220f;" horiz-adv-x="644" 
d="M499 0h-52v697h-232v-697h-51v697h-126v47h580v-47h-119v-697z" />
    <glyph glyph-name="summation" unicode="&#x2211;" horiz-adv-x="664" 
d="M622 -179l-547 -0.00195312c-11.333 0 -20.5 3.5 -27.5 10.5s-10.5 16.167 -10.5 27.5c0 14.667 4.33301 27.334 13 38.001l280 385l-280 386c-8.66699 10.667 -13 23.334 -13 38.001c0 11.333 3.5 20.5 10.5 27.5s16.167 10.5 27.5 10.5h537v-151h-47v101h-469l296 -411
l-296 -412h479v112h47v-162z" />
    <glyph glyph-name="minus" unicode="&#x2212;" 
d="M512 301h-452v54h452v-54z" />
    <glyph glyph-name="radical" unicode="&#x221a;" horiz-adv-x="622" 
d="M291 55l195 689h143v-47h-104l-196 -674c-6 -21.333 -18.667 -32 -38 -32c-20 0 -33.333 10.667 -40 32l-143 474h-98v47h141z" />
    <glyph glyph-name="infinity" unicode="&#x221e;" horiz-adv-x="777" 
d="M482 111l-76.999 39l-78 -39c-32 -16 -65.667 -24 -101 -24c-54 0 -97.167 19.667 -129.5 59s-48.5 89.666 -48.5 150.999c0 62.667 16 113.334 48 152.001s75.333 58 130 58c37.333 0 70.666 -7.66699 99.999 -23l78 -43l78 43c28.667 15.333 61.667 23 99 23
c55.333 0 98.5 -19.333 129.5 -58s46.5 -89.334 46.5 -152.001c0 -61.333 -16 -111.666 -48 -150.999s-74.667 -59 -128 -59c-34.667 0 -67.667 8 -99 24zM427.001 186l63.001 -30c30 -14.667 60.333 -22 91 -22c38 0 69 14 93 42s36 68.333 36 121
c0 52 -11.833 92.167 -35.5 120.5s-54.834 42.5 -93.501 42.5c-34 0 -64.333 -7.33301 -91 -22l-63 -35v-217zM382.002 186v217l-67 36c-26 14 -55.667 21 -89 21c-39.333 0 -71 -13.667 -95 -41s-36 -68 -36 -122c0 -52.667 12.333 -93.167 37 -121.5s56 -42.5 94 -42.5
c30.667 0 61 7.33301 91 22z" />
    <glyph glyph-name="integral" unicode="&#x222b;" 
d="M132 -181v47c62 0 93 41.667 93 125v605c0 55.333 13 97.333 39 126s62.667 43 110 43c25.333 0 58.333 -4.33301 99 -13l-7 -50c-41.333 9.33301 -72.333 14 -93 14c-36 0 -61.5 -9.5 -76.5 -28.5s-22.5 -50.167 -22.5 -93.5v-606c0 -52.667 -12.5 -94 -37.5 -124
s-59.833 -45 -104.5 -45z" />
    <glyph glyph-name="approxequal" unicode="&#x2248;" 
d="M489 444l36.9971 -26.999c-30 -70 -74.333 -105 -133 -105c-27.333 0 -55.666 10.333 -84.999 31l-62 44c-20 14.667 -39.333 22 -58 22c-20 0 -37.667 -5.33301 -53 -16s-29.666 -31.334 -42.999 -62.001l-37 26c15.333 36 34.833 62.5 58.5 79.5
s48.834 25.5 75.501 25.5c30 0 58.333 -10 85 -30l62 -45c20 -14.667 39.333 -22 58 -22c40 0 71.667 26.333 95 79zM497.997 271.001l37.001 -27c-29.333 -70 -73.333 -105 -132 -105c-29.333 0 -57.333 9.66699 -84 29l-64 46c-20.667 14.667 -40 22 -58 22
c-41.333 0 -73.333 -26 -96 -78l-37 26c29.333 70 74 105 134 105c27.333 0 55.333 -10 84 -30l63 -45c20 -14.667 39.667 -22 59 -22c39.333 0 70.666 26.333 93.999 79z" />
    <glyph glyph-name="notequal" unicode="&#x2260;" 
d="M512 187h-251l-67 -146h-42l67 146h-159v53h184l55 119h-239v53h263l75 161h42l-75 -161h147v-53h-171l-55 -119h226v-53z" />
    <glyph glyph-name="lessequal" unicode="&#x2264;" 
d="M523 123l-447 158.999c-18 6.66699 -27 20.334 -27 41.001c0 19.333 9 32.333 27 39l447 161v-58l-427 -144l427 -142v-56zM522 -0.000976562h-460v49h460v-49z" />
    <glyph glyph-name="greaterequal" unicode="&#x2265;" 
d="M496 282l-447 -158.999v56l427 142l-427 144v58l447 -161c18 -6.66699 27 -19.667 27 -39c0 -20.667 -9 -34.334 -27 -41.001zM510 0.000976562h-460v49h460v-49z" />
    <glyph glyph-name="lozenge" unicode="&#x25ca;" horiz-adv-x="630" 
d="M285 8l-249 363l248 361c9.33301 14.667 23 22 41 22c16.667 0 30 -7.33301 40 -22l243 -361l-243 -362c-11.333 -15.333 -25 -23 -41 -23s-29 7.33301 -39 22zM326 39l224 332l-225 337l-230 -337z" />
    <glyph glyph-name="nonmarkingreturn" horiz-adv-x="333" 
 />
    </font>
</defs>
</svg>
