<?xml version="1.0" standalone="no"?>
<!DOCTYPE svg PUBLIC "-//W3C//DTD SVG 1.1//EN" "http://www.w3.org/Graphics/SVG/1.1/DTD/svg11.dtd" >
<svg xmlns="http://www.w3.org/2000/svg">
<metadata>Generated by IcoMoon</metadata>
<defs>
<font id="icones_bradesco_seguros_v3" horiz-adv-x="1024">
<font-face units-per-em="1024" ascent="960" descent="-64" />
<missing-glyph horiz-adv-x="1024" />
<glyph unicode="&#x20;" horiz-adv-x="512" d="" />
<glyph unicode="&#xe900;" glyph-name="viagem-abrangencia" d="M944 439.2c0 238.4-194 432.2-432.2 432.2s-432.2-194-432.2-432.2c0-125 53.4-242.4 147-324.6-6-21-9.8-42.8-11-65 0-0.4 0-0.8 0-1.4 0-11.8 9.6-21.2 21.4-21.2h550c6 0 11.8 2.6 15.8 7.2 3.8 4.2 5.8 9.8 5.4 15.4-1.2 22.4-5 44-11 65 93.4 82.2 146.8 199.6 146.8 324.6zM260.2 69.6c2.2 16 6.2 31.4 11.4 46.4 1.4 3.8 2.8 7.6 4.2 11.4 0.6 1.4 1.2 3 1.8 4.4 1.4 3.4 2.8 6.6 4.4 9.8 1 2 1.8 3.8 2.8 5.6 1.4 2.8 2.8 5.8 4.4 8.6 1.8 3.4 4 6.8 6 10.2 1.6 2.6 3.2 5 4.8 7.6 2 3 4.2 6.2 6.2 9.2 1.2 1.8 2.6 3.4 4 5.2 2 2.6 4.2 5.4 6.2 8 1.4 1.8 3 3.4 4.4 5.2 2.2 2.4 4.4 5 6.6 7.4 1.6 1.6 3 3.2 4.6 4.8 0 0 0 0 0 0 14.2 14.2 30 26.6 47 37 0.8 0.6 1.8 1.2 2.6 1.6 3.4 2 6.8 4 10.2 5.8 1.6 0.8 3.4 1.8 5 2.6 3 1.6 6 3 9 4.4 2.6 1.2 5.2 2.4 7.8 3.4 2.4 1 4.6 2 7 2.8 5.2 2 10.4 3.8 15.8 5.6 5.4 1.6 10 5.6 12.6 10.6 2.6 5.2 3 11 1.2 16.6-1.6 5-5 9.2-9.6 11.8-44.4 25.4-71.8 73-71.8 124 0 78.8 64 142.8 142.8 142.8s142.8-64 142.8-142.8c0-51-27.6-98.6-71.8-124-3.2-1.8-6-4.6-7.8-7.8-3.2-5.6-3.8-12.4-1.4-18.4 1.2-3 3-5.8 5.4-7.8 2.4-2.2 5.2-3.8 8.2-4.8 5.4-1.6 10.6-3.6 15.8-5.6 2.4-1 4.8-2 7-3 2.6-1 5.2-2.2 7.8-3.4 3-1.4 6-2.8 9-4.4 1.6-0.8 3.4-1.8 5-2.6 3.4-1.8 6.8-3.8 10.2-5.8 1-0.6 1.8-1.2 2.8-1.8 16.8-10.4 32.6-22.8 46.8-37 0 0 0 0 0 0 1.6-1.6 3-3.2 4.6-4.8 2.2-2.4 4.4-4.8 6.6-7.4 1.4-1.8 3-3.4 4.4-5.2 2.2-2.6 4.2-5.2 6.2-7.8 1.4-1.8 2.6-3.4 4-5.2 2.2-3 4.2-6 6.2-9 1.8-2.6 3.4-5.4 5.2-8.2 2-3.2 4-6.4 5.8-9.8 1.6-2.8 3-5.6 4.4-8.6 1-1.8 2-3.8 2.8-5.8 1.6-3.2 3-6.6 4.4-9.8 0.6-1.6 1.2-3 1.8-4.6 1.4-3.6 2.8-7.4 4.2-11.2 5.2-15 9-30.4 11.4-46.4h-503.2zM705.8 257.6c-0.8 0.8-1.6 1.4-2.4 2.2-1.2 1-2.4 1.8-3.6 2.8-5 4-10 8-15.2 11.8-2 1.4-4 2.8-6 4.2-4.8 3.2-9.6 6.4-14.6 9.4-2 1.2-3.8 2.4-5.8 3.4-6.8 4-13.8 7.6-21.2 11 32 29.4 52.8 69.6 58.4 113 0.2 1.4 0.6 2.8 0.6 4.2 0 0 0 0 0 0 0.6 6.4 1 13 1 19.4 0 102.2-83.2 185.4-185.4 185.4s-185.4-83.2-185.4-185.4c0-6.6 0.4-13 1-19.4 0.2-2 0.6-4 1-6 0.6-4.4 1.2-8.8 2-13 0.2-0.8 0.4-1.8 0.6-2.6 8.4-36.6 27.6-70 55.4-95.6-7.2-3.4-14.2-7.2-21.2-11-2-1.2-4-2.4-5.8-3.6-5-3-9.8-6-14.6-9.4-2-1.4-4-2.8-6-4.2-5.2-3.8-10.2-7.6-15-11.6-1.2-1-2.4-2-3.6-3-0.8-0.8-1.6-1.4-2.4-2.2-45.8 49-71.6 114.2-71.6 181.4 0 146.6 119.2 265.8 265.8 265.8s265.8-119.2 265.8-265.8c0-67-26-132.2-71.8-181.2zM770.6 177.8c-0.8 1.4-1.4 2.6-2.2 4-4 6.8-8 13.4-12.6 19.8-1.2 1.8-2.6 3.4-3.8 5.2-3.4 4.6-6.8 9.2-10.4 13.6-1.8 2.2-3.4 4.2-5.2 6.2-0.2 0.2-0.4 0.6-0.6 0.8 53.8 57 84.2 133 84.2 211.6 0 170-138.4 308.4-308.4 308.4s-308.4-138.4-308.4-308.4c0-78.6 30.6-154.6 84.2-211.6-0.2-0.2-0.4-0.4-0.6-0.8-1.8-2-3.6-4.2-5.2-6.4-3.6-4.4-7-9-10.4-13.6-1.2-1.8-2.6-3.4-3.8-5.2-4.4-6.4-8.6-13-12.6-19.8-0.8-1.2-1.4-2.6-2-3.8-3.2-5.8-6.4-11.8-9.2-18-0.4-0.8-0.8-1.6-1.2-2.4-76.8 73.6-120.4 174.6-120.4 281.8 0 214.8 174.8 389.6 389.8 389.6s389.6-174.8 389.6-389.6c0-107.2-43.4-208.2-120.2-281.6-0.4 0.8-0.8 1.6-1.4 2.6-2.8 6-6 11.8-9.2 17.6z" />
<glyph unicode="&#xe901;" glyph-name="viagem-acessoria" d="M869 297.2c-18.8 0-36.6-7.4-49.4-20.2-24.4-23-68.4-56.2-102-66.4-2 27.6-14 45.2-25.2 56-43 40.6-125.8 31.8-157.4 26.6-72.8 68.8-169.4 75.8-213.8 75v33.2c0 11.8-9.6 21.4-21.4 21.4h-191.8c-11.8 0-21.4-9.6-21.4-21.4v-338.8c0-11.8 9.6-21.4 21.4-21.4h191.8c11.8 0 21.4 9.6 21.4 21.4v32.4c23.2-12.8 57-29.4 98-44 58.2-20.6 114.8-31 167.8-31 40.8 0 79.4 6.2 115.2 18.4 6.8 2.2 166.6 57 219.8 142.2 22.4 35.8 21.2 71.6-3 96-13.4 13.4-31.2 20.6-50 20.6zM278.4 84h-149.2v296.2h149.2v-296.2zM885.6 203.2c-45.2-72.4-195.8-124-197.4-124.4-155.4-53.4-325.8 40.4-367.2 65.6v181.2c38.8 0.6 129.2-5.6 191.4-70.2 5.2-5.4 12.6-7.6 19.8-6 24.6 5.2 101.4 14 130.6-13.8 7.2-6.8 11.2-16 12-27.8h-233.4c-11.8 0-21.4-9.6-21.4-21.4s9.6-21.4 21.4-21.4h249.2c0.4 0 1 0 1.4 0 1-0.2 2.2-0.2 3.2-0.2 0.6 0 1 0.2 1.6 0.2 63-1.2 142.8 72.2 152.4 81.4 10.6 10.6 28.8 10.6 39.4 0 13-12.8 3.8-32.6-3-43.2zM228 141.6c0-13.365-10.835-24.2-24.2-24.2s-24.2 10.835-24.2 24.2c0 13.365 10.835 24.2 24.2 24.2s24.2-10.835 24.2-24.2zM460.8 561.2l90-51 43.8-93.6c2.2-4.6 6.6-8 11.6-9 1-0.2 2-0.2 2.8-0.2 4.2 0 8.2 1.6 11.2 4.6l31.8 30.8c4 3.8 5.6 9.6 4.4 15l-14.4 63.8 87.4 74 88.2-175.8c2.2-4.4 6.4-7.6 11.4-8.6 4.8-1 10 0.6 13.8 4l48.4 44.8c4.2 4 6 10 4.6 15.6l-52.8 215 74.8 61.2c13.8 12.8 21.8 30.2 22.6 49s-5.8 36.8-18.6 50.6c-12.6 13.6-30.6 22.2-49.4 23.4-19.8 1.4-38-5-51.8-17.8-0.2-0.2-0.4-0.4-0.6-0.6l-66.2-69-210.4 69.4c-5.6 1.8-11.6 0.6-15.8-3.4l-48.4-44.8c-3.6-3.4-5.6-8.4-5-13.4 0.4-5 3.4-9.4 7.6-12l168.2-101.8-80.6-81.2-62.4 19.4c-5.4 1.6-11 0.4-15.2-3.2l-33.2-29.2c-3.8-3.4-5.8-8.4-5.4-13.6 0.2-5.4 3.2-10 7.6-12.4zM505.8 586.2l63.2-19.6c5.6-1.8 11.8-0.2 16 4l101.8 102.4c3.4 3.4 5.2 8.4 4.6 13.2s-3.4 9.2-7.6 11.8l-167.4 101.4 26 24 210.8-70c5.8-2 12.4-0.4 16.6 4.2l72.8 76c7.4 6.6 17 9.8 27.8 9s21-5.6 28-13.2c7-7.6 10.6-17.4 10.2-27.8-0.4-10.2-4.8-19.8-11.6-26.2l-81.8-67c-4.8-4-6.8-10.2-5.4-16.2l53-215.6-26-24-87.8 175c-2.2 4.4-6.2 7.6-11 8.6s-9.8-0.2-13.6-3.4l-110.4-93.4c-4.6-3.8-6.6-10-5.2-15.8l14.4-64.4-9.2-9-35.8 76.8c-0.6 1.4-1.6 2.8-2.8 4l-1.6 1.8c-1.2 1.2-2.4 2.2-3.8 3l-73.6 41.8 9.4 8.6z" />
<glyph unicode="&#xe902;" glyph-name="viagem-bagagem" d="M937.8 230v317.6c0 0.4 0.2 1 0.2 1.4s-0.2 1-0.2 1.4v104.6c0 17.6-14.4 32-32 32h-227.2v86.4c0 17.6-14.4 32-32 32h-270c-17.6 0-32-14.4-32-32v-86.6h-227c-17.6 0-32-14.4-32-32v-104.6c0-0.4-0.2-1-0.2-1.4s0.2-1 0.2-1.4v-317.4c0-0.4-0.2-1-0.2-1.4s0.2-1 0.2-1.4v-104.6c0-17.6 14.4-32 32-32h788.2c17.6 0 32 14.4 32 32v104.6c0 0.4 0.2 1 0.2 1.4s-0.2 1-0.2 1.4zM779.2 133.2h-535c-2.2 20.8-9.4 51.6-32.2 76.6-20.4 22.2-48.4 35-83.6 38.8v280.2c35.2 3.6 63.2 16.6 83.6 38.8 23 25 30.2 56 32.2 76.6h535.2c2.2-20.8 9.4-51.6 32.4-76.6 20.4-22.2 48.4-35 83.6-38.8v-280.2c-35.2-3.6-63.2-16.6-83.6-38.8-23.2-25-30.4-55.8-32.6-76.6zM895.2 571.8c-22.2 3-39.6 11.2-51.8 24.4-13.8 15-19 34-21 48h73v-72.4zM387.2 762.8h248.8v-75.8h-248.8v75.8zM201.2 644.2c-2-14-7.2-33-20.8-47.8-12.2-13.4-29.8-21.6-52.2-24.6v72.6h73zM128.4 205.8c22.2-3 39.6-11.2 51.8-24.4 13.8-15 19-34 21-48h-72.8v72.4zM822.2 133.2c2 14 7.2 33.2 21 48 12.2 13.2 29.6 21.4 51.8 24.4v-72.6h-72.8zM407.2 573.8c-48 0-87.2-39.2-87.2-87.2s39.2-87.2 87.2-87.2 87.2 39.2 87.2 87.2-39.2 87.2-87.2 87.2zM407.2 431.4c-30.4 0-55.2 24.8-55.2 55.2s24.8 55.2 55.2 55.2c30.4 0 55.2-24.8 55.2-55.2s-24.8-55.2-55.2-55.2zM715.8 467.8c-5 13.8-20.4 21-34.2 16l-168.6-61.4c-13.8-5-21-20.4-16-34.2l28.6-78.4c4-10.8 14.2-17.6 25-17.6 3 0 6 0.6 9 1.6l168.6 61.4c0 0 0 0 0 0 6.6 2.4 12 7.4 15 13.8s3.4 13.8 0.8 20.4l-28.2 78.4zM554 325.6l-25 68.4 158.6 57.8 25-68.4-158.6-57.8zM441 329.8l-108 39.2c-6.6 2.4-14 2.2-20.4-0.8s-11.4-8.4-13.8-15l-23.8-65.4c-2.4-6.6-2.2-14 0.8-20.4s8.4-11.4 15-13.8c0 0 0 0 0 0l108-39.2c3-1 6-1.6 9.2-1.6 3.8 0 7.6 0.8 11.2 2.6 6.4 3 11.4 8.4 13.8 15l23.8 65.4c2.4 6.6 2.2 14-0.8 20.4-3 6.2-8.4 11.2-15 13.6zM404.8 246l-98 35.6 20.2 55.4 98-35.6-20.2-55.4z" />
<glyph unicode="&#xe903;" glyph-name="viagem-hospedagem" d="M320.6 145.2c-34.2 0-62-27.8-62-62s27.8-62 62-62c34.2 0 62 27.8 62 62 0.2 34.2-27.8 62-62 62zM320.6 63.8c-10.8 0-19.4 8.8-19.4 19.4 0 10.8 8.8 19.4 19.4 19.4 10.8 0 19.4-8.8 19.4-19.4 0-10.8-8.6-19.4-19.4-19.4zM707.2 145.2c-34.2 0-62-27.8-62-62s27.8-62 62-62c34.2 0 62 27.8 62 62s-27.8 62-62 62zM707.2 63.6c-10.8 0-19.4 8.8-19.4 19.4 0 10.8 8.8 19.4 19.4 19.4 10.8 0 19.4-8.8 19.4-19.4s-8.8-19.4-19.4-19.4zM826.6 196.8h-23.2v337c0 124.4-94 227.2-214.8 241.2 1.6 6.4 2.6 13 2.6 19.6 0 43.8-35.6 79.2-79.2 79.2s-79.2-35.6-79.2-79.2c0-6.6 1-13.2 2.6-19.6-120.8-14-214.8-116.8-214.8-241.2v-337h-23.6c-11.8 0-21.4-9.6-21.4-21.4s9.6-21.4 21.4-21.4h629.6c11.8 0 21.4 9.6 21.4 21.4-0.2 11.8-9.8 21.4-21.4 21.4zM511.8 831.2c20.2 0 36.6-16.4 36.6-36.6 0-6.4-1.8-12.6-4.8-18h-63.8c-3 5.4-4.8 11.6-4.8 18 0 20.2 16.6 36.6 36.8 36.6zM262.8 533.8c0 110.4 89.8 200.2 200.2 200.2h97.4c110.4 0 200.2-89.8 200.2-200.2v-337h-34.4v257.4c0 11.8-9.6 21.4-21.4 21.4h-100.8l13.8 62.4c1.4 6.4-0.2 13-4.2 18s-10.2 8-16.6 8h-151c-10 0-18.6-7-20.8-16.8l-15.8-71.6h-90.8c-11.8 0-21.4-9.6-21.4-21.4v-257.4h-34.4v337zM560.4 475.4h-107.4l10.2 45.8h107.4l-10.2-45.8zM577.2 432.8c0 0 0 0 0 0h17.2v-236h-254.6v236h237.4zM637 432.8h46.6v-236h-46.6v236z" />
<glyph unicode="&#xe904;" glyph-name="viagem-perda" d="M208.2 330.2l17.8-39c2.4-5.4 7.2-9.6 13-11.4 2.2-0.6 4.4-1 6.4-1 3.8 0 7.4 1 10.6 2.8l671.4 388.6c6.4 3.8 10.4 10.6 10.6 18 0.4 16-3.2 39.6-13.8 58.4-14.4 25.4-38.2 43.4-67.2 50.8-28.6 7.2-58.8 3-84.8-11.6-0.4-0.2-0.8-0.4-1-0.6l-140.8-90.8-339.6 113c-5.8 2-12 1.4-17.2-1.6l-96.6-54.6c-6.6-3.8-10.8-10.6-10.8-18.2-0.2-7.6 3.8-14.6 10.4-18.6l246.2-148.4-129.2-71.4-124.2 8.6c-4.2 0.2-8.6-0.8-12.2-2.8l-61.2-35.8c-6-3.4-9.8-9.6-10.4-16.4s2-13.6 7.2-18l115.4-100zM173 460.4l124-8.6c4.2-0.2 8.2 0.6 11.8 2.6l167 92.4c6.6 3.6 10.8 10.6 11 18.2s-3.8 14.8-10.4 18.6l-246.6 148.4 56.6 32 340.2-113.4c6.2-2 12.8-1.2 18.2 2.4l148.8 96c16.4 9.2 35.2 11.6 52.8 7.2s32-15.4 40.6-30.6c3.6-6.4 6.4-15.6 7.6-25l-639.6-370.4-10 21.8c-1.2 2.8-3.2 5.2-5.4 7.2l-96.4 83.4 29.8 17.8zM106.8 164.2h809.8c11.8 0 21.4 9.6 21.4 21.4s-9.6 21.4-21.4 21.4h-809.8c-11.8 0-21.4-9.6-21.4-21.4 0.2-11.8 9.6-21.4 21.4-21.4zM916.6 124.8h-809.8c-11.8 0-21.4-9.6-21.4-21.4s9.6-21.4 21.4-21.4h809.8c11.8 0 21.4 9.6 21.4 21.4s-9.6 21.4-21.4 21.4z" />
<glyph unicode="&#xe905;" glyph-name="viagem-pousar" d="M892.2 288.2c-1.2 0-2.6 0.2-3.8 0.4l-774.2 139c-6 1-11.2 4.6-14.4 9.6-3.2 5.2-4 11.4-2.4 17.2l11.8 41.8-23.8 153c-1 6.8 1.2 13.6 6.2 18.4 4.8 4.8 11.8 7 18.6 5.8l70.8-12.4c4.2-0.8 8.2-2.8 11.2-5.8l90.6-88.2 147.4-29.4-93.6 276.8c-2.4 7.2-0.8 15.2 4.2 20.8 5 5.8 12.6 8.4 20 7l110.6-21c6-1.2 11-4.8 14.2-9.8l188.8-310 168.6-22c0.4 0 0.8-0.2 1.2-0.2 29.8-5.6 55.8-22.2 73.2-46.4 17.6-24.6 24.2-54.2 18.6-83.2-4-21.4-16.8-41.8-27.6-54-4.2-4.8-10-7.4-16.2-7.4zM145 465.4l738.4-132.6c5.2 8 9.2 17 10.6 24.6 3.4 17.6-0.8 35.6-11.4 50.6-10.8 15.2-27 25.4-45.8 29.2l-178.2 23.2c-6.4 0.8-12 4.6-15.4 10l-189.2 310.8-65.4 12.4 94-277c2.4-7.2 0.8-15.2-4.2-21s-12.8-8.4-20.2-6.8l-189.8 38c-4 0.8-7.8 2.8-10.8 5.6l-90.4 88-35 6 20-128.2c0.4-3 0.2-6.2-0.6-9l-6.6-23.8zM916.8 128h-810.2c-11.8 0-21.4 9.6-21.4 21.4s9.6 21.4 21.4 21.4h810.2c11.8 0 21.4-9.6 21.4-21.4s-9.6-21.4-21.4-21.4zM916.8 53.4h-810.2c-11.8 0-21.4 9.6-21.4 21.4s9.6 21.4 21.4 21.4h810.2c11.8 0 21.4-9.6 21.4-21.4 0-12-9.6-21.4-21.4-21.4z" />
<glyph unicode="&#xe906;" glyph-name="viagem-seguro" d="M925.2 434.2l-314 173.4 9.4 156.2c0 0.4 0 0.8 0 1.2 0 60.2-49 109-109 109s-109-49-109-109c0-1.6 0.2-3 0.4-4.4l9.2-153-314-173.4c-6.8-3.8-11-11-11-18.6v-106c0-6.8 3.2-13 8.6-17s12.2-5.2 18.8-3.4l309 89.2 8.2-192-93.2-54c-6.4-3.8-10.4-10.6-10.6-18l-1.8-71c-0.2-6.8 3-13.4 8.6-17.6 3.8-2.8 8.2-4.2 12.8-4.2 2.2 0 4.4 0.4 6.4 1l157.6 50.4 157.6-50.4c2.2-0.6 4.4-1 6.4-1 4.6 0 9 1.4 12.8 4.2 5.6 4.2 8.6 10.6 8.6 17.6l-1.8 71c-0.2 7.4-4.2 14.2-10.6 18l-93.2 54 8.2 192 309-89.2c6.4-1.8 13.4-0.6 18.8 3.4s8.6 10.4 8.6 17v106c0.2 7.8-4 15-10.8 18.6zM893.6 337.8l-308 88.8c-6.2 1.8-13 0.6-18.4-3.2s-8.6-9.8-8.8-16.4l-10-232c-0.4-8 3.8-15.4 10.6-19.4l94-54.4 0.8-29.2-135.6 43.2c0 0-0.2 0-0.2 0-1 0.2-2 0.4-3 0.6-0.4 0-0.8 0.2-1.2 0.2-0.8 0-1.6 0-2.4 0-0.6 0-1.2 0-1.8 0s-1.2-0.2-1.8-0.4c-0.8-0.2-1.6-0.2-2.4-0.6 0 0-0.2 0-0.2 0l-135.6-43.2 0.8 29.2 94 54.4c6.8 4 11 11.4 10.6 19.4l-10 232c-0.2 6.6-3.6 12.6-8.8 16.4-5.4 3.8-12 5-18.4 3.2l-308-88.8v65.2l314.8 173.8c7.2 4 11.4 11.8 11 20l-10.2 169.6c0 0.2 0 0.4-0.2 0.8 1 35.6 30.4 64.4 66.2 64.4 36.4 0 66-29.4 66.4-65.8l-10.2-169c-0.4-8.2 3.8-16 11-20l314.8-173.8v-65z" />
<glyph unicode="&#xe907;" glyph-name="vert-auto" d="M936.6 600.4c-0.2 19-16 34-35 34l-91.2-1.4c-6.6 0-12.6-2.2-17.8-5.4-19.2 86.6-80.6 170-179.6 168.6l-209.6-3c-87.4-1.2-157.8-72-174.8-173.4-5.2 3-11.2 4.6-17.4 4.6l-91.2-1.4c-19-0.2-34.2-16-34-35l0.6-38c0.2-19 16.2-34.2 35-34l61.6 0.8c-24.8-29-39.6-66.4-39-106.4l1.6-107.6c0.6-46 23.2-83.6 62.4-105.6 2.6-47.8 42.4-85.6 90.6-85.6 0.4 0 0.8 0 1.4 0l19.2 0.2c49 0.6 86 27.4 96.4 67.2l203.2 3c11.6-39.4 49.6-65.2 98.2-64.4l10 0.2c50.6 0.8 91.8 39 97.8 87.8 39.2 23 61 61.6 60.2 107.8l-1.6 107.6c-0.6 40.2-16.8 77-43 105.2l62.6 0.8c19 0.2 34.2 16 34 35l-0.6 38.4zM404.2 750.6l209.6 3c78.4 0.8 126-71.6 139.2-143.6l5.4-33.8c-11 2.8-22.2 4.8-33.8 5.6l-83.8 6.4c-96.2 7.4-182.2 5.8-278.4-5l-66.8-7.6c-10.4-1-20.6-3-30.2-5.8l4.4 33.4c8.2 70.2 54.2 146.4 134.4 147.4zM121.2 548.4c0 0 0 0 0 0-1.4 0-2.4 1-2.6 2.4l-0.6 38c0 1.4 1 2.4 2.4 2.6l91.2 1.4c0.2 0.2 1.4-0.4 1.8-0.6 0.4-0.4 0.8-0.8 0.8-1.8l0.4-26.2 5-11-0.6-4c-2-1.2-3.8-2.6-5.6-4l-24.2 4.4-68-1.2zM842.6 313.2c0.6-43-25.4-64.4-47.2-74.6l-12.4-5.8 0.2-13.8c0.4-31.6-24.8-57.6-56.4-58l-10-0.2c-25.4-0.8-56.6 11-58.6 44.6l-1.2 20.4-280.2-4-0.6-20.4c-1-33.6-31.4-46-57.2-46.4l-19.2-0.2c-0.2 0-0.4 0-0.6 0-26.2 0-47.6 21.2-48 47.4l-0.4 23-12.6 5.4c-22.2 9.6-48.8 30.2-49.4 73.2l-1.6 107.6c-0.8 61.2 49.4 115.8 112.6 121.8l67.2 7.6c55.2 6.2 107 9.2 159.2 9.2 36.2 0 72.8-1.4 111.2-4.4l84.4-6.4c66-4 118.6-56 119.4-118.4l1.4-107.6zM902.8 559.4l-69.2-1-21-7.2c-2.6 1.8-5.2 3.4-7.8 5l-0.8 5 5 11-0.4 26.4c0 1.4 1 2.4 2.4 2.6l91.2 1.4c1.4 0.2 2.4-1 2.6-2.4l0.6-38c-0.2-1.6-1.2-2.6-2.6-2.8zM330.2 449.6c-19.8-0.2-38.4-8.2-52.2-22.4s-21.2-33-21-52.8c0.2-19.8 8.2-38.4 22.4-52.2 14-13.6 32.2-21 51.8-21 0.4 0 0.8 0 1 0 41 0.6 73.8 34.4 73.2 75.2-0.2 19.8-8.2 38.4-22.4 52.2s-33 21.2-52.8 21zM331.8 333c-11.4-0.2-22 4-30 12-8 7.8-12.6 18.4-12.8 29.6s4 22 12 30c7.8 8 18.4 12.6 29.8 12.8 0.2 0 0.4 0 0.6 0 11 0 21.4-4.2 29.4-12s12.6-18.4 12.8-29.6c0.2-23.2-18.4-42.4-41.8-42.8zM696.8 454.8c-19.8-0.2-38.4-8.2-52.2-22.4s-21.2-33-21-52.8c0.6-40.6 33.8-73.2 74.2-73.2 0.4 0 0.8 0 1 0 19.8 0.2 38.4 8.2 52.2 22.4s21.2 33 21 52.8c-0.6 41-34.4 73.8-75.2 73.2zM728.2 351c-7.8-8-18.4-12.6-29.6-12.8-23-0.8-42.6 18.4-42.8 41.6-0.2 11.2 4 22 12 30 7.8 8 18.4 12.6 29.8 12.8 0.2 0 0.4 0 0.6 0 23 0 42-18.6 42.2-41.6-0.2-11.2-4.4-21.8-12.2-30z" />
<glyph unicode="&#xe908;" glyph-name="vert-capitalizacao" d="M583.2 426.8h-24c-5.2 6.8-7.8 13.6-7.8 20.6 0 7.2 2.8 13.6 5.8 18.8 1.6 1.2 3.4 2.4 5 3.8h21c49.6-3 92.6-5.4 130.2-5.4 82.8 0 139.2 11.4 179.2 51.4 49.4 49.4 49.4 126.8 0 176.2-28.6 28.6-71.2 35.6-98 37-0.2 26-6.2 67.2-38.6 99.4-24 24-55.2 37.2-88.2 37.2-32.8 0-64.2-13.2-88-37.2-58.4-58.4-55.8-151.2-46-310.2v-13c-1.6-1.6-4.2-4.4-7.2-8.6-4.6-2.4-9.4-3.8-14.2-3.8 0 0 0 0 0 0-9.2 0-17.4 4.4-22.6 8.2v17.2c9.8 159 12.2 252-46 310.2-24 24-55.2 37.2-88 37.2s-64.2-13.2-88.2-37.2c-32.2-32.2-38.4-73.4-38.6-99.4-26.8-1.4-69.4-8.6-98-37-49.4-49.4-49.4-126.8 0-176.2 40.2-40.2 96.4-51.4 179.2-51.4 37.6 0 80.6 2.4 130.2 5.4h18c3.6-5.2 8.2-13.4 8.2-22.6 0-7-2.6-13.6-7.8-20.6h-18.4c-158.4 9.6-251 12.2-309.4-46-49.4-49.4-49.4-126.8 0-176.2 28.6-28.6 71.2-35.6 98-37 0.2-26 6.2-67.2 38.6-99.4 24-24 55.2-37.2 88.2-37.2s64.2 13.2 88 37.2c58.4 58.4 55.8 151.2 46 310.2v13c5.2 3.6 13.2 8 22.4 8.2 7.4 0 14.6-3 21.8-8.8v-12.4c-9.8-159-12.2-252 46-310.2 24-24 55.2-37.2 88-37.2s64.2 13.2 88.2 37.2c32.2 32.2 38.4 73.4 38.6 99.4 26.8 1.4 69.4 8.6 98 37 49.4 49.4 49.4 126.8 0 176.2-58.6 58.2-151 55.6-309.6 46zM509 444.2c0-0.8 0-1.6 0.2-2.6 0 0-0.2 0-0.2 0 0 1 0 1.8 0 2.6zM610 798.4c16 16 36.4 24.6 58 24.6 21.4 0 42-8.8 58-24.6 34-34 25-86.4 24.8-86.8-1.2-6.6 0.6-13.4 5.2-18.2 4.4-5 11-7.6 17.6-7 0.6 0 59.6 4.6 88.8-24.6 32.4-32.4 32.4-83.4 0-116-45.4-45.4-130.6-42.6-277.2-33.6-0.4 0-0.8 0-1.2 0h-7.4v6.6c0 0.4 0 0.8 0 1.2-9.2 147.6-12 233 33.4 278.4zM509 449.2c0 0.4-0.2 1-0.2 1.4 0 0 0.2 0 0.2 0 0-0.4 0-1 0-1.4zM439.4 512.4c-0.4 0-0.8 0-1.2 0-146.6-9-231.8-11.8-277.2 33.6-32.4 32.6-32.4 83.4 0 116 22.2 22.2 61.4 24.8 79.4 24.8 5.8 0 9.4-0.2 9.6-0.2 6.8-0.6 13.2 2 17.8 7 4.4 5 6.4 11.8 5.2 18.2 0 0.6-9.4 52.4 24.8 86.8 16 16 36.6 24.6 58 24.6s42-8.8 58-24.6c45.4-45.4 42.6-131 33.6-278.2 0-0.4 0-0.8 0-1.2v-6.6l-8-0.2zM413.4 98c-16-16-36.4-24.6-58-24.6s-42 8.8-58 24.6c-34 34-25 86.4-24.8 86.8 1.2 6.6-0.6 13.4-5.2 18.2-4 4.4-9.8 7-15.8 7-0.6 0-1.2 0-1.8 0s-59.6-4.6-88.8 24.6c-32.4 32.4-32.4 83.4 0 116 45.4 45.4 130.6 42.6 277.2 33.6 0.4 0 0.8 0 1.2 0h7.4v-6.6c0-0.4 0-0.8 0-1.2 9.2-147.4 12-232.8-33.4-278.4zM862.4 234.6c-29.2-29.2-88.4-24.6-88.8-24.6-6.6 0.6-13.2-2-17.6-7s-6.4-11.6-5.2-18.2c0-0.6 9-52.8-24.8-86.8-16-16-36.6-24.6-58-24.6s-42 8.8-58 24.6c-45.4 45.4-42.6 131-33.6 278.2 0 0.4 0 0.8 0 1.2v6.6h7.4c0.4 0 0.8 0 1.2 0 146.6 9 231.8 11.8 277.2-33.6 32.8-32.4 32.8-83.2 0.2-115.8z" />
<glyph unicode="&#xe909;" glyph-name="vert-dental" d="M930 669.8c-22.2 72.4-78.8 131.2-147.6 153.8-72.4 23.6-143.6-7.8-195.6-30.8-19.4-8.6-39.4-17.4-47.8-17.4-8.6 0-28.6 8.8-47.8 17.4-47.4 21-111 48.8-176.6 35.6l-5 31.4c-1.2 7.8-8 13.4-15.8 13.4s-14.6-5.6-15.8-13.4l-7.4-46.4c-49-23.4-89.6-65.6-112.4-116.8l-57-9.4c-7.8-1.2-13.4-8-13.4-15.8s5.6-14.4 13.4-15.8l41.4-6.8c-15.6-72.4-6.2-182 102.4-322.2 36.4-47 44-109.8 50.6-165.4 8.4-69.8 17.2-142 92.8-142 72.4 0 89.4 95.2 104.4 179 9.4 52.4 22.2 124 46.2 124s36.8-71.6 46.2-124c15-84 32-179 104.6-179 75.8 0 84.4 72.2 92.8 142 6.8 55.6 14.4 118.4 50.6 165.4 119.6 154.6 118.6 272 96.8 343.2zM265.2 688.4c0.4 0.4 1 0.8 1.4 1.2 10.2 8 17.4 18.8 20.4 30.4 0.2 0.8 0.4 1.6 0.6 2.4 0.2 0.6 0.2 1 0.4 1.6 0 0.4 0.2 0.6 0.2 1l5.2 31.8 5-31c0-0.4 0.2-1 0.2-1.4 4.8-23.2 22.8-41.2 46.6-46.2l40.8-6.8-41.4-6.8c-23.2-4.8-41.2-23-46-46.8l-5.2-31.8-5.2 32.4c-4.6 23.2-22.6 41.4-46.6 46.4l-40.6 6.8 41.2 6.8c7.8 1.6 15 4.8 21.6 9.2 0.6 0.2 1 0.6 1.4 0.8zM261.4 758.8l-4.6-28c0-0.2 0-0.2 0-0.4-0.2-0.4-0.2-0.8-0.2-1.2-1.6-5.8-5-11-10-14.6 0 0-0.2-0.2-0.2-0.2s0 0 0 0c-3.2-2.4-6.8-4-9.8-4.6l-25.8-4.2c14.2 22.2 32 40 50.6 53.2zM799.4 352.6c-43.6-56.2-52.2-128.4-59.2-186.4-9.2-75.8-15.8-104.4-50.6-104.4-36.8 0-50.4 76.4-62.6 144-14 78.2-28.4 159-88.2 159s-74.2-80.8-88.2-159c-12-67.4-25.8-144-62.6-144-34.6 0-41.4 28.6-50.6 104.4-7 58-15.8 130.2-59.2 186.4-99.8 129-108 226.4-93.8 289.2l51.4-8.6c10.8-2.2 19-10.6 21-20.6l21-129.6c1.2-7.8 8-13.4 15.8-13.4s14.6 5.6 15.8 13.4l20.6 129c2.2 10.6 10.4 19 20.6 21l135.6 22.6c7.8 1.2 13.4 8 13.4 15.8s-5.6 14.4-13.4 15.8l-135 22.4c-10.4 2.2-18.6 10.2-21 20.4 0 0 0 0 0 0l-9 56.2c53.4 11.2 110.2-13.8 152.6-32.6 26.6-11.8 47.6-21 65.2-21s38.6 9.2 65.2 21c45.8 20.2 108.2 47.8 165.2 29.2 43.8-14.4 98.4-54.8 120-125.8 18.8-61.4 18.6-164.2-90-304.4z" />
<glyph unicode="&#xe90a;" glyph-name="vert-previdencia" d="M673 145.4c0 0 0 0 0 0l-117.2 114.8c-25.4 25-62.8 24.6-88.8-0.8l-116.2-113.2c-9.2-9-11.6-24.2-6-38 5.2-12.8 16.2-20.6 28.6-20.6h276.6c12.6 0 23.8 8 29.2 21 5.2 13.2 2.8 28-6.2 36.8zM648.8 119.4h-274.2c-0.6 1.2-1 3.2-1 4.4l115.6 112.6c13.6 13.2 31.2 13.6 44.2 0.8l116.4-114c0-1-0.4-2.8-1-3.8zM529.8 378c0-9.941-8.059-18-18-18s-18 8.059-18 18c0 9.941 8.059 18 18 18s18-8.059 18-18zM529.8 322.4c0-9.941-8.059-18-18-18s-18 8.059-18 18c0 9.941 8.059 18 18 18s18-8.059 18-18zM558.8 515.8c0 0 0 0 0 0 45.6 38.4 85 71.6 115.8 128 9 16.2 10 30.2 3.4 41.4-9.2 15.4-28.6 16.6-34.2 16.6h-260.4c-8.6 0-28.8 0.4-38.4-15.6-9.8-16.6 1.2-36.4 4.8-42.8 30.8-54.4 68-86.6 115.2-127.4 17.4-15 32-22.4 46.6-22.4 14.8-0.2 29.6 7.2 47.2 22.2zM377.8 659c-2.8 5-4 8.2-4.4 10.2 2 0.4 5.2 0.6 9.6 0.6h261c2.6 0 5.2-0.6 6.4-1-0.2-1.4-0.8-4.4-3.6-9.6-26.6-48.6-58.6-76.8-108.4-118.8-23.6-19.8-29.4-19.8-52.2-0.2-46.8 40.2-80.4 69.4-108.4 118.8zM822.6 65.8h-23.4c-8.6 216-146.6 339-207.4 382.8 61 44 198.8 166.8 207.4 382.8h23.4c11.8 0 21.4 9.6 21.4 21.4s-9.8 21.2-21.4 21.2h-621.6c-11.8 0-21.4-9.6-21.4-21.4s9.6-21.4 21.4-21.4h22.6c8.6-216 146.6-339 207.4-382.8-61-44-198.8-166.8-207.4-382.8h-22.6c-11.8 0-21.4-9.6-21.4-21.4s9.6-21.4 21.4-21.4h621.6c11.8 0 21.4 9.6 21.4 21.4s-9.8 21.6-21.4 21.6zM480.2 430c0 0 0 0 0 0s0.2 0.2 0 0c1.6 1 3 2 4.2 3.2 0.2 0.2 0.6 0.6 0.8 0.8 1 1.2 2 2.2 2.8 3.6 0.2 0.2 0.2 0.2 0.4 0.4 0 0.2 0 0.2 0.2 0.4 0.4 0.8 0.8 1.8 1.2 2.6 0.2 0.4 0.4 0.8 0.4 1.2 0.2 0.8 0.4 1.8 0.6 2.6 0 0.4 0.2 1 0.2 1.4 0 1 0 1.8 0 2.8 0 0.4 0 0.8 0 1.4 0 0.8-0.2 1.8-0.4 2.6-0.2 0.4-0.2 1-0.2 1.4-0.2 0.8-0.6 1.4-0.8 2.2-0.2 0.6-0.4 1.2-0.8 1.8 0 0.2-0.2 0.4-0.2 0.6-0.2 0.4-0.6 0.8-1 1.4s-0.8 1.2-1.2 1.6c-0.4 0.6-1 1.2-1.6 1.6-0.4 0.4-0.8 1-1.4 1.4-0.6 0.6-1.2 1-2 1.4-0.4 0.2-0.8 0.6-1.2 0.8-2 1.2-203 117.8-214 364.2h490.4c-11.2-246.6-212-363-214-364.2-0.4-0.2-0.8-0.6-1.2-0.8-0.6-0.4-1.2-0.8-1.8-1.2-0.6-0.6-1.2-1-1.8-1.6-0.4-0.4-0.8-0.8-1.2-1.2-0.6-0.8-1.2-1.6-1.6-2.4-0.2-0.2-0.4-0.6-0.6-0.8 0-0.2 0-0.2-0.2-0.4-0.4-0.8-0.8-1.8-1.2-2.6-0.2-0.4-0.4-0.8-0.4-1.2-0.2-0.8-0.4-1.8-0.6-2.6 0-0.4-0.2-1-0.2-1.4 0-1 0-1.8 0-2.8 0-0.4 0-0.8 0-1.4 0-0.8 0.2-1.8 0.4-2.6 0.2-0.4 0.2-1 0.2-1.4 0.2-0.8 0.6-1.4 0.8-2.2 0.2-0.6 0.4-1.2 0.8-1.8 0-0.2 0.2-0.4 0.2-0.6 0.2-0.2 0.4-0.4 0.6-0.8 0.6-1 1.4-2.2 2.4-3 0.4-0.4 0.8-0.8 1-1.2 1-1 2.2-2 3.6-2.8 0.2-0.2 0.4-0.2 0.4-0.4 0 0 0 0 0 0 2-1.2 203-117.8 214-364.2h-490.2c11.2 246.4 212 363 214.2 364.2z" />
<glyph unicode="&#xe90b;" glyph-name="vert-residencial" d="M820.6 515.4c-11.8 0-21.4-9.6-21.4-21.4v-312c0-9.6-7.8-17.2-17.2-17.2h-537.6c-9.6 0-17.2 7.8-17.2 17.2v312c0 11.8-9.6 21.4-21.4 21.4s-21.4-9.6-21.4-21.4v-312c0-33 26.8-60 60-60h537.6c33 0 60 26.8 60 60v312c0 11.8-9.6 21.4-21.4 21.4zM929 527l-149.8 98.6v126.6c0 11.8-9.6 21.4-21.4 21.4h-109.8c-11.8 0-21.4-9.6-21.4-21.4v-30.2c-13.6 8.6-31.2 19.6-51.4 33-61.6 41.2-123.4 1.8-126 0.2l-354.8-228c-10-6.4-12.8-19.6-6.4-29.4 4-6.4 11-9.8 18-9.8 4 0 8 1 11.6 3.4l354.8 228.2c0.4 0.2 40.6 25.8 79.2 0.2 50.8-33.8 84.4-53 85.8-53.8 6.6-3.8 14.8-3.8 21.2 0 6.6 3.8 10.6 10.8 10.6 18.4v46.8h67.2v-116.8c0-7.2 3.6-13.8 9.6-17.8l159.2-105c9.8-6.4 23-3.8 29.6 6s4 23-5.8 29.4z" />
<glyph unicode="&#xe90c;" glyph-name="vert-saude" d="M500 285.6c3.4-2.2 7.4-3.2 11.2-3.2 4 0 8 1 11.4 3.2 9.6 6 235.2 149.6 299.4 299.4 12.8 27 19.2 56.2 19.2 86.2 0.2 111.8-90.8 202.8-202.6 202.8-47 0-91.4-15.8-127.4-45-36 29-80.6 45-127.4 45-111.8 0-202.8-91-202.8-202.8 0-24.4 4.6-49.4 13.6-72.8 2.6-6.8 68.6-166.2 305.4-312.8zM383.8 831.4c42.2 0 82.2-16.4 112.4-46 0.6-0.6 1.4-1.4 2.2-1.8 8.4-6.4 20.4-5.6 28 1.8 30.2 29.8 70 46.2 112.4 46.2 88.2 0 160-71.8 160-160 0-23.8-5-46.6-15.2-68-0.2-0.4-0.4-0.8-0.4-1-51-119.8-226-242.4-272-273.2-214.8 136.8-276.4 283.8-276.8 285-7 18.4-10.6 38.2-10.6 57.4 0 87.8 71.6 159.6 160 159.6zM912.2 502.6c0 30.8-25.2 56-56 56s-56-25.2-56-56c0-25 16.6-46 39.2-53.2-0.4-7.6-5.4-27.6-29.4-60.6-44.6-62-158-166.8-299-166.8s-254.2 104.8-299 166.8c-24 33.4-29 53.4-29.4 60.6 22.6 7.2 39.2 28.2 39.2 53.2 0 30.8-25.2 56-56 56s-56-25.2-56-56c0-21.6 12.4-40.2 30.4-49.6-0.8-17.2 6-38.8 20.8-64.2 45.2-77.6 172.4-198.6 329-208.8-0.2-30.6-6.4-88-33.8-108-13.4-9.8-31.6-9.8-55-0.8l-83.2 36.2c1.2 5.8 1.8 11.8 1.8 18 0 53-43.2 96.2-96.2 96.2s-96.2-43.2-96.2-96.2c0-53 43.2-96.2 96.2-96.2 31.8 0 59.8 15.4 77.4 39.2l84-36.6c17-6.6 32.6-9.8 47.2-9.8 18.4 0 34.8 5.2 49 15.6 45.8 33.4 51.4 109.6 51.4 142.6 156 10.4 283 131.2 328.2 208.6 14.8 25.4 21.6 47 20.8 64.2 18.2 9.4 30.6 28 30.6 49.6zM166 515.8c7.4 0 13.4-6 13.4-13.4s-6-13.4-13.4-13.4c-7.4 0-13.4 6-13.4 13.4s6.2 13.4 13.4 13.4zM223.8 71.8c-29.6 0-53.6 24-53.6 53.6s24 53.6 53.6 53.6c29.6 0 53.6-24 53.6-53.6 0 0 0-0.2 0-0.2l-45.2 19.8c-10.8 4.8-23.4-0.2-28-11-4.8-10.8 0.2-23.4 11-28l45-19.6c-9.6-9-22.4-14.6-36.4-14.6zM856.4 515.8c7.4 0 13.4-6 13.4-13.4s-6-13.4-13.4-13.4-13.4 6-13.4 13.4 6 13.4 13.4 13.4z" />
<glyph unicode="&#xe90d;" glyph-name="vert-vida" d="M742.2 470.8c27.6 27.2 43.8 64.4 43.8 103.4 0 81.2-68 147.2-151.8 147.2-75.8 0-138.6-54.2-149.8-124.8-26 29.6-64.4 48.4-107.4 48.4-73.4 0-133.8-53.6-140.4-124.4v0c-0.2-0.8-0.2-1.8-0.2-2.6v-0.8c-0.8-12.2-6.4-41.6-42.6-52.8-10.8-3.4-17-14.6-14.4-25.4 0.6-2.8 7.6-27.6 35.2-44.2 5.8-3.4 11.8-6.2 18.4-8.4-45.4-37.6-74.6-92.2-77.8-151.6l-12.2-140c-0.8-9.2 4.4-17.8 12.8-21.4l111.6-47.6c2.8-1.2 5.6-1.8 8.4-1.8 8.2 0 16.2 4.8 19.6 13 4.6 10.8-0.4 23.4-11.2 28l-97.4 41.6 11 125.2c4 71.8 54.6 134.4 126 155.6 6.4 2 11.4 6.8 13.8 13s1.6 13.2-1.8 18.8c-4.8 7.8-14.2 11.6-23.2 9.4-46.4-11.6-69.6-3-81 6.4 32.2 19.6 46 52.2 47.6 79.2v1.4c0 0.4 0 0.8 0 1.2v0.4c4.6 48.8 46.8 85.6 98 85.6 54.2 0 98.4-42.4 98.4-94.4 0-33.6-18.8-65-49.2-81.8-4.8-2.6-8.4-7.2-10-12.4v0c-3.4-11.2 2.8-23.2 14.2-26.6 6-1.8 12.2-0.8 17.2 2.2 35.8 20.2 60.4 54.4 68 93.2 11.6-14 25.8-26.2 42.2-35.6 6-3.8 13.6-4.6 20.4-1.4 10.6 5 15.4 17.6 10.4 28.4-1.8 4.2-5 7.6-9 9.8-33.6 18.6-54.6 53.4-54.6 90.6 0 57.8 49 104.6 109 104.6 60.2 0 109.2-47 109.2-104.6 0-37.2-21-72-54.6-90.6-3-1.6-5.6-4-7.4-7-3.8-5.6-4.6-12.6-2.4-19 2.4-6.4 7.4-11.2 14-13.2 78.4-23.4 134.2-92.2 138.4-171.6l12.2-166-100.4-38.4c-11-4.2-16.6-16.6-12.4-27.6 3.2-8.4 11.4-13.8 20-13.8 2.6 0 5.2 0.4 7.6 1.4l115.2 44c8.8 3.4 14.4 12 13.6 21.4l-13.4 181.4c-4.4 83.6-55.8 158-131.6 195zM602.6 193.2c18.6 20.8 29.2 47.6 29.2 75.8 0 63.6-53.2 115.4-118.8 115.4-65.4 0-118.8-51.8-118.8-115.4 0-28.2 10.6-55 29.2-75.8-54.8-29.6-91.6-85-95-147.2 0-0.4 0-1 0-1.4 0.2-11.6 9.6-21 21.4-21h326.4c11.8 0 21.4 9.6 21.4 21.4 0 0.4 0 0.8 0 1.2-3.4 62.2-40.2 117.6-95 147zM374.4 66.2c11 47 47.6 86 96.4 100.6 5.8 1.8 10.4 5.8 13 11.2s2.8 11.6 0.6 17.2c-1.8 4.6-5.2 8.4-9.4 10.8-23.4 13-38 37.2-38 63 0 40.2 34.2 72.8 76.2 72.8s76.2-32.6 76.2-72.8c0-25.8-14.6-50-38-63-3.4-1.8-6.2-4.8-8.2-8.2-3.2-5.6-3.8-12.4-1.2-18.4 2.4-6 7.4-10.6 13.6-12.6 48.8-14.6 85.4-53.6 96.4-100.6h-277.6zM937.6 624.4c-118.8 216.2-316 248.6-422.8 248.6s-304-32.2-423-248.6c-5.6-10.4-2-23.2 8.4-29 3.2-1.8 6.8-2.6 10.2-2.6 7.6 0 14.8 4 18.8 11 108.2 197 288 226.4 385.6 226.4s277.2-29.4 385.4-226.4c3.8-7 11.2-11 18.8-11 3.4 0 7 0.8 10.2 2.6 10.4 5.8 14.2 18.6 8.4 29z" />
<glyph unicode="&#xe90e;" glyph-name="vb-beneficios" d="M950.6 462.2l-213.4 263.4c-4 5-10.2 7.8-16.6 7.8h-612.4c-11.8 0-21.2-9.6-21.2-21.2v-528.6c0-11.8 9.6-21.2 21.2-21.2h612.2c6.4 0 12.6 3 16.6 8l213.6 265c6.4 7.8 6.4 19 0 26.8zM710.4 205h-580.8v486h580.8l196.2-242.2-196.2-243.8zM798.2 448.8c0-16.569-13.431-30-30-30s-30 13.431-30 30c0 16.569 13.431 30 30 30s30-13.431 30-30zM316.2 406c3.2-3.2 7.2-4.6 11.2-4.6s8.2 1.6 11.2 4.6l141 141c6.2 6.2 6.2 16.4 0 22.6s-16.4 6.2-22.6 0l-141-141c-6-6.2-6-16.4 0.2-22.6zM348.8 489.6c26.4 0 47.8 21.4 47.8 47.8s-21.4 47.8-47.8 47.8-47.8-21.4-47.8-47.8c0.2-26.4 21.6-47.8 47.8-47.8zM348.8 553c8.8 0 15.8-7 15.8-15.8s-7-15.8-15.8-15.8-15.8 7-15.8 15.8 7.2 15.8 15.8 15.8zM447.6 486.6c-26.4 0-47.8-21.4-47.8-47.8s21.4-47.8 47.8-47.8 47.8 21.4 47.8 47.8c-0.2 26.4-21.6 47.8-47.8 47.8zM447.6 423c-8.8 0-15.8 7-15.8 15.8s7 15.8 15.8 15.8 15.8-7 15.8-15.8-7.2-15.8-15.8-15.8zM620.8 567.6c0 0-0.2 0.2-0.2 0.2-0.2 0.4-0.6 0.6-0.8 1 0 0 0 0-0.2 0.2-2.8 2.6-6.6 4.2-10.8 4.2s-8-1.6-10.8-4.2c0 0 0 0-0.2-0.2-0.4-0.2-0.6-0.6-0.8-1 0 0-0.2-0.2-0.2-0.2l-60-69.4c-5.8-6.6-5-16.8 1.6-22.6 3-2.6 6.8-3.8 10.4-3.8 4.4 0 9 1.8 12 5.6l32 37v-40.8c0-98.6-80.2-178.6-178.6-178.6-98.6 0-178.6 80.2-178.6 178.6v32c0 8.8-7.2 16-16 16s-16-7.2-16-16v-32c0-116.2 94.4-210.6 210.6-210.6s210.6 94.4 210.6 210.6v40.8l32-37c5.8-6.6 15.8-7.4 22.6-1.6 6.6 5.8 7.4 15.8 1.6 22.6l-60.2 69.2z" />
<glyph unicode="&#xe90f;" glyph-name="vb-bercario" d="M720 285.6c-66.2 0-121-48.6-131.2-111.8h-33.8v186.4h192.2c39.2 0 76.4 16.6 102.6 45.8 85 94.8 109.4 210.4 65.2 309.2-40.8 91.2-132 150.2-232.4 150.2-11.8 0-21.2-9.6-21.2-21.2v-207.2h-425.8v69.6c0 26.2-21.4 47.6-47.6 47.6h-80.2c-11.8 0-21.2-9.6-21.2-21.2s9.6-21.2 21.2-21.2h80.2c2.8 0 5-2.2 5-5v-90.4c0-0.2 0-0.4 0-0.4s0-0.4 0-0.4v-1.8c-5.8-244 236.2-253 239.2-253.2h80.2v-186.4h-44.4c-10.2 63.2-65 111.8-131.2 111.8-73.4 0-133-59.6-133-133s59.6-133 133-133c66.2 0 121 48.6 131.2 111.8h120.8c10.2-63.2 65-111.8 131.2-111.8 73.4 0 133 59.6 133 133s-59.6 132.6-133 132.6zM235.6 594.4h447c11.8 0 21.2 9.6 21.2 21.2v206.2c75-7.6 141.2-54.6 172.2-124 37.6-84.4 16.4-180.4-58-263.4-18-20-43.8-31.6-71-31.6h-213.6c0 0 0 0 0 0s0 0 0 0h-100.8c-7.8 0.2-189.8 7.8-197 191.6zM336.6 62c-49.8 0-90.4 40.6-90.4 90.4s40.6 90.4 90.4 90.4 90.4-40.6 90.4-90.4c0.2-49.8-40.4-90.4-90.4-90.4zM720 62c-49.8 0-90.4 40.6-90.4 90.4s40.6 90.4 90.4 90.4 90.4-40.6 90.4-90.4c0-49.8-40.6-90.4-90.4-90.4z" />
<glyph unicode="&#xe910;" glyph-name="vb-danca" d="M854.6 617.6c-45.4 0-82.2-36.8-82.2-82.2-4.8-83.2-14.4-144.2-14.4-144.2s-33.8-38.4-85.2-38.4c-23.6 0-51 8.2-80.4 31.8 49.2 28.4 82.4 81.4 82.4 142.4 0 90.6-73.4 164-164 164s-164-73.4-164-164c0-59.8 32-112 79.8-140.8-8 4.6-34 17.8-72.8 17.8-29.6 0-67-7.6-109.8-32.4l-131.4-76.4-25.4-168.4c-1.4-6.2-2.2-12.4-2.2-19 0-45.4 36.8-82.2 82.2-82.2s82.2 36.8 82.2 82.2c4.8 83.2 14.4 102.4 14.4 102.4s33.8 38.4 85.2 38.4c0.2 0 0.6 0 0.8 0v-222.8h322.4v142.6l237 137.8 25.4 210.4c1.4 6.2 2.2 12.4 2.2 19 0 45.2-36.8 82-82.2 82zM893.2 526.4c-0.4-1.6-0.6-3.2-0.8-4.8l-22.8-189.2-218.6-127.2c-13.2-7.6-21.2-21.6-21.2-36.8v-100h-237.2v180.2c0 23.4-18.8 42.4-42.2 42.6h-1.2c-68.6 0-112.4-47.4-117-52.8-2.4-2.8-4.6-5.8-6.2-9.2-5-10-14.2-39-18.8-118.8 0-0.8 0-1.6 0-2.4 0-21.8-17.8-39.6-39.6-39.6s-39.6 17.8-39.6 39.6c0 3 0.4 6 1.2 9.2 0.2 1.2 0.4 2.4 0.6 3.4l22.2 148.2 113.6 66.2c30.4 17.8 60.2 26.8 88.2 26.8 29.4 0 47.8-10 51.4-12 0.2 0 0.2-0.2 0.4-0.2 6.8-4.6 15-7.2 23.8-7.2 23.6 0 42.6 19 42.6 42.6 0 16-8.8 29.8-21.6 37-0.6 0.4-1.2 0.8-1.8 1-37 22.2-59.2 61.2-59.2 104.2 0 67 54.4 121.4 121.4 121.4s121.4-54.4 121.4-121.4c0-43.4-23.4-83.8-61-105.4-12.2-7-20.2-19.6-21.2-33.6-1.2-14 4.8-27.6 15.8-36.4 34-27.4 70-41.2 107.2-41.2 68.6 0 112.4 47.4 117 52.8 5.4 6 9 13.6 10.2 21.6 0.4 2.6 10 64.2 14.8 148.4 0 0.8 0 1.6 0 2.4 0 21.8 17.8 39.6 39.6 39.6s39.6-17.8 39.6-39.6c0-3.2-0.2-6.2-1-9.4zM429.4 384.8c0 0 0 0 0 0v0 0zM921.8 877.2h-117.2c-8.8 0-16-7.2-16-16v-109c-9.4 5-20.2 8-32 8-35.2 0-63.8-26.2-63.8-58.6s28.6-58.6 63.8-58.6 63.8 26.2 63.8 58.6v79.8h101.2c8.8 0 16 7.2 16 16v63.8c0.2 8.8-7 16-15.8 16zM756.8 674.8c-17.6 0-32 12-32 26.6s14.4 26.6 32 26.6c17.6 0 32-12 32-26.6-0.2-14.6-14.4-26.6-32-26.6zM905.8 813.2h-85.2v32h85.2v-32zM148.4 642.4c35.2 0 63.8 26.2 63.8 58.6v79.8h127.8v-29.2c-9.4 5-20.2 8-32 8-35.2 0-63.8-26.2-63.8-58.6s28.6-58.6 63.8-58.6 63.8 26.2 63.8 58.6v159.8c0 8.8-7.2 16-16 16h-159.6c-8.8 0-16-7.2-16-16v-109c-9.4 5-20.2 8-32 8-35.2 0-63.8-26.2-63.8-58.6s28.8-58.8 64-58.8zM308 674.4c-17.6 0-32 12-32 26.6s14.4 26.6 32 26.6 32-12 32-26.6c0-14.6-14.4-26.6-32-26.6zM212.2 844.8h127.8v-32h-127.8v32zM148.4 727.6c17.6 0 32-12 32-26.6s-14.4-26.6-32-26.6-32 12-32 26.6c0 14.8 14.4 26.6 32 26.6z" />
<glyph unicode="&#xe911;" glyph-name="vb-documentarios" d="M915.4 873.8h-809c-11.8 0-21.2-9.6-21.2-21.2v-206.8c0 0 0 0 0 0s0 0 0 0v-395c0 0 0 0 0 0s0 0 0 0v-206.8c0-11.8 9.6-21.2 21.2-21.2h809c11.8 0 21.2 9.6 21.2 21.2v808.4c0 11.8-9.4 21.4-21.2 21.4zM894 469.2h-134.4v155h134.4v-155zM717 469.2h-412.4v362h412.6v-362zM262 469.2h-134.4v155h134.4v-155zM127.6 426.6h134.4v-155h-134.4v155zM304.6 426.6h412.6v-362h-412.6v362zM759.6 426.6h134.4v-155h-134.4v155zM894 666.8h-134.4v164.4h134.4v-164.4zM262 831.2v-164.4h-134.4v164.4h134.4zM127.6 229.2h134.4v-164.4h-134.4v164.4zM759.6 64.8v164.4h134.4v-164.4h-134.4z" />
<glyph unicode="&#xe912;" glyph-name="vb-exposicoes" d="M371.6 474h283c8.8 0 16 7.2 16 16v363c0 8.8-7.2 16-16 16h-283c-8.8 0-16-7.2-16-16v-363c0-8.8 7.2-16 16-16zM638.6 528.6l-36 36c0 0.4 0 0.6 0 1v212c0 0.4 0 0.6 0 1l36 36v-286zM455.4 581.4v58.4l18.8 18.8 16.6-19.8c3-3.6 7.6-5.4 12.4-5.8 4.8 0 9.4 2.2 12.4 6l27 33.6 28.2-27v-64.2h-115.4zM570.8 761.6v-71.6l-18.6 17.8c0 0-0.2 0.2-0.4 0.2-0.2 0.2-0.4 0.4-0.8 0.8-1.2 1-2.6 1.6-4 2.2-0.2 0.2-0.4 0.2-0.8 0.2-1.6 0.6-3.4 0.8-5.2 1-0.2 0-0.6 0-0.8 0-1.8 0-3.4-0.4-5.2-1.2-0.2-0.2-0.6-0.2-0.8-0.4-1.6-0.8-3.2-1.8-4.6-3.2-0.2-0.2-0.2-0.2-0.4-0.2 0 0-0.2-0.2-0.2-0.4-0.2-0.2-0.4-0.4-0.6-0.8l-25.8-32-15.2 18.2c-2.8 3.4-7 5.6-11.6 5.8s-8.8-1.4-12-4.6l-8.6-8.6v76.8h115.6zM453.6 549.4h118.8l43.6-43.4h-205.8l43.4 43.4zM572.4 793.6h-118.8l-43.4 43.4h205.8l-43.6-43.4zM423.4 778.4c0-0.4 0-0.6 0-1v-212c0-0.4 0-0.6 0-1l-35.8-35.8v285.8l35.8-36zM155.2 479.8h96c17.6 0 32 14.4 32 32v56.8c0 17.6-14.4 32-32 32h-96c-17.6 0-32-14.4-32-32v-56.8c0-17.6 14.4-32 32-32zM166 558h74.6v-35.6h-74.6v35.6zM891.2 147.8v301c0 11.8-9.6 21.4-21.4 21.4h-98.4c-11.8 0-21.4-9.6-21.4-21.4v-14.8c-78-65.2-157.8-99.2-237.2-100.6-80 1.4-160.6 36-239.2 102.4v13.8c0 11.8-9.6 21.4-21.4 21.4h-98.2c-11.8 0-21.4-9.6-21.4-21.4v-300.8c-17.8-12.8-46.2-43.8-46.2-109.8 0-11.8 9.6-21.4 21.4-21.4h190.8c11.8 0 21.4 9.6 21.4 21.4 0 66-28.6 97-46.2 109.8v178c38-58.6 109.2-122.8 239.2-122.8 127.6 0 198.6 62 237.2 119.8v-175.8c-17.6-13-46.2-44-46.2-110 0-11.8 9.6-21.4 21.4-21.4h190.8c11.8 0 21.4 9.6 21.4 21.4-0.2 66-28.6 97-46.4 109.8zM276 60.2h-145.4c6 44.8 30.4 56.2 31.2 56.6 8.2 3.2 13.6 11 13.6 20v291.4h55.6v-291.6c0-8.8 5.4-16.8 13.6-20 0.4 0.2 25.2-10.8 31.4-56.4zM513 246.6c-121 0-182 63.2-211.6 115 69.2-45.8 140-69.6 211.2-70.8 0.2 0 0.4 0 0.8 0 71.4 1.2 142.4 25 211.6 71.2-29.4-52-90-115.4-212-115.4zM748 59.4c6 44.8 30.4 56.2 31.2 56.6 8.2 3.2 13.6 11 13.6 20v291.4h55.6v-291.6c0-8.4 5.4-16.4 13.2-19.8 1.2-0.6 25.6-11.8 31.6-56.8h-145.2zM772.8 479h96c17.6 0 32 14.4 32 32v56.8c0 17.6-14.4 32-32 32h-96c-17.6 0-32-14.4-32-32v-56.8c0-17.6 14.2-32 32-32zM783.4 557.2h74.6v-35.6h-74.6v35.6z" />
<glyph unicode="&#xe913;" glyph-name="vb-facilidades" d="M892.6 251.2c-11.8 0-21.2-9.6-21.2-21.2v-58h-743.4v535h743.4v-65.4c0-11.8 9.6-21.2 21.2-21.2 11.8 0 21.2 9.6 21.2 21.2v76c0 17.6-14.4 32-32 32h-764.4c-17.6 0-32-14.4-32-32v-556.2c0-17.6 14.4-32 32-32h764.6c17.6 0 32 14.4 32 32v68.4c0 11.8-9.6 21.4-21.4 21.4zM210 427.8h195.4c8.8 0 16 7.2 16 16s-7.2 16-16 16h-195.4c-8.8 0-16-7.2-16-16 0.2-8.8 7.2-16 16-16zM505.4 352c0 8.8-7.2 16-16 16h-230.2c-8.8 0-16-7.2-16-16s7.2-16 16-16h230.2c8.8 0 16 7 16 16zM210 244h195.4c8.8 0 16 7.2 16 16s-7.2 16-16 16h-195.4c-8.8 0-16-7.2-16-16s7.2-16 16-16zM210 504.4h117.4c8.8 0 16 7.2 16 16v103.8c0 8.8-7.2 16-16 16h-117.4c-8.8 0-16-7.2-16-16v-103.8c0.2-8.8 7.2-16 16-16zM311.6 608.2v-20h-13.2c-8.8 0-16-7.2-16-16s7.2-16 16-16h13.2v-20h-85.6v20h13.6c8.8 0 16 7.2 16 16s-7.2 16-16 16h-13.6v20h85.6zM739.6 641.4c-113.8 0-206.2-92.6-206.2-206.2 0-113.8 92.6-206.2 206.2-206.2s206.4 92.4 206.4 206.2c0 113.8-92.6 206.2-206.4 206.2zM739.6 271.6c-90.2 0-163.6 73.4-163.6 163.6s73.4 163.6 163.6 163.6 163.6-73.4 163.6-163.6-73.2-163.6-163.6-163.6zM809.8 510.4l-88.2-105.4-47.2 46.2c-8.4 8.2-21.8 8.2-30.2-0.2-8.2-8.4-8.2-21.8 0.2-30.2l63.6-62.4c4-4 9.4-6.2 15-6.2 0.4 0 0.6 0 1 0 6 0.4 11.4 3 15.2 7.6l103 123.2c7.6 9 6.4 22.4-2.6 30-8.8 7.8-22.2 6.6-29.8-2.6z" />
<glyph unicode="&#xe914;" glyph-name="vb-jazz" d="M874 707c0 0-0.2 0 0 0-4.8 0.4-28.6 1.8-45.6-13.6-6.8-6.2-14.8-17.4-14.8-35.6 0-34.6-32.8-113.4-86.8-113.4h-128.4v54.6c0 11.8-9.6 21.4-21.4 21.4s-21.4-9.6-21.4-21.4v-54.6h-47.6v54.6c0 11.8-9.6 21.4-21.4 21.4s-21.4-9.6-21.4-21.4v-54.6h-47.6v54.6c0 11.8-9.6 21.4-21.4 21.4s-21.4-9.6-21.4-21.4v-54.6c-15.6 0.2-86.8-1.4-133.4-46-24.8-23.6-38.2-54.8-40-92.8h-74v55.4c0 11.8-9.6 21.4-21.4 21.4s-21.4-9.6-21.4-21.4v-154.6c0-11.8 9.6-21.4 21.4-21.4s21.4 9.6 21.4 21.4v56.6h76.4c15.4-94.4 94-128 137.8-132.2 0.6 0 1.4-0.2 2-0.2h263.2c0.8 0 2 0 3.8 0 12.6 0 47.2 2.4 72.4 26.2 17.6 16.6 26.4 39.2 26.4 67.2 0 33.2-14.4 52.2-26.6 62.4-28.4 23.8-69.6 21.6-85.2 19.6v95.6h128.4c48.8 0 79.8-69.2 79.8-98.4 0-38.6 27-65.4 65.4-65.4 36 0 65.4 29.4 65.4 65.4v238.4c0.6 35.4-27.6 64.2-62.6 65.4zM465.4 501.8v-96h-47.6v96h47.6zM555.6 273.4h-47.6v89.6h47.6v-89.6zM465.4 273.4h-47.6v89.6h47.6v-89.6zM271 467.6c34.6 33.2 92.4 34.4 104 34.2v-96.2h-130.6c1.6 26 10.4 46.4 26.6 62zM247.6 363h127.4v-89.6h-29.8c-9.4 1.2-81.2 12.4-97.6 89.6zM599.8 363.4c10.4 1.8 40.6 3.6 56.4-9.6 7.4-6.4 11.2-16 11.2-29.6 0-16-4.2-27.8-13-36.2-16.6-16-45.2-14.8-45.4-14.8-0.4 0-0.8 0-1.2 0h-9.6v89.8c0.6 0.4 1.2 0.4 1.6 0.4zM555.6 405.6h-47.6v96h47.6v-96zM894.6 403.4c0-12.6-10.2-22.8-22.8-22.8-15.2 0-22.8 7.6-22.8 22.8 0 33.6-21.2 89.2-61.2 119.6 44.4 33 68.2 96.8 68.2 134.8 0 1 0 3.2 0.8 4 2.2 2 8.6 3 13.2 2.8 0.4 0 0.6 0 0.8 0 0.4 0 0.6 0 1 0 12.6 0 22.8-10.2 22.8-22.8v-238.4z" />
<glyph unicode="&#xe915;" glyph-name="vb-livro" d="M882.4 685.8c-14.6 7.6-91 45.4-170 45.4s-155.4-37.8-170-45.4c-13-6.8-23.8-14.6-32-23.2-8.4 8.6-19 16.4-32 23.2-14.6 7.6-91 45.4-170 45.4s-155.4-37.8-170-45.4c-35.6-18.6-53.6-43.8-53.6-75v-382.6c0-35 28.4-63.4 63.4-63.4h320.2c16 0 30.8 6 42 16 11.2-9.8 25.8-16 42-16h320.2c35 0 63.4 28.4 63.4 63.4v382.6c0 31.2-18 56.6-53.6 75zM562.4 648c8 4.2 79.8 40.6 150.2 40.6s142.2-36.4 150.2-40.6c27.4-14.4 30.6-28.2 30.6-37.2v-351.6c-3.4 2.2-7 4.4-11 6.4-14.6 7.6-91.2 45.4-170 45.4s-155.4-37.8-170-45.4c-3.8-2-7.2-4-10.6-6.2v351.4c0 1.2-0.2 2.4-0.2 3.4 1.2 9 6.6 21.2 30.8 33.8zM158.4 648c8 4.2 79.8 40.6 150.2 40.6s142.2-36.4 150.2-40.6c0 0 0 0 0 0 24.2-12.6 29.6-24.8 30.4-33.8 0-1.2-0.2-2.2-0.2-3.4v-351.4c-3.4 2.2-6.8 4.2-10.6 6.2-14.6 7.6-91.2 45.4-170 45.4s-155.4-37.8-170-45.4c-3.8-2-7.4-4.2-11-6.4v351.6c0.4 9.2 3.6 23 31 37.2zM148.6 207.4c-5.6 0-10.6 2.2-14.4 5.8 2.8 0.8 5.6 2 8 4 4.4 3.6 10 7.2 16.2 10.6 8 4.2 80 40.6 150.2 40.6 70.4 0 142.2-36.4 150.2-40.6 6.4-3.4 11.8-6.8 16.2-10.6 2.4-2 5.2-3.2 8-4-3.8-3.6-8.8-5.8-14.4-5.8h-320zM552.6 207.4c-5.6 0-10.6 2.2-14.4 5.8 2.8 0.8 5.6 2 8 4 4.4 3.6 9.8 7.2 16.2 10.6 8 4.2 79.8 40.6 150.2 40.6s142.2-36.4 150.2-40.6c6.4-3.4 11.8-6.8 16.2-10.6 2.4-2 5.2-3.2 8-4-3.8-3.6-8.8-5.8-14.4-5.8h-320z" />
<glyph unicode="&#xe916;" glyph-name="vb-musical" d="M589.2 507.8c-4.4 3.2-107.2 80.6-247.8 80.6-128.4 0-242.4-78.2-247-81.6-6-4.2-9.4-11-9-18.2 0.2-4.2 4.8-105.6 36.8-208.8 44.4-142.8 120.2-218.4 219.6-218.4 106.6 0 184.6 75.8 225.8 219.4 29.8 103.8 30 205.6 30 210 0 6.8-3.2 13-8.4 17zM526.6 292c-36-124.8-98.2-188-185-188-175.4 0-208.2 309.2-213.2 374.4 29 18 118 67.6 213 67.6 104.2 0 187.4-48.8 213.6-66-1-28.6-5.6-109-28.4-188zM315.8 394.2c0 11.8-9.4 21.2-21.2 21.2h-84.8c-11.8 0-21.2-9.4-21.2-21.2s9.4-21.2 21.2-21.2h84.8c11.6 0 21.2 9.4 21.2 21.2zM390 373h84.8c11.8 0 21.2 9.4 21.2 21.2s-9.4 21.2-21.2 21.2h-84.8c-11.8 0-21.2-9.4-21.2-21.2s9.4-21.2 21.2-21.2zM337 330.6c-41 0-74.2-38-74.2-84.8s33.2-84.8 74.2-84.8 74.2 38 74.2 84.8c0 46.6-33.4 84.8-74.2 84.8zM337 203.2c-17.2 0-31.8 19.4-31.8 42.4s14.6 42.4 31.8 42.4c17.2 0 31.8-19.4 31.8-42.4s-14.6-42.4-31.8-42.4zM692 648.6v79.4h100.8c8.8 0 16 7.2 16 16v63.6c0 8.8-7.2 16-16 16h-116.6c-8.8 0-16-7.2-16-16v-108.6c-9.4 5-20.2 7.8-31.8 7.8-35 0-63.6-26.2-63.6-58.4s28.6-58.4 63.6-58.4 63.6 26.4 63.6 58.6zM692 791.6h84.8v-31.8h-84.8v31.8zM628.4 622c-17.6 0-31.8 11.8-31.8 26.6 0 14.6 14.2 26.6 31.8 26.6s31.8-11.8 31.8-26.6c0-14.6-14.2-26.6-31.8-26.6zM936.2 468.4l-0.2 95.4v63.6c0 8.8-7.2 16-16 16h-159c-8.8 0-16-7.2-16-16v-108.6c-9.4 5-20.2 7.8-31.8 7.8-35 0-63.6-26.2-63.6-58.4s28.6-58.2 63.6-58.2c35 0 63.6 26.2 63.6 58.2v79.6h127.2v-29.2c-9.4 5-20.2 8-31.8 8-35 0-63.6-26.2-63.6-58.4s28.6-58.2 63.6-58.2c33.8 0 61.6 24.4 63.4 55 0.4 1 0.6 2.2 0.6 3.4zM713.4 441.8c-17.6 0-31.8 11.8-31.8 26.4s14.2 26.6 31.8 26.6 31.8-11.8 31.8-26.6c0-14.6-14.4-26.4-31.8-26.4zM777 611.4h127.2v-31.8h-127.2v31.8zM872.4 441.8c-17.6 0-31.8 11.8-31.8 26.4s14.2 26.6 31.8 26.6 31.8-11.8 31.8-26.6c0-14.6-14.4-26.4-31.8-26.4z" />
<glyph unicode="&#xe917;" glyph-name="vb-recompensas" d="M914.8 664.6h-202.2c41 12.8 75.8 28 96.2 46 17.8 15.6 28.2 37.8 29 62.4 0.8 26.2-9.4 52-28 70.6-33.6 33.6-85.6 34.4-129.6 2 0 0 0 0 0 0-45.4-33.6-132.8-129.6-169-170-36 40.4-123.4 136.4-169 170 0 0 0 0 0 0-43.8 32.4-95.8 31.6-129.4-2-18.6-18.6-28.8-44.4-28-70.6 0.8-24.4 11-46.6 29-62.4 20.4-17.8 55.2-33 96.2-46h-202.4c-11.8 0-21.2-9.6-21.2-21.2v-165.8c0-11.8 9.6-21.2 21.2-21.2h6.8v-415.6c0-11.8 9.6-21.2 21.2-21.2h742.4c11.8 0 21.2 9.6 21.2 21.2v415.4h15.6c11.8 0 21.2 9.6 21.2 21.2v165.8c0.2 12-9.4 21.4-21.2 21.4zM893.6 498.8h-275.2v123.2h275.2v-123.2zM575.8 622v-123.2h-142.4v123.2h142.4zM705.4 811.2v0c20.2 15 51.8 24.4 74 2 10.4-10.4 16-24.6 15.4-39-0.4-12.6-5.6-23.8-14.4-31.6-27.8-24.4-104.2-48.8-213-68.4 41.4 45.2 104 111.8 138 137zM227.4 774.2c-0.4 14.4 5.2 28.8 15.4 39 9.6 9.6 20.8 13.2 32 13.2 15.2 0 30.4-6.8 42-15.4v0c34-25.2 96.6-91.8 138-137-108.8 19.6-185.2 44-213 68.4-8.8 8-14 19.2-14.4 31.8zM128.8 622h262v-123.2h-262v123.2zM157 456.2h233.8v-394.2h-233.8v394.2zM433.4 62v394.2h142.4v-394.2h-142.4zM856.8 62h-238.4v394.2h238.2v-394.2z" />
<glyph unicode="&#xe918;" glyph-name="vb-teatro" d="M401.8 379.8c-80.8 54-156 2-159.2-0.2-7.2-5-9-15-3.8-22.2 5-7.2 15-9 22.2-3.8 0.6 0.4 60.2 41.6 123-0.2 2.8-1.8 5.8-2.6 8.8-2.6 5.2 0 10.2 2.4 13.2 7.2 5 7 3 17-4.2 21.8zM296.4 478.6c7.2 5.2 8.8 15.2 3.6 22.2-5.2 7.2-15.2 8.8-22.2 3.6-19-13.8-35.6-2-37.4-0.4-6.8 5.4-16.8 4.4-22.4-2.4s-4.6-17 2.4-22.4c7.4-6 21.8-13.2 38.8-13.2 11.4 0 24.4 3.2 37.2 12.6zM396.2 503.8c-0.8-0.6-17.4-13.8-37.4 0.6-7.2 5.2-17.2 3.6-22.2-3.6-5.2-7.2-3.6-17.2 3.6-22.2 12.8-9.2 25.8-12.6 37.4-12.6 17 0 31.4 7.2 38.8 13.2 6.8 5.6 7.8 15.6 2.4 22.4-5.6 6.8-15.8 7.8-22.6 2.2zM930.4 615c-4 3-97.8 73.6-226.2 73.6-78.2 0-150.2-31.6-191-53.6-39.6 22.6-109.6 53.6-195 53.6-117.2 0-221.2-71.4-225.4-74.4-6-4.2-9.4-11.2-9.2-18.4 0.2-3.8 4.4-96.2 33.4-190 40.6-130.6 110.2-199.6 201.4-199.6 89.4 0 156.2 57.4 196 166.8 41.6-109.2 106.8-166.8 189.8-166.8 97.8 0 169.4 69.4 207 200.8 27.2 94.4 27.4 187.2 27.4 191.2 0.2 6.4-3 12.8-8.2 16.8zM318.6 248.8c-156.4 0-186.6 275.4-191.4 336.8 27.2 16.6 106.6 60.4 191.2 60.4 63.6 0 117.8-19.6 154.6-37.8-0.2-0.2-0.2-0.6-0.4-0.8-0.6-1.2-1.2-2.4-1.6-3.8-0.2-0.6-0.4-1.2-0.6-1.8-0.4-2-0.8-4-0.6-6 0-0.2 0-0.8 0-1.6 0-0.2 0-0.6 0-1 0-0.6 0-1.2 0.2-2 0-0.6 0-1.4 0.2-2.2 0-0.8 0-1.4 0.2-2.4 0-1 0.2-2.2 0.2-3.4 0-0.8 0.2-1.6 0.2-2.4 0.2-1.6 0.2-3 0.4-4.8 0-0.6 0.2-1.2 0.2-1.8 0.8-9 2-20.4 3.6-33.6 0.2-0.8 0.2-1.6 0.2-2.4 0.4-3 0.8-6 1.2-9 0.2-1 0.2-2 0.4-3 0.4-3.2 1-6.2 1.4-9.6 0.2-1 0.4-2.2 0.6-3.4 0.6-3.4 1-6.8 1.6-10.2 0.2-0.8 0.2-1.6 0.4-2.4 2-11.2 4.2-23 6.8-35.2 0.4-1.8 0.8-3.4 1.2-5.2 0.6-2.8 1.4-5.8 2-8.6 0.4-1.8 0.8-3.4 1.2-5.2-21.4-91.4-68.8-197.6-173.4-197.6zM870.4 418.6c-32.4-112.8-88.2-169.8-166.2-169.8-97.6 0-146.2 107.4-170 203 0 0 0 0 0 0-0.2 0.8-0.4 1.8-0.6 2.6-1 3.8-1.8 7.6-2.6 11.2 0 0.4-0.2 0.8-0.2 1.2-11.6 51.6-16.2 97.6-17.8 118.6 3 1.8 6.6 4 10.6 6.4 0 0 0 0 0 0 33.8 19.4 105 54 180.6 54 92.8 0 167.2-43 191.8-59-1-26.4-5.2-97.6-25.6-168.2zM624.4 397.4c-5-7.2-3.4-17.2 3.8-22.2 2-1.4 35.6-24.6 81.6-24.6 23.6 0 50.4 6.2 77.8 24.4 7.4 4.8 9.4 14.8 4.4 22.2s-14.8 9.4-22.2 4.4c-62.2-41.6-120.4-2-123-0.2-7.2 4.8-17.2 3.2-22.4-4zM663.6 496.6c2.8-2 6-3 9.4-3 5 0 9.8 2.4 13 6.6 5.2 7.2 3.6 17.2-3.6 22.2-31.6 22.8-63.6 9.6-76.2-0.6-6.8-5.6-7.8-15.4-2.4-22.2s15.4-8 22.4-2.6c1.8 1.4 18.2 13.4 37.4-0.4zM735.4 493.6c3.2 0 6.6 1 9.4 3 19 13.8 35.6 2 37.4 0.4 6.8-5.4 16.8-4.4 22.4 2.4s4.6 17-2.4 22.4c-12.6 10.2-44.6 23.4-76.2 0.6-7.2-5.2-8.8-15.2-3.6-22.2 3.2-4.2 8-6.6 13-6.6z" />
<glyph unicode="&#xe919;" glyph-name="vb-todas" d="M329.6 175c15.2 18.4 23.8 41.8 23.8 66.2 0 57.6-46.8 104.4-104.4 104.4s-104.4-46.8-104.4-104.4c0-24.4 8.6-47.8 23.8-66.2-46-26.8-77-75.6-79.8-130.4 0-0.6 0-1 0-1.6 0.2-11.6 9.6-21 21.2-21h278.2c11.8 0 21.4 9.6 21.4 21.4 0 0.4 0 0.8 0 1.2-3 54.8-33.8 103.6-79.8 130.4zM134.6 65c10 39.4 39.8 71.8 79.4 84 5.6 1.8 10.4 5.8 13 11.2s2.8 11.6 0.6 17.2c-1.8 4.4-5 8.2-9.2 10.6-19.2 11-31 31.6-31 53.6 0 34 27.6 61.8 61.8 61.8s61.8-27.8 61.8-61.8c0-22-11.8-42.6-31-53.6-3.2-1.8-6-4.6-7.8-7.8-3.2-5.6-3.8-12.4-1.4-18.4s7.4-10.8 13.6-12.6c39.6-12.2 69.6-44.6 79.4-84h-229.2zM602.4 873.4c-185.6 0-336.6-117.2-336.6-261 0-81.8 49.4-158.8 133-208 3.2-40.2 0-71.6-9.4-89.4l-18.8-34c-4.4-7.8-3.4-17.6 2.6-24.2 4.2-4.8 10-7.4 16.2-7.4 2.6 0 5 0.4 7.6 1.4 4.2 1.6 99.4 38.2 159.2 103 15.6-1.6 31.2-2.6 46.6-2.6 185.6 0 336.6 117 336.6 261-0.4 144.2-151.4 261.2-337 261.2zM602.4 394c-17.2 0-34.8 1.2-52.2 3.6-7.2 1-14.4-1.8-19.2-7.4-26.4-31.4-64.4-56.6-95.6-73.6 7.6 26.4 9.2 61 4.8 103.4-0.8 7-4.8 13-11 16.4-75.6 41.2-120.8 107-120.8 176.2 0 120.4 131.8 218.4 294 218.4s294-98 294-218.4c0-120.6-131.8-218.6-294-218.6zM720.8 597.4h-219c-8.8 0-16-7.2-16-16 0-61.4 56.2-111.4 125.4-111.4s125.4 50 125.4 111.4c0.2 8.8-7 16-15.8 16zM611.4 501.8c-45.2 0-82.8 27.4-91.6 63.6h183.2c-8.8-36.2-46.6-63.6-91.6-63.6zM517.2 694c19.2 0 32.6-10.2 32.6-19.4 0-8.8 7.2-16 16-16s16 7.2 16 16c0 28.8-28.4 51.4-64.6 51.4s-64.6-22.6-64.6-51.4c0-8.8 7.2-16 16-16s16 7.2 16 16c0 9 13.4 19.4 32.6 19.4zM705.4 725.8c-36.2 0-64.6-22.6-64.6-51.4 0-8.8 7.2-16 16-16s16 7.2 16 16c0 9.2 13.4 19.4 32.6 19.4s32.6-10.2 32.6-19.4c0-8.8 7.2-16 16-16s16 7.2 16 16c0 28.8-28.4 51.4-64.6 51.4z" />
<glyph unicode="&#xe91a;" glyph-name="seta-baixo-a" d="M852.4 761.6l-340.4-340.4-340.4 340.4-143.4-143.4 483.8-483.8 483.8 483.8z" />
<glyph unicode="&#xe91b;" glyph-name="seta-baixo-b" d="M893.8 732.8l-381.8-381.8-381.8 381.8-93.8-94 475.6-475.6 93.8 94 381.8 381.6z" />
<glyph unicode="&#xe91c;" glyph-name="seta-baixo-c" d="M938.4 700.2l-426.4-426.4-426.4 426.4-39-39 465.4-465.4 465.4 465.4z" />
<glyph unicode="&#xe91d;" glyph-name="seta-cima-a" d="M172.8 131.8l340.4 340.4 340.4-340.4 143.4 143.6-483.8 483.8-483.8-483.8z" />
<glyph unicode="&#xe91e;" glyph-name="seta-cima-b" d="M130.2 163.2l381.8 381.8 381.8-381.8 93.8 94-475.6 475.6-93.8-94-381.8-381.6z" />
<glyph unicode="&#xe91f;" glyph-name="seta-cima-c" d="M85.6 195.8l426.4 426.4 426.4-426.4 39 39-465.4 465.4-465.4-465.4z" />
<glyph unicode="&#xe920;" glyph-name="seta-direita-a" d="M198.4 788.4l340.4-340.4-340.4-340.4 143.4-143.4 483.8 483.8-483.8 483.8z" />
<glyph unicode="&#xe921;" glyph-name="seta-direita-b" d="M227.2 829.8l381.8-381.8-381.8-381.8 94-93.8 475.6 475.6-94 93.8-381.6 381.8z" />
<glyph unicode="&#xe922;" glyph-name="seta-direita-c" d="M259.8 874.4l426.4-426.4-426.4-426.4 39-39 465.4 465.4-465.4 465.4z" />
<glyph unicode="&#xe923;" glyph-name="seta-esquerda-a" d="M825.6 107.6l-340.4 340.4 340.4 340.4-143.4 143.4-483.8-483.8 483.8-483.8z" />
<glyph unicode="&#xe924;" glyph-name="seta-esquerda-b" d="M796.8 66.2l-381.8 381.8 381.8 381.8-94 93.8-475.6-475.6 94-93.8 381.6-381.8z" />
<glyph unicode="&#xe925;" glyph-name="seta-esquerda-c" d="M764.2 21.6l-426.4 426.4 426.4 426.4-39 39-465.4-465.4 465.4-465.4z" />
<glyph unicode="&#xe926;" glyph-name="saude-agendar-consulta" d="M904.4 564.2h-103.2v24c0 11.8-9.6 21.4-21.4 21.4s-21.4-9.6-21.4-21.4v-24h-50.6c0 1.6 0.2 3.2 0.2 5 0 171.4-139.4 310.8-310.8 310.8s-311-139.4-311-310.8c0-144.8 99.4-266.8 233.6-301.2v-205c0-18.2 14.8-32.8 32.8-32.8h551.6c18.2 0 32.8 14.8 32.8 32.8v468.4c0.2 18-14.6 32.8-32.6 32.8zM758.4 521.6v-24c0-11.8 9.6-21.4 21.4-21.4s21.4 9.6 21.4 21.4v24h93.4v-61h-206.2c7.2 19.4 12.8 39.8 16 61h54zM128.8 569.2c0 148 120.4 268.2 268.2 268.2 148 0 268.2-120.4 268.2-268.2s-120.4-268.2-268.2-268.2c-147.8 0-268.2 120.2-268.2 268.2zM362.6 72.8v187.6c11.4-1.2 22.8-2 34.6-2 69.2 0 133.2 22.8 185 61.2-2.6-2.8-4.4-6.6-4.4-11 0-8.8 7.2-16 16-16h69.8c8.8 0 16 7.2 16 16s-7.2 16-16 16h-69.8c-2.8 0-5.4-0.8-7.8-2 36.8 28.2 67.2 64.6 88.4 106.2h220.2v-355.8h-532zM803 324.4h-69.8c-8.8 0-16-7.2-16-16s7.2-16 16-16h69.8c8.8 0 16 7.2 16 16 0 9-7.2 16-16 16zM523.8 220.6h-69.8c-8.8 0-16-7.2-16-16s7.2-16 16-16h69.8c8.8 0 16 7.2 16 16s-7.2 16-16 16zM663.4 220.6h-69.8c-8.8 0-16-7.2-16-16s7.2-16 16-16h69.8c8.8 0 16 7.2 16 16s-7.2 16-16 16zM803 220.6h-69.8c-8.8 0-16-7.2-16-16s7.2-16 16-16h69.8c8.8 0 16 7.2 16 16s-7.2 16-16 16zM469.4 474.2c3.2-3.2 7.2-4.6 11.4-4.6 4 0 8.2 1.6 11.4 4.6 6.2 6.2 6.2 16.4 0 22.6l-79 79v145.6c0 8.8-7.2 16-16 16s-16-7.2-16-16v-152.2c0-4.2 1.6-8.4 4.6-11.4l83.6-83.6zM611.2 553.2h22.2c8.8 0 16 7.2 16 16s-7.2 16-16 16h-22.2c-8.8 0-16-7.2-16-16s7-16 16-16zM183.2 585.2h-22.4c-8.8 0-16-7.2-16-16s7.2-16 16-16h22.2c8.8 0 16 7.2 16 16s-7 16-15.8 16zM413 333v22.2c0 8.8-7.2 16-16 16s-16-7.2-16-16v-22.2c0-8.8 7.2-16 16-16 9 0 16 7.2 16 16zM397.2 767.2c8.8 0 16 7.2 16 16v22.2c0 8.8-7.2 16-16 16s-16-7.2-16-16v-22.2c0-9 7-16 16-16z" />
<glyph unicode="&#xe927;" glyph-name="saude-ambulancia" d="M431.4 551.6h-67.2v67.2c0 8.8-7.2 16-16 16h-71.2c-8.8 0-16-7.2-16-16l-0.2-67.2h-67c-8.8 0-16-7.2-16-16v-71.2c0-8.8 7.2-16 16-16h67.2v-67.2c0-8.8 7.2-16 16-16h71.2c8.8 0 16 7.2 16 16v67.2h67.2c8.8 0 16 7.2 16 16v71.2c0 9-7 16-16 16zM415.6 480.4h-67.2c-8.8 0-16-7.2-16-16v-67.2h-39.4v67.2c0 8.8-7.2 16-16 16h-67.2v39.4h67.2c8.8 0 16 7.2 16 16l0.2 67.2h39.2v-67.2c0-8.8 7.2-16 16-16h67.2v-39.4zM925.6 433.8l-118.4 50.2-199.6 257.4c-0.2 0.4-0.6 0.6-0.8 0.8-0.6 0.6-1 1.2-1.6 1.6s-1 0.8-1.6 1.2c-0.6 0.4-1.2 0.8-1.6 1.2-0.6 0.4-1.2 0.6-1.8 1s-1.2 0.6-1.8 0.8c-0.6 0.2-1.4 0.4-2 0.6s-1.4 0.4-2 0.4c-0.8 0.2-1.4 0.2-2.2 0.2-0.4 0-0.8 0.2-1.2 0.2h-48v29.4c0 31-26.8 56.2-59.8 56.2s-59.8-25.2-59.8-56.2v-29h-317.2c-11.8 0-21.4-9.6-21.4-21.4v-513.4c0-11.8 9.6-21.4 21.4-21.4h86.2c-1.2-7-2-14.2-2-21.6 0-65 52.8-117.8 117.8-117.8s117.8 52.8 117.8 117.8c0 7.4-0.8 14.6-2 21.6h215c-1.2-7-2-14.2-2-21.6 0-65 52.8-117.8 117.8-117.8s117.8 52.8 117.8 117.8c0 7.4-0.8 14.6-2 21.6h47c11.8 0 21.4 9.6 21.4 21.4v199c-0.4 8.8-5.4 16.4-13.4 19.8zM466 778.8c0 7.4 7.8 13.6 17.2 13.6s17.2-6.2 17.2-13.6v-29h-34.4v29zM308 97.2c-41.4 0-75.2 33.8-75.2 75.2s33.8 75.2 75.2 75.2 75.2-33.8 75.2-75.2c0-41.6-33.6-75.2-75.2-75.2zM754.6 97.2c-41.4 0-75.2 33.8-75.2 75.2s33.8 75.2 75.2 75.2 75.2-33.8 75.2-75.2c0-41.6-33.8-75.2-75.2-75.2zM896 236.4h-42.8c-21 32.2-57.4 53.6-98.6 53.6s-77.6-21.4-98.6-53.6h-249.2c-21 32.2-57.4 53.6-98.6 53.6s-77.6-21.4-98.6-53.6h-82v470.8h453l196.6-253.6c2.2-2.8 5.2-5.2 8.6-6.6l110.2-47v-163.6zM633.4 578c-3 3.8-7.6 6-12.6 6h-79.8c-8.8 0-16-7.2-16-16v-123.2c0-8.8 7.2-16 16-16h131c8.8 0 16 7.2 16 16v58.6c0 3.6-1.2 7-3.4 10l-51.2 64.6zM656 460.8h-98.8v91.2h56l42.8-54.2v-37z" />
<glyph unicode="&#xe928;" glyph-name="saude-cardiograma" d="M510 69.4c-3.8 0-7.8 1-11.2 3.2-308.8 191.2-394.4 398.2-397.8 406.8-11.4 29.8-17.2 62-17.2 93 0 142.8 116.2 259 259 259 61.8 0 120.4-21.6 167-61 46.6 39.4 105.2 61 167 61 142.8 0 259-116.2 259-259 0-38.6-8.2-75.6-24.6-110.2-83-194.4-377.4-381.8-390-389.6-3.4-2.2-7.2-3.2-11.2-3.2zM342.8 789c-119.4 0-216.4-97-216.4-216.4 0-26 5-52.8 14.4-77.6 0.6-1.6 82.6-197.8 369-379 54.6 36.2 293.6 201.4 362.6 363.4 0 0.2 0.2 0.4 0.4 0.6 0 0 0 0.2 0 0.2 13.6 29 20.6 60 20.6 92.2 0 119.4-97 216.4-216.4 216.4-57.2 0-111.2-22.2-152-62.4-7.4-7.4-19.2-8.2-27.6-2-0.8 0.6-1.8 1.4-2.6 2.2-41 40.2-94.8 62.4-152 62.4zM501.8 267.4c0 0-0.2 0-0.2 0-9.6 0.2-18 6.6-20.4 16l-63.6 248.6-16.2-54.8c-2.6-9-11-15.2-20.4-15.2h-144c-11.8 0-21.4 9.6-21.4 21.4s9.6 21.4 21.4 21.4h128l33.6 113.6c2.8 9.2 11.8 15.6 20.8 15.2 9.6-0.2 17.8-6.8 20.2-16l62.8-245.8 68.4 246.2c2.6 9.4 11 15.8 20.8 15.6 9.6 0 18-6.6 20.4-16l43.8-170.6h126.4c11.8 0 21.4-9.6 21.4-21.4s-9.6-21.4-21.4-21.4h-143c-9.8 0-18.2 6.6-20.6 16l-28.2 109.4-68.4-246.6c-2.2-9.2-10.6-15.6-20.2-15.6z" />
<glyph unicode="&#xe929;" glyph-name="saude-dental-cirurgia" d="M777.6 685.2c3 8.4-1.4 17.4-9.8 20.4l-51.2 18 1.4 4c10.2 29.4-5 61.6-34 72.2l-107.2 47c-0.4 0.2-1 0.4-1.4 0.6-29.6 10.4-62.2-5.2-72.6-34.8l-19.4-55.2c-5-14.4-4.2-29.8 2.4-43.4 2.4-5 5.6-9.4 9.2-13.4-6.2-38.6-36.6-149.8-184.6-258.2-0.2-0.2-0.4-0.4-0.8-0.6-13.2-3-25.8-10.4-35-21.6l-176.4-215.8c-22.4-27.2-18.4-67.6 9-90l101-82.8c11.6-9.4 25.6-14.4 40.4-14.4 2.2 0 4.4 0.2 6.4 0.4 17 1.6 32.4 9.8 43.2 23l176.6 215.6c11 13.4 15.6 30.2 14.2 46.4 23.6 31.4 145.6 201.2 152.2 349.6 3.2-0.6 6.4-0.8 9.6-0.8 8.4 0 16.8 1.8 24.6 5.6 13.8 6.6 24 18.2 29 32.4l1.4 4 51.2-18c1.8-0.6 3.6-1 5.2-1 7 0.2 13.2 4.4 15.4 10.8zM534.6 680.6l64.2-17.2c-0.4-75.8-38.6-162.4-76-229.2l-23.6 18.4c-7 5.4-17 4.2-22.4-2.8s-4.2-17 2.8-22.4l27-21.2c-2.8-4.8-5.6-9.4-8.4-13.8l-60.2 47.2c-7 5.4-17 4.2-22.4-2.8s-4.2-17 2.8-22.4l62.6-49c-5-7.6-9.6-14.4-13.6-20l-103.4 84.4c123 100 159.8 201.2 170.6 250.8zM441.8 283.4l-176.6-215.6c-7.4-9.2-21-10.4-30-3l-101 82.8c-9 7.4-10.4 21-3 30l176.6 215.6c7.4 9 21 10.4 30 3l101-82.8c9.2-7.6 10.6-21 3-30zM657.2 695.4c-3.4-1.6-7.4-1.8-10.8-0.6-0.6 0.2-1 0.4-1.6 0.4l-18.8 5c-0.4 0.2-1 0.4-1.4 0.6l-92.6 24.8c-0.6 0.2-1.2 0.6-2 1-2.4 1.4-4.4 3.4-5.6 5.8-1.6 3.4-1.8 7.4-0.6 10.8l19.4 55.2c2.4 7.2 10.4 11 17.6 9l107-46.8c0.4-0.2 1-0.4 1.4-0.6 7.2-2.6 11.2-10.8 8.8-18.2l-13.4-38.4c-1.4-3.4-4-6.4-7.4-8zM723.6 594.8c-8.8-0.8-15.2-8.8-14.4-17.4l8.8-88.6c0.8-8.2 7.8-14.4 15.8-14.4 0.6 0 1 0 1.6 0 8.8 0.8 15.2 8.8 14.4 17.4l-8.8 88.6c-0.8 9-8.6 15.4-17.4 14.4zM803.2 625c-5.2 7.2-15.2 8.6-22.4 3.4s-8.6-15.2-3.4-22.4l52.8-71.6c3.2-4.2 8-6.4 12.8-6.4 3.4 0 6.6 1 9.4 3.2 7.2 5.2 8.6 15.2 3.4 22.4l-52.6 71.4zM912.2 647.6l-79.8 39.2c-8 3.8-17.6 0.6-21.4-7.4s-0.6-17.6 7.4-21.4l79.8-39.2c2.2-1.2 4.6-1.6 7-1.6 6 0 11.6 3.2 14.4 9 3.8 7.8 0.4 17.4-7.4 21.4zM917.6 762.8l-88.8-4.2c-8.8-0.4-15.6-8-15.2-16.8 0.4-8.6 7.4-15.2 16-15.2 0.2 0 0.6 0 0.8 0l88.8 4.2c8.8 0.4 15.6 8 15.2 16.8-0.6 8.8-8 15.8-16.8 15.2zM798.4 791c3 0 5.8 0.8 8.6 2.4l75.2 47.4c7.4 4.8 9.8 14.6 5 22s-14.6 9.8-22 5l-75.2-47.4c-7.4-4.8-9.8-14.6-5-22 3-4.8 8-7.4 13.4-7.4z" />
<glyph unicode="&#xe92a;" glyph-name="saude-dental-dentista" d="M626.6 387.4c0-13.034-10.566-23.6-23.6-23.6s-23.6 10.566-23.6 23.6c0 13.034 10.566 23.6 23.6 23.6s23.6-10.566 23.6-23.6zM440.6 387.4c0-13.034-10.566-23.6-23.6-23.6s-23.6 10.566-23.6 23.6c0 13.034 10.566 23.6 23.6 23.6s23.6-10.566 23.6-23.6zM542 648.6c0-17.673-14.327-32-32-32s-32 14.327-32 32c0 17.673 14.327 32 32 32s32-14.327 32-32zM811 655c-0.4 1.4-1 2.8-1.6 4-39.6 95.4-115.2 162.8-216.8 186.8-5.8 1.6-29.6 7.4-82.6 7.4s-76.8-5.8-82.6-7.4c-152.8-36-247.6-170.2-247.6-350.4 0-47.6 10.8-90.2 20-117.6 12.2-37 60.6-110.4 75.2-129.2 10-12.8 19-24.4 27.4-35.2 1.8-2.2 3.4-4.2 5-6.4 13.6-31 29.4-90.4 8.2-102-7.8-4.2-31.4-17.4-25.8-39.6 6.8-26.4 35-33.4 220.4-33.4s213.6 7.2 220.4 33.4c5.8 22.2-18 35.4-25.8 39.6-22.2 12.2-4.2 70.8 8 97.2 9.8 13.4 20.2 28.4 31.8 45.2l0.8 1.2c13.2 17 62.2 90.4 75 129.2 9 27.4 20 70 20 117.6-0.2 58.6-10.4 112.4-29.4 159.6zM709.4 271.6c-26-37.2-45-64.2-61.6-84 5.4 34.2 4.8 69 4 86.8 26 5.8 52.8 14.2 77.8 26-7.6-11.4-14.2-21-18.6-26.8l-1.6-2zM385.4 627.4c10.2-59.6 62-105.2 124.4-105.2s114.4 45.6 124.4 105.2h141.4c10.6-29.8 17.6-62.2 20.4-97.2-1-1.4-2-2.8-2.8-4.4-17.2-37.4-51.4-36.2-55-36-0.6 0-1.2 0-1.8 0h-453c-0.6 0-1.2 0-1.8 0-0.4 0-37-2.8-55 36-0.8 1.6-1.6 3-2.8 4.4 2.8 34.8 9.6 67.4 20.4 97.2h141.2zM415.4 648.6c0 52 42.4 94.4 94.4 94.4s94.4-42.4 94.4-94.4-42.2-94.4-94.2-94.4c-52.2 0-94.6 42.4-94.6 94.4zM239.2 395.4c-0.2 0.4-0.6 0.8-1 1.2-5.6 17.8-11.6 41.4-14.4 68 22.8-15.4 46.6-17.2 56.6-17.2 1.4 0 2.6 0 3.6 0h451.8c0.8 0 2 0 3.4 0 10 0 33.8 1.8 56.6 17.2-2.8-26.6-8.8-50.2-14.4-68-0.2-0.4-0.6-0.8-1-1.2-67.2-101.4-267.4-90.4-269.4-90.4-0.4 0-1 0-1.4 0s-0.8 0-1.2 0c-1.8-0.2-202-11-269.2 90.4zM430.2 145.4c-17.2 22.8-21.2 80.8-19.8 121.6 31.6-4.2 59.4-5.2 77.8-5.2 11 0 18.6 0.4 21.8 0.4 3.2-0.2 10.8-0.4 21.8-0.4 18.4 0 46.2 1 77.8 5.2 1.6-42-2.6-101.8-21.2-123.4-19.8-6.2-44-7.6-78.4-7.6-36.6 0-60.2 1.8-79.8 9.4zM437.6 804.4l1.6 0.4c0.2 0 19.6 5.8 70.6 5.8s70.4-5.6 70.4-5.6l2-0.6c77.4-18 137.6-66 174.4-134.4h-122.2c-10.2 59.6-62 105.2-124.4 105.2s-114.4-45.6-124.4-105.2h-122.2c36.6 68.4 96.8 116.4 174.2 134.4zM290.2 300.6c25-12 51.8-20.2 77.8-26-0.8-16.6-1.4-47.8 2.8-79.6-10.2 12.2-21.6 26.8-35.2 44.6-8.4 10.8-17.4 22.6-27.4 35.2-4.2 5.4-10.6 14.6-18 25.8zM510 74.4c-76.2 0-129.4 1.6-159.2 4.8 13.6 14.8 17.8 35.2 17.2 56.4 12.6-11.8 25.4-20.6 40.2-27 0.2 0 0.4-0.2 0.6-0.2 25-10.8 55.4-15 101.2-15 69.8 0 107.4 9 141.6 37.8 0-19.4 4.4-38 17.4-52-29.8-3.2-83-4.8-159-4.8z" />
<glyph unicode="&#xe92b;" glyph-name="saude-dental-endodontia" d="M543 710.6c-36.8 12-73.8-4.2-98.2-15-7.4-3.2-17.6-7.8-20.6-7.8-3.2 0.2-13.4 4.6-20.8 7.8-24.4 10.8-61.4 27-98.2 15-34.8-11.4-63.6-41.2-74.8-77.8-11-35.6-11.6-94 47.6-170.4 16.6-21.4 20-50.8 23.2-76.8 4-32.8 8.8-73.4 50.4-73.4 39.6 0 48.4 48.4 56 91 3 16.8 9.4 52 16.8 55 7.2-3 13.4-38 16.4-55 7.6-42.6 16.2-91 56-91 41.6 0 46.4 40.6 50.4 73.4 3.2 26 6.6 55.4 23.2 76.8 59.2 76.4 58.4 134.8 47.6 170.4-11.4 36.6-40 66.4-75 77.8zM545 482c-22-28.4-26.2-64-29.8-92.6-4.6-37.6-7.6-45.2-18.6-45.2-12.8 0-19.8 38.8-24.4 64.6-7.2 40-14.6 81.2-48 81.2s-41-41.4-48-81.2c-4.6-25.8-11.6-64.6-24.4-64.6-11 0-14.2 7.6-18.6 45.2-3.4 28.6-7.8 64.2-29.6 92.6-50.8 65.6-51 113.2-42.2 141.4 9.8 32 34.4 50.4 54.2 56.8 25.2 8.2 53-4 75.4-13.8 13.4-6 24-10.6 33.6-10.6s20.2 4.6 33.6 10.6c22.4 9.8 50 22.2 75.4 13.8 19.8-6.4 44.2-24.8 54.2-56.8 8.2-28.4 8-76-42.8-141.4zM919.2 154.2l-208.4 200.8c33 52.2 52.2 114 52.2 180.2 0 186.8-152 338.8-339 338.8-186.8 0-338.8-152-338.8-339 0-186.8 152-338.8 338.8-338.8 64.4 0 124.6 18 175.8 49.2l206.4-204.8c12.4-12.4 28.8-18.8 45.2-18.8s32.8 6.2 45.2 18.8l22.8 22.8c25 25 25 65.6-0.2 90.8zM127.8 535.2c0 163.4 132.8 296.2 296.2 296.2s296.2-133 296.2-296.2c0-163.4-133-296.2-296.2-296.2s-296.2 132.8-296.2 296.2zM889.4 93.6l-22.8-22.8c-8.4-8.4-21.8-8.4-30.2 0l-201 199.6c18.4 14.8 35.4 31.2 50.4 49.4l203.6-196.2c4-4 6.2-9.4 6.2-15s-2.2-11-6.2-15z" />
<glyph unicode="&#xe92c;" glyph-name="saude-dental-odontopediatria" d="M914 327c-3 10.8-8.4 20.4-16 28.2 11.6 38.2 17.6 77.6 17.6 117.2 0 221.8-180.6 402.4-402.4 402.4-17.8 0-35.2-1.2-52.4-3.6-1 0-2.2-0.2-3.2-0.4-195.8-27.2-346.8-195.4-346.8-398.4 0-39.6 6-79 17.6-117.2-7.6-7.8-13.2-17.4-16-28.2-4.4-16.6-2.2-33.8 6.4-48.6l37.2-64.6c8.6-14.8 22.4-25.4 38.8-29.8 10.8-2.8 21.8-3 32.4-0.2 116.6-142 215.2-160.8 280.6-160.8 1.6 0 3.4 0 5 0 66.2-0.8 166.6 15 286.2 160.8 10.4-2.6 21.6-2.6 32.4 0.2 16.6 4.4 30.4 15 38.8 29.8l37.4 64.6c8.6 14.8 10.8 32 6.4 48.6zM870.8 299.8l-37.4-64.6c-2.8-4.8-7.4-8.4-13-9.8-5.4-1.4-11.2-0.8-16.4 2.2l-1.2 0.6c-9.2 5.2-20.8 3-27.2-5.4-57.8-73.4-139.2-157.2-259.2-157.2-1.2 0-2.4 0-3.6 0-1.4 0-3 0-4.4 0-63.4 0-149.2 19.4-257.8 157.2-4.2 5.2-10.4 8.2-16.8 8.2-3.6 0-7.2-1-10.6-2.8l-1.2-0.8c-5-2.8-10.6-3.6-16.2-2-5.6 1.4-10.2 5-13 9.8l-37.4 64.6c-2.8 4.8-3.6 10.6-2 16.2 1.4 5.6 5 10.2 10.4 13.4 8.8 5.2 12.8 15.8 9.4 25.4-13.2 38.2-20 77.8-20 117.8 0 167.8 115.6 309.2 271.4 348.8-6.4-24.4-8.4-58.2 7.8-99.8 9.8-25 26.6-42.8 49-51.2 11.2-4.2 22.6-5.8 33.6-5.8 31.8 0 60 13.2 66.4 16.4 23.8 10.2 52 42 33.6 89.2-9 23.2-24.2 33.2-35.4 37.6-27.6 10.8-55.8-2.4-59-3.8-10.6-5.2-14.8-17.8-9.8-28.4s17.8-15 28.4-10c3.8 1.8 16.2 6 25 2.4 1.8-0.6 7-2.8 11-13.4 8.6-22-3.4-31.2-11-34.6-0.6-0.2-1.2-0.6-1.8-0.8-9.8-5.2-43-17.8-66-9-11 4.2-19 12.8-24.2 26.6-18.6 48-6 80.4 1.4 93.2 13 1.4 26.2 2.2 39.4 2.2 198.4 0 359.8-161.4 359.8-359.8 0-40-6.8-79.6-20-117.8-3.4-9.6 0.6-20.4 9.4-25.4l0.6-0.4c4.8-2.8 8.4-7.4 9.8-13 1.8-5.4 1-11.2-1.8-16zM686.8 362.4v0h-347.2c-17.6 0-32-14.4-32-32 0-116.2 92.2-210.6 205.6-210.6 112.8 0 204.8 93.6 205.6 209.2 0 0.4 0 1 0 1.4 0 17.6-14.4 32-32 32zM565.6 328.8v-83.2h-104.6v83.2h104.6zM513.2 151.8c-95.8 0-173.6 80-173.6 178.6h89.2v-100.8c0-8.8 7.2-16 16-16h136.6c8.8 0 16 7.2 16 16v100.8h89.2c0.2-98.8-77.6-178.6-173.4-178.6zM652 451c0-15.464-12.536-28-28-28s-28 12.536-28 28c0 15.464 12.536 28 28 28s28-12.536 28-28zM430.4 451c0-15.464-12.536-28-28-28s-28 12.536-28 28c0 15.464 12.536 28 28 28s28-12.536 28-28z" />
<glyph unicode="&#xe92d;" glyph-name="saude-dental-pais" d="M841.4 404.8c7.2 7.8 15.6 16.2 24.4 24.8 12.2 12 26 25.6 39 40.4 35.8 40.2 35.8 59.2 31.8 81.4-0.8 4.4-1.4 8.2-1.4 12.6 0 30-20.8 36-30.8 38.8-7 2-12.6 3.6-19.2 12-25 31.8-45.4 52.4-98 52.4-25.2 0-38.4 13.4-54.8 30.6-5 5-10 10.4-15.6 15.2-15.4 13.6-30.2 13.2-40 12.8s-17.6-0.6-35.2 18.6c5.8 6.4 7 15.8 3.2 23.4l-29.6 60.4c-3.4 7.2-10.6 11.8-18.4 12s-15.2-4-19.2-10.8c-7.4-13-19.2-27-25.6-31-19 16-46.4 9-70.8 3-18.6-4.6-41.6-10.6-49.6-2.8-5.6 5.4-7.4 9.4-7.2 11.6 0.2 2.6 3.2 5.8 4.4 6.6 3.2 2.2 5.6 5.2 7.2 8.6 6.2 13.4 8.2 31.8-4.8 43-17.2 14.8-42.6 3.4-68.2-12.6-7.2 0.4-14.2 1.6-20.4 2.6-14.6 2.4-31.2 5-40.8-9.4-10.2-15.2 0.4-32.2 6-41.4 1-1.6 2-3.2 3-4.6-8.8-3.6-27-11-31.6-9.4 0 0-0.8 0.6-2 3.2-16.8 36.2-56 26.2-70.6 22.4-2.6-0.6-4.8-1.2-6.6-1.6-14.4-2.4-26.8-14-31.6-29.8-5-16.6-0.6-33.8 11.4-45 3.2-3 5.8-9.6-1.4-35.8-7.2-25.8-8.6-25.8-17.8-26.6-37.6-3.4-64.8-25.4-64.8-52-0.2-1.6-2-6.2-3-9.2-5.4-14.2-16.6-43.4 10.2-67.2 13.2-11.6 28-16.2 41.2-17 1-4.6 2.8-9.2 5.6-13.2 3.8-5.6 13-14.8 30.8-14.8 28.4 0 55.6 11.4 74 21.4 0-0.6 0-1.4 0-2.4 0-31.6 26-58.4 69.8-71.4 13.8-4.2 30.2-12.4 30.2-28.4 0-34.4 19.8-44.2 36.4-46.8 7.6-29.6 7.8-37.4 5.2-47.6-4.8-18.8-9.6-45.8 4.8-64.4 5-6.4 13.8-13.8 29.2-15.2 0.2-1.8 0.4-3.8 0.6-5.2 1-10.8 4-43.8 38.2-43.8 0.8 0 1.2 0 1.8 0 0.6-3.4 0.2-10.2 0-14 0-1.8-0.2-3.4-0.2-5-5.6-7.2-24.4-22.2-56-44.4-6-4.2-10.6-7.4-13.2-9.4-7.4-5.8-10.2-15.6-6.8-24.4 11.8-30.8 25.6-39.6 39.8-46.8 3.2-1.6 5.4-2.8 7.4-4.4 12.6-10.2 30-27.6 30.2-27.6 4.2-4.2 9.6-6.2 15-6.2s10.8 2 15 6.2c0.4 0.4 35.8 35 57.2 51.8 14.2 11.2 35.6 36.2 50.4 62.6 3.8-9 6-18.4 6.4-29.6 1-51.4 30.6-90.6 68.8-91.2 0.2 0 0.4 0 0.6 0 36.6 0 52 30.4 60.8 62.2 8.8-32 24.4-62 61.6-62.2 38 0.4 67.6 39.6 68.6 91.2 0.6 25 11.4 41.6 25.2 62.6 16.8 25.4 37.6 57.2 37 105.2-0.8 62.4-42.6 113.8-97.2 125zM532.8 112.6c-14.2-11-33-28.4-46-40.8-5.8 5.4-12.4 11.2-18.2 16-5.6 4.6-11 7.4-15.4 9.4-4.6 2.4-8.2 4-11.8 9.2 56 39.2 71.6 55.2 71.6 73.4 0 2 0.2 4.2 0.2 6.4 0.8 13 1.8 32.4-11.4 46.6-5 5.2-13.8 11.4-28.2 12.6-0.2 1.8-0.4 3.6-0.6 5.2-1 10.8-4 43.8-38.2 43.8-0.2 0-0.4 0-0.6 0-0.6 2.8-1.2 10.2 3 26.6 6 23.4 2.2 41.6-9.2 84-2.6 9.4-11 15.8-20.6 15.8-5.4 0-8.4 0.4-10.2 0.6-0.2 1-0.2 2.6-0.2 4.8 0 32.4-22 57.6-60.6 69.2-23.6 7-39.4 19.4-39.4 30.6 0 26.6-12.6 38-20 42.4-12 7-27 6.4-41.2-1.6-10.4-5.8-29.8-15.2-49.8-17 0.2 0.8 0.4 1.4 0.6 2 2.8 7.8 0.8 16.6-5.2 22.4s-14.8 7.8-22.6 4.8c-1.6-0.6-16.2-5.6-28.2 5-3.4 3-4.6 4 1.4 19.8 2.8 7.6 5.8 15.4 5.6 23 1.2 2.6 10.4 9.4 26.2 10.8 39.8 3.6 48 32.2 55 57.6 5 17.6 15.2 54.4-10.4 78.2-0.2 0.4 0 1.4 0.4 2.2 2.4 0.4 5 1.2 7.8 1.8 18.2 4.6 20.4 3.2 21.4 0.8 20.2-43.2 63-25.6 88.6-15.2 4.4 1.8 8 3 11 4 7.6 2.6 18.2 6.2 22.4 17.8 3.6 10.4-0.2 18.8-6 28.4 8.4-0.8 18.6-2.4 26.4 2.6 0.6 0.4 1.2 0.8 1.8 1.2-0.2-1.2-0.4-2.6-0.4-3.8-1-11 1.8-28 19.8-45.8 25-24.4 61-15.4 89.8-8 10.8 2.8 28.8 7.2 32.8 5.8 8.8-8.4 20-12.2 31.6-10.6 13.8 2 26.4 11.6 36.6 22.4l1.2-2.4c-1.2-1.2-2.2-2.4-3.2-3.8-13.6-19.8 7.2-42.4 19.4-55.8 28.6-31 49.4-33.2 68.2-32.6 7.4 0.2 8 0.2 10.6-2.2 4.2-3.8 8.6-8.2 13.2-13 18.8-19.4 42.2-43.4 85.4-43.4 34.6 0 44.2-10.4 64.6-36.2 15-19.2 31.2-23.8 40.8-26.6 0 0 0 0 0 0 0.2-7.2 1.2-13 2-17.8 2-11.2 3.2-17.8-21.6-45.8-12.2-13.6-24.8-26.2-37.2-38.2-21-20.6-39.4-38.8-48.8-57.2-18.2-5-31.6-13.2-41-19 0 0-0.2 0-0.2-0.2-0.2 0.2-0.4 0.2-0.6 0.4-13.6 8.4-36.6 22.6-71.6 23-0.4 0-0.8 0-1 0-65.2 0-118.6-56.8-119.2-127-0.4-40.8 14.6-69.6 29.2-93.2-4.4-18.6-30.4-58.2-49.8-73.4zM865.8 198.2c-15.4-23.6-31.4-48-32.2-85.2-0.6-28.8-14.6-49.2-26.6-49.4 0 0 0 0 0 0-14.2 0-21.2 34-26.4 58.8-3.6 18-7.8 36.4-13 47-3.6 7.2-11 11.8-19.2 11.8h-5.2c-8.2 0-15.6-4.6-19.2-11.8-5.2-10.6-9.4-29-13-47-5.2-24.8-12.2-58.8-26.2-58.8 0 0 0 0 0 0-12 0.2-26 20.4-26.6 49.4-0.8 37.2-16.8 61.6-32.2 85.2-15 22.8-30.4 46.4-30 81.4 0.4 47 34.8 84.8 76.6 84.8 0.2 0 0.4 0 0.6 0 23.2-0.2 37.8-9.4 49.8-16.8 8.8-5.4 14.6-8.8 21.6-9.2 0.8 0 1.6 0 2.4 0 7 0.4 12.6 3.8 21.8 9.4 11.8 7.4 26.4 16.4 49.6 16.6 0.2 0 0.4 0 0.6 0 41.8 0 76.2-37.8 76.6-84.8 0.6-35.2-15-58.6-29.8-81.4z" />
<glyph unicode="&#xe92e;" glyph-name="saude-dental-periodontia" d="M689.6 473.2v90.8c0 3.6-0.8 7-2.6 10l-57.6 107.2 101.2 84c9 7.6 10.4 21 2.8 30s-21 10.4-30 2.8l-114.6-95c-7.8-6.4-10-17.6-5.2-26.4l63.2-117.8v-85.4c-25.4-8.2-43.8-31.8-43.8-59.8v-326.8c0-34.6 28.2-62.8 62.8-62.8h4.4c34.6 0 62.8 28.2 62.8 62.8v326.4c0.2 28-18.2 51.8-43.4 60zM690.6 86.6c0-11.2-9-20.2-20.2-20.2h-4.4c-11.2 0-20.2 9-20.2 20.2v326.6c0 11.2 9 20.2 20.2 20.2h4.4c11.2 0 20.2-9 20.2-20.2v-326.6zM427.8 875.2c-78.4 0-142-63.8-142-142 0-71 52.6-130 120.8-140.2v-120c-25-8.4-43-31.8-43-59.6v-326.8c0-34.6 28.2-62.8 62.8-62.8h4.4c34.6 0 62.8 28.2 62.8 62.8v326.6c0 28.2-18.8 52.2-44.4 60v119.4c68.2 10.4 120.8 69.2 120.8 140.2 0 78.6-63.8 142.4-142.2 142.4zM451 86.6c0-11.2-9-20.2-20.2-20.2h-4.4c-11.2 0-20.2 9-20.2 20.2v326.6c0 11.2 9 20.2 20.2 20.2h4.4c11.2 0 20.2-9 20.2-20.2v-326.6zM427.8 633.6c-54.8 0-99.4 44.6-99.4 99.4s44.6 99.4 99.4 99.4 99.4-44.6 99.4-99.4-44.6-99.4-99.4-99.4zM427.8 797.6c-35.6 0-64.4-28.8-64.4-64.4s28.8-64.4 64.4-64.4 64.4 28.8 64.4 64.4c0 35.4-28.8 64.4-64.4 64.4zM427.8 700.6c-17.8 0-32.4 14.6-32.4 32.4s14.6 32.4 32.4 32.4c17.8 0 32.4-14.6 32.4-32.4s-14.4-32.4-32.4-32.4z" />
<glyph unicode="&#xe92f;" glyph-name="saude-dental-prevencao" d="M522.2 669.8c-0.2 30-17.4 56-42.2 69.2l-6.8 96.4c-0.4 22-18.4 39.8-40.6 39.8h-61c-22 0-40.2-17.8-40.6-39.8l-6.8-96.4c-25-13.2-42-39.2-42.2-69.2l-38.6-568.2c0-0.4 0-1 0-1.4 0-43.6 35.6-79.2 79.2-79.2h159c43.6 0 79.2 35.6 79.2 79.2 0 0.4 0 1 0 1.4l-38.6 568.2zM373.4 832.4h57.2l5.8-84.2h-69l6 84.2zM481.6 63.6h-159c-20 0-36.2 16-36.6 35.8l38.6 568c0 0.4 0 1 0 1.4 0 17.2 11.8 31.4 27.8 35.4 0.8 0.2 1.6 0.4 2.4 0.6 2 0.4 4.2 0.6 6.4 0.6h82c2.2 0 4.2-0.2 6.4-0.6 0.8-0.2 1.6-0.4 2.4-0.6 16-4 27.8-18.2 27.8-35.4 0-0.4 0-1 0-1.4l38.4-568c-0.4-19.8-16.6-35.8-36.6-35.8zM723 875h-94.4c-23.6 0-42.6-19.2-42.6-42.6v-221.8c0-23.6 19.2-42.6 42.6-42.6h84.2l-18.2-35c-1.6-3-2.4-6.4-2.4-9.8v-483.8c0-11.8 9.6-21.4 21.4-21.4s21.4 9.6 21.4 21.4v478.6l28.2 54.4c1.6 3 2.4 6.4 2.4 9.8v250.2c0 23.6-19 42.6-42.6 42.6zM628.6 832.4h94.4v-221.8h-94.4v221.8z" />
<glyph unicode="&#xe930;" glyph-name="saude-dental-protese" d="M937.4 716c0 2.8-0.6 5.4-1.6 8-2.8 11.4-10.6 32.4-32.2 43.2-22.6 11.4-51.4 7-85.6-13-13.8-8-157.6-56.8-306.4-56.8s-292.4 48.6-306.4 56.8c-34.2 20-63 24.4-85.6 13-21.4-10.8-29.4-31.8-32.2-43.2-1-2.4-1.6-5.2-1.6-8v-125.8c0-5.8 2.4-11.2 6.2-15-0.6-2.8-0.8-5.8-0.8-8.8v-54c0-14.4 6.2-27.4 16.2-36.6v-50.4c0-5.6 0.8-11 2.2-16-3.6-3.8-5.8-9-5.8-14.6v-53.4c0-1.8-1.8-45.8 33.8-74.8l3.4-2.8c105.2-86.6 229.8-130.4 370.6-130.4s265.4 43.8 370.6 130.4l3.4 2.8c35.6 28.8 33.8 72.8 33.8 73.6v54.4c0 5.6-2.2 10.8-5.8 14.6 1.4 5 2.2 10.4 2.2 16v50.6c9.8 9.2 16 22 16 36.6v54c0 3-0.4 6-0.8 8.8 3.8 3.8 6.2 9.2 6.2 15v125.8zM891.4 496.8c-1.4-0.8-2.6-1.4-4.2-1.8-0.2 0-0.6-0.2-0.8-0.2-1.4-0.4-3-0.6-4.6-0.6h-2v49.4c0 3.2-0.4 6.4-1 9.4 0 0.4-0.2 0.8-0.2 1-0.6 2.8-1.6 5.6-2.6 8.4-0.2 0.4-0.4 0.8-0.4 1.2-1.2 2.6-2.6 5.2-4.2 7.6-0.2 0.2-0.4 0.6-0.6 0.8-1.6 2.4-3.6 4.8-5.6 6.8 0 0-0.2 0.2-0.4 0.2-1 1-2.2 2-3.2 3 2.6 1.4 5.6 2.2 8.6 2.2h11.6c10 0 18.2-8.2 18.2-18v-54c0-6.4-3.4-12-8.6-15.4 0 0.2 0 0.2 0 0zM495.8 327.6c0-28.8-23.4-52.2-53-52.2-28.8 0-52.2 23.4-52.2 52.2v25c0.2 0 0.2 0 0.4 0 3.4-0.8 6.8-1.2 10.4-1.2h76.4c3.4 0 6.6 0.4 9.8 1 1 0.2 2 0.6 3 0.8 1.8 0.4 3.6 0.8 5.4 1.6v-27.2zM242.2 343.4c-4-1.2-8-1.8-12.2-1.8-23.6 0-43 19.2-43.2 42.8v25.2c2.2-0.4 4.4-0.4 6.8-0.4h31.2c2.4 0 4.6 0.2 7 0.6 0.2 0 0.2 0 0.4 0 0.2-0.4 0.4-0.6 0.6-1 0.6-1 1.4-2 2.2-3 1-1.4 2.2-2.8 3.4-4 0.8-1 1.8-1.8 2.6-2.6 0.4-0.4 0.8-0.8 1.2-1.2v-54.6zM136.8 494.8c-0.2 0-0.4 0.2-0.8 0.2-1.4 0.4-2.8 1-4.2 1.8 0 0-0.2 0-0.2 0-5 3.2-8.4 8.8-8.4 15.2v54c0 10 8.2 18 18 18h11.6c3 0 6-0.8 8.6-2.2-1.2-1-2.2-2-3.2-3-0.2-0.2-0.2-0.2-0.4-0.4-2-2.2-4-4.4-5.6-6.8-0.2-0.2-0.4-0.6-0.6-0.8-1.6-2.4-3-5-4.2-7.6-0.2-0.4-0.4-0.8-0.4-1.2-1-2.8-2-5.4-2.6-8.4 0-0.4-0.2-0.8-0.2-1-0.6-3-1-6.2-1-9.4v-49.4h-2c-1.2 0.4-2.8 0.6-4.4 1zM784.8 555.2c3.4 4 8.4 6.4 13.8 6.4h31.2c1.4 0 3-0.2 4.4-0.6 4-1 7.4-3.2 9.8-6.4 0 0 0 0 0 0 1.2-1.4 2-3.2 2.8-5 0-0.2 0.2-0.4 0.2-0.6 0.6-1.8 1-3.6 1-5.6v-84.4c0-1.2-0.2-2.6-0.4-3.8 0-0.2-0.2-0.4-0.2-0.4-0.2-1-0.6-2-1-3 0 0 0 0 0-0.2-1-2.2-2.6-4.2-4.4-6 0 0 0 0 0 0-0.8-0.8-1.8-1.4-2.6-2 0 0-0.2 0-0.2-0.2-0.8-0.6-1.8-1-2.6-1.4-0.4-0.2-0.8-0.2-1-0.4-0.6-0.2-1.4-0.4-2-0.6-1.2-0.2-2.2-0.4-3.4-0.4h-31.2c0 0 0 0-0.2 0v79.6c0 3.2-0.4 6.6-1 9.8-0.4 1.8-1 3.6-1.6 5.4-0.4 1.2-0.6 2.6-1.2 3.8-0.8 2-1.8 3.8-2.8 5.6-0.6 1-1 2-1.6 2.8-1.2 1.8-2.6 3.4-3.8 5-1 1-1.4 1.8-2 2.6zM757.4 536.4c2.6-1.6 4.8-3.8 6.4-6.4 0-0.2 0.2-0.4 0.2-0.6 0.6-1.2 1-2.2 1.4-3.4 0-0.2 0.2-0.6 0.2-0.8 0.4-1.4 0.6-2.8 0.6-4.4v-85.2c0-1-0.2-2.2-0.4-3.2 0 0 0 0 0 0-1-5-4.2-9.6-8.6-12.4-0.2 0-0.4-0.2-0.4-0.2-1.2-0.6-2.2-1-3.4-1.4-0.2 0-0.6-0.2-0.8-0.2-1.4-0.4-2.8-0.6-4.2-0.6h-58c-10 0-18 8.2-18 18v70c0 0 0 0 0 0v15.2c0 10 8.2 18.2 18 18.2h58c3.4-0.2 6.4-1.2 9-2.6zM640.4 435.6v-34c0-2.2-0.4-4-1-5.6-0.2-0.4-0.2-0.8-0.4-1.2-0.2-0.8-0.6-1.4-1-2-0.2-0.2-0.2-0.4-0.4-0.8-0.4-0.6-0.8-1.2-1.2-1.6 0-0.2-0.2-0.2-0.2-0.4-0.8-1-1.6-1.8-2.6-2.6-0.2-0.2-0.4-0.2-0.4-0.4-0.8-0.6-1.8-1.2-2.6-1.8-0.2-0.2-0.4-0.2-0.8-0.4-1-0.4-1.8-0.8-2.8-1-0.2 0-0.6-0.2-0.8-0.2-1.2-0.2-2.6-0.4-3.8-0.4h-76.4c-10 0-18.2 8.2-18.2 18.2v104.2c0 10 8.2 18.2 18.2 18.2h76.4c10 0 18-8.2 18.2-18.2v-70zM495.8 401.4c0-10-8.2-18.2-18.2-18.2h-76.4c-1.4 0-2.6 0.2-3.8 0.4-0.2 0-0.6 0.2-0.8 0.2-1 0.2-2 0.6-2.8 1-0.2 0.2-0.4 0.2-0.8 0.4-1 0.4-1.8 1-2.6 1.8-0.2 0.2-0.4 0.2-0.6 0.4-0.8 0.8-1.8 1.6-2.4 2.6-0.2 0.2-0.2 0.2-0.4 0.4-0.4 0.4-0.8 1-1 1.6-0.2 0.4-0.4 0.6-0.6 1-0.4 0.6-0.6 1.2-0.8 1.8s-0.4 1-0.6 1.6c-0.2 0.4-0.4 1-0.4 1.4-0.2 1.2-0.4 2.4-0.4 3.6v104c0 10 8.2 18.2 18.2 18.2h76.4c10 0 18.2-8.2 18.2-18.2v-104zM351.2 505.6v0-70c0-10-8.2-18-18-18h-58c-1.4 0-2.8 0.2-4.2 0.6-0.4 0-0.6 0.2-0.8 0.2-1.2 0.4-2.4 0.8-3.4 1.4-0.2 0.2-0.4 0.2-0.6 0.4-1 0.6-2 1.2-2.8 2 0 0-0.2 0.2-0.2 0.2-3 2.6-4.8 6.2-5.6 10-0.2 1-0.4 2.2-0.4 3.2v85.2c0 1.4 0.2 3 0.6 4.4 0 0.2 0.2 0.6 0.2 0.8 0.4 1.2 0.8 2.4 1.4 3.4 0 0.2 0.2 0.4 0.2 0.6 1.6 2.6 3.8 4.8 6.4 6.4s5.8 2.6 9 2.6h58c10 0 18-8.2 18-18.2v-15.2zM237 553c-1.4-1.6-2.8-3.2-4-5-0.6-0.8-1-1.8-1.4-2.6-1-1.8-2.2-3.8-3-5.8-0.4-1.2-0.8-2.4-1.2-3.6-0.6-1.8-1.2-3.6-1.6-5.4-0.6-3.2-1-6.4-1-9.8v-79.6c0 0 0 0-0.2 0h-31c-1.2 0-2.2 0.2-3.4 0.4-0.8 0.2-1.4 0.4-2.2 0.6-0.2 0-0.6 0.2-0.8 0.2-1 0.4-1.8 0.8-2.8 1.4 0 0-0.2 0-0.2 0-1 0.6-1.8 1.2-2.6 2 0 0 0 0 0 0-2 1.8-3.4 3.8-4.4 6 0 0 0 0 0 0.2-0.4 1-0.8 2-1 3.2 0 0.2-0.2 0.2-0.2 0.4-0.2 1.2-0.4 2.4-0.4 3.8v84.4c0 2 0.4 3.8 1 5.6 0 0.2 0 0.4 0.2 0.4 0.6 1.8 1.6 3.4 2.8 5 0 0 0 0 0 0 2.4 3 5.8 5.4 9.8 6.4 1.4 0.4 2.8 0.6 4.2 0.6h31.2c5.4 0 10.4-2.4 13.8-6.4-0.6-1-1-1.6-1.6-2.4zM274.2 341.2v44.2c0.2 0 0.6 0 0.8 0h58c3.4 0 6.8 0.4 10 1 1.2 0.2 2.2 0.8 3.2 1 2 0.6 4.2 1 6.2 2 0 0 0 0 0 0 0.6-2.4 1.4-5 2.4-7.2 0.2-0.4 0.6-1 0.8-1.4 0.8-1.8 1.6-3.6 2.8-5.4v-34.2c0-23.2-19-42.2-42.2-42.2s-42 19-42 42.2zM527.8 354.8c1.8-0.6 3.6-1 5.4-1.6 1-0.2 2-0.6 3-0.8 3.2-0.6 6.4-1 9.8-1h76.4c3.6 0 7 0.4 10.4 1.2 0.2 0 0.2 0 0.4 0v-25c0-28.8-23.4-52.2-53-52.2-28.8 0-52.2 23.4-52.2 52.2v27.2zM665 375.4c0.8 1.4 1.4 2.8 2.2 4.2 0.6 1.2 1.2 2.4 1.8 3.8 0.8 2 1.4 4 2 6 0 0 0 0 0 0 1.6-0.6 3.4-1 5.2-1.6 1.4-0.4 2.8-1 4.2-1.4 3.2-0.6 6.6-1 10-1h58c0.2 0 0.6 0 0.8 0v-44.2c0-23.2-18.8-42.2-42.2-42.2-23.2 0-42.2 18.8-42.2 42.2v34.2zM781.2 397.8c0.4 0.4 0.8 0.8 1.2 1.2 1 0.8 1.8 1.8 2.6 2.8 1.2 1.2 2.2 2.6 3.2 4 0.8 1 1.6 2 2.2 3 0.2 0.4 0.4 0.6 0.6 1 0.2 0 0.2 0 0.4 0 2.2-0.4 4.6-0.6 7-0.6h31.2c2.2 0 4.6 0.2 6.8 0.4v-24.8c0-23.8-19.4-43.2-43.2-43.2-4.2 0-8.2 0.6-12.2 1.8v54.4zM138.8 729c8.4 4.2 24.8 0 44.8-11.6 25-14.6 176-62.6 328-62.6s303 48 328 62.6c20 11.6 36.2 16 44.8 11.8 7.2-3.6 9.8-14 10.4-16.8v-97.8c-4.2 1-8.4 1.8-12.8 1.8h-11.6c-17.2 0-32.6-8.8-41.8-22.8h-30c-17.6 0-33.4-9.2-42.4-23.6-2.6 0.4-5.2 0.8-7.8 0.8h-58c-17.6 0-33-9.2-41.8-22.8-7.6 4.8-16.6 7.6-26.2 7.6h-76.4c-13.2 0-25.2-5.2-34-13.6-9 8.4-20.8 13.6-34 13.6h-76.4c-9.6 0-18.6-2.8-26.2-7.6-9 13.6-24.4 22.8-41.8 22.8h-58c-2.6 0-5.2-0.4-7.8-0.8-9 14.2-24.8 23.6-42.4 23.6h-30c-9 14-24.6 22.8-41.8 22.8h-11.6c-4.4 0-8.6-0.8-12.8-1.8v97.8c0 2.8 2.6 13 9.6 16.6zM143.4 462.2v-3c0-3.2 0.4-6.2 1-9.2 0.2-1.4 0.6-2.6 1-3.8 0.4-1.6 0.8-3.2 1.4-4.8 0.6-1.4 1.2-3 2-4.4 0.6-1.2 1.2-2.4 2-3.6 0.8-1.4 1.8-2.8 2.8-4.2 0.4-0.6 0.6-1 1-1.6v-26.6c-9 4.2-15.4 13.6-15.4 24.2v37c0.6 0 1.4 0 2 0h2.2zM858.8 299.6l-3.6-3c-97.4-80.2-212.8-120.8-343.4-120.8s-246.2 40.6-343.4 120.8l-3.6 3c-18.6 15-18 38.8-18 40.6v29.8c3.4-1.2 6.8-2 10.4-2.6 8-33 37.6-57.6 73-57.6 6.2 0 12.2 0.8 18.2 2.2 11.4-26.4 37.6-45 68.2-45 20.2 0 38.6 8.2 52 21.2 14.2-26.8 42.4-45 75.2-45 28 0 53 13.8 68.2 35 15.4-21.2 40.4-35 69-35 32.2 0 60.2 18.2 74.4 45 13.4-13.2 31.6-21.2 51.8-21.2 30.4 0 56.8 18.6 68.2 45 6-1.4 12-2.2 18.2-2.2 35.4 0 65 24.6 73 57.6 3.6 0.6 7 1.4 10.4 2.6v-30.8c-0.2-0.4 0.6-24.4-18.2-39.6zM884 462.2v-37c0-10.6-6.2-20-15.4-24.2v26.6c0.4 0.4 0.6 1 1 1.6 1 1.4 2 2.6 2.8 4.2 0.8 1.2 1.4 2.4 2 3.8 0.8 1.4 1.4 2.8 2 4.2 0.6 1.6 1 3.2 1.6 4.8 0.4 1.2 0.8 2.6 1 3.8 0.6 3 1 6.2 1 9.2v3h2c0.6 0 1.2 0 2 0z" />
<glyph unicode="&#xe931;" glyph-name="saude-dental-radiologia" d="M916.2 850.2h-809c-11.8 0-21.4-9.6-21.4-21.4v-552c0-11.8 9.6-21.4 21.4-21.4h330.2l0.2-156.4h-132.2c-11.8 0-21.4-9.6-21.4-21.4s9.6-21.4 21.4-21.4c0 0 0 0 0 0l152.4 0.2c0.4 0 0.8-0.2 1-0.2 0 0 0 0 0 0 0.4 0 0.8 0 1 0.2h103.6c0.6 0 1.2-0.2 1.8-0.2 0 0 0 0 0 0 0.6 0 1.2 0.2 1.8 0.2l151.4 0.2c11.8 0 21.4 9.6 21.4 21.4s-9.6 21.4-21.4 21.4v0h-132l-0.2 156.4h329.8c11.8 0 21.4 9.6 21.4 21.4v552c0.2 11.4-9.4 21-21.2 21zM544.2 99.2h-64l-0.2 156.4h64l0.2-156.4zM895 298.2h-766.6v509.4h766.6v-509.4zM389.4 431.2c3.8-31.6 9-74.8 53.8-74.8 42.6 0 51.8 50.4 59 91 2.2 12.4 5.6 31.6 9.6 41.8 4-10.2 7.4-29.2 9.6-41.8 7.2-40.6 16.2-91 59-91 44.8 0 50 43.2 53.8 74.8 2.8 23.8 6.2 50.6 20.6 69.6 57.6 74.2 56.8 131.6 46 166.8-11.4 37-39.2 66-74.6 77.6-37.2 12.2-73.4-3.8-97.2-14.4-5.8-2.6-13.8-6-17-6.8-3.4 0.8-11.2 4.2-17 6.8-24 10.6-60.2 26.6-97.2 14.4-35.4-11.6-63.2-40.6-74.6-77.6-10.8-35-11.6-92.4 46-166.8 14-18.8 17.2-45.8 20.2-69.6zM363.4 655c8.6 28 30 44 47.2 49.6 21.6 7 46.6-4 66.8-12.8 13.4-5.8 23.8-10.6 34.4-10.6 10.4 0 21 4.6 34.4 10.6 20.2 8.8 45.2 20 66.8 12.8 17.2-5.6 38.6-21.6 47.2-49.6 7.8-25.4 7.4-68.2-39-128-21.8-28.2-26-62.8-29.4-90.6-3.8-32-6.2-37.4-11.6-37.4-7.6 4-13.8 39-16.8 56-6.8 38.4-14.6 82-51.6 82s-44.6-43.6-51.6-82c-3-16.8-9.2-52-17-56-5.2 0-7.6 5.4-11.4 37.4-3.4 27.8-7.6 62.4-29.4 90.6-46.4 59.6-46.8 102.6-39 128z" />
<glyph unicode="&#xe932;" glyph-name="saude-dermatologia" d="M511 273.8c77.8 0 141 58.8 141 131 0 10.8-1.6 21.8-4.6 32.6-47.4 318.2 42.8 397.2 47.8 401.2 11.4 7.6 19 20.6 19 35.4 0 23.6-19 42.6-42.6 42.6v0c-8.2 0-15.6-2.2-22.2-6.2-280.4-163.8-280-487-279.6-506 0.4-72.2 63.6-130.6 141.2-130.6zM671.8 873.8c0 0-121.6-76-66-445.8 2.2-7.4 3.6-15.2 3.6-23.4 0-48.8-44-88.2-98.4-88.2s-98.4 39.6-98.4 88.2c0 0-6 314.8 259.2 469.2zM849.2 536.2h-177.4c6.6-50.2 21.6-117.6 14.4-151-14.6-67.2-56.8-143.8-162.6-143.8-23 0-49 3.6-78.4 11.8-139.2 38.6-115.2 216.6-101 283h-164.8c-36.8 0-67-30.2-67-67v-377c0-36.8 30.2-67 67-67h670c36.8 0 67 30.2 67 67v377c-0.2 36.8-30.2 67-67.2 67zM873.6 92.2c0-13.2-11.2-24.4-24.4-24.4h-670c-13.2 0-24.4 11.2-24.4 24.4v377c0 13.2 11.2 24.4 24.4 24.4h114.8c-18.2-148 32.4-251.6 140-281.4 31.8-8.8 62-13.2 89.8-13.2 105.4 0 179.8 64.6 204.2 177.4 6.6 30.6 0.6 72.6-6.4 117.2h127.8c13.2 0 24.4-11.2 24.4-24.4v-377z" />
<glyph unicode="&#xe933;" glyph-name="saude-diaria-hospitalar" d="M911.6 358.4h-349.6v81.4c38.6-25.2 83.8-38.6 130.8-38.6 132.4 0 240.2 107.8 240.2 240.2 0 19.8-2.4 39.6-7.2 58.8-2.2 8.6-10.8 13.8-19.4 11.6s-13.8-10.8-11.6-19.4c4.2-16.6 6.2-33.6 6.2-51 0-114.8-93.4-208.2-208.2-208.2-48 0-93.8 16.4-130.8 46.2v324c37 30 82.8 46.2 130.8 46.2 17.2 0 34.2-2 50.8-6.2 8.6-2.2 17.2 3 19.4 11.6s-3 17.2-11.6 19.4c-19 4.8-38.8 7.2-58.6 7.2-47 0-92.2-13.6-130.8-38.6v17.4c0 11.8-9.6 21.4-21.4 21.4h-439.2c-11.8 0-21.4-9.6-21.4-21.4v-810.2c0-11.8 9.6-21.4 21.4-21.4h810.4c11.8 0 21.4 9.6 21.4 21.4v287c-0.2 11.6-9.8 21.2-21.6 21.2zM122.6 839h396.6v-767.6h-67.2v152.8c0 11.8-9.6 21.4-21.4 21.4h-219.2c-11.8 0-21.4-9.6-21.4-21.4v-152.8h-67.4v767.6zM409.4 71.4h-176.8v131.4h176.8v-131.4zM890.4 71.4h-328.4v244.4h328.4v-244.4zM618.4 104.4h219.4c11.8 0 21.4 9.6 21.4 21.4v136.8c0 11.8-9.6 21.4-21.4 21.4h-219.4c-11.8 0-21.4-9.6-21.4-21.4v-136.8c0-12 9.6-21.4 21.4-21.4zM639.8 241.2h176.8v-94.2h-176.8v94.2zM284.4 310.2c11.8 0 21.4 9.6 21.4 21.4v150.2c0 11.8-9.6 21.4-21.4 21.4h-109.8c-11.8 0-21.4-9.6-21.4-21.4v-150.2c0-11.8 9.6-21.4 21.4-21.4h109.8zM196 460.6h67v-107.6h-67v107.6zM337.6 481.8v-150.2c0-11.8 9.6-21.4 21.4-21.4h109.8c11.8 0 21.4 9.6 21.4 21.4v150.2c0 11.8-9.6 21.4-21.4 21.4h-109.8c-11.8 0-21.4-9.6-21.4-21.4zM380.2 460.6h67v-107.6h-67v107.6zM220 624.8h54.6v-54.6c0-8.8 7.2-16 16-16h60.6c8.8 0 16 7.2 16 16v54.6h54.8c8.8 0 16 7.2 16 16v60.6c0 8.8-7.2 16-16 16h-54.6v54.8c0 8.8-7.2 16-16 16h-60.4c-8.8 0-16-7.2-16-16v-54.8h-55c-8.8 0-16-7.2-16-16v-60.6c0-8.8 7.2-16 16-16zM236 685.4h54.6c8.8 0 16 7.2 16 16v54.8h28.6v-54.6c0-8.8 7.2-16 16-16h54.8v-28.6h-54.6c-8.8 0-16-7.2-16-16v-54.6h-28.6v54.6c0 8.8-7.2 16-16 16h-54.8v28.4zM624.2 577.6c8.8 0 16 7.2 16 16v95.6c0 5.8-3.2 11.2-8.4 14s-11.4 2.6-16.4-0.6l-20.6-13.2c-7.4-4.8-9.6-14.6-4.8-22.2 4-6.2 11.4-8.6 18-6.6v-67.2c0.2-8.6 7.4-15.8 16.2-15.8zM659.4 604c-4-4.8-5-11.4-2.4-17s8.2-9.2 14.6-9.2h55.4c8.8 0 16 7.2 16 16s-7.2 16-16 16h-21l12.8 15c8.2 9.2 29.8 33.4 13.6 61.6-6.2 10.8-17 17.4-30.2 18.8-10.4 1-22-1.6-31.4-7-7.6-4.4-10.2-14.2-5.8-21.8s14.2-10.2 21.8-5.8c3.8 2.2 8.6 3.2 12.2 2.8 4.2-0.4 5.2-2.2 5.6-3 1.8-3.2 4.8-8.2-10-24.6l-35.2-41.8zM780 577.6c8.8 0 16 7.2 16 16v32.6h24v-32.6c0-8.8 7.2-16 16-16s16 7.2 16 16v95.6c0 8.8-7.2 16-16 16s-16-7.2-16-16v-31.2h-24v31.2c0 8.8-7.2 16-16 16s-16-7.2-16-16v-95.6c0-8.8 7-16 16-16zM816.4 764.8c3.2-3.2 7.2-4.6 11.4-4.6 4 0 8.2 1.6 11.4 4.6l48.2 48.2c6.2 6.2 6.2 16.4 0 22.6s-16.4 6.2-22.6 0l-48.2-48.2c-6.4-6.2-6.4-16.4-0.2-22.6zM846.8 723.2c3-4.6 8.2-7.2 13.4-7.2 3 0 6 0.8 8.8 2.6l56.8 37.4c7.4 4.8 9.4 14.8 4.6 22.2s-14.8 9.4-22.2 4.6l-56.8-37.4c-7.4-5-9.4-14.8-4.6-22.2zM774.8 798.6c2.8-2 6-3 9.4-3 5 0 9.8 2.4 13 6.6l39.8 55.4c5.2 7.2 3.6 17.2-3.6 22.4s-17.2 3.6-22.4-3.6l-39.8-55.4c-5.2-7.4-3.6-17.4 3.6-22.4z" />
<glyph unicode="&#xe934;" glyph-name="saude-homeopatia" d="M568.8 593c3.6 0 7.4 1.2 10.4 3.8l45 38.6c0 0 0 0 0 0l11.8 10.2c17-15.6 35.6-23.6 55.6-24.2 36.8-0.8 64.2 24.8 68.8 29.4 97.2 84 109.2 197.2 109.6 202 0 0.2 0 0.2 0 0.2 0 0.2 0 0.2 0 0.4 0 0.4 0 0.8 0 1.4s0 1 0 1.6c0 0.6-0.2 1-0.4 1.6s-0.2 1-0.4 1.6c-0.2 0.4-0.4 1-0.6 1.4s-0.4 1-0.6 1.4c-0.2 0.4-0.6 0.8-0.8 1.2-0.4 0.4-0.6 0.8-1 1.2s-0.6 0.6-1 1c-0.4 0.4-0.8 0.8-1.2 1s-0.8 0.6-1.2 0.8c-0.4 0.2-1 0.6-1.4 0.8s-1 0.4-1.4 0.6c-0.6 0.2-1 0.4-1.6 0.6-0.4 0.2-1 0.2-1.6 0.4-0.4 0-0.8 0.2-1.4 0.2-0.2 0-0.2 0-0.4 0s-0.2 0-0.2 0c-4.8 0.2-118.6 5.6-216.2-78-5.2-3.8-34.8-27.2-39.4-63.8-2.4-19.8 2.8-39.6 15.6-58.6l-56.6-48.8c-6.8-5.8-7.4-15.8-1.8-22.6 3.4-3.6 8-5.4 12.4-5.4zM631.2 724.2c3 25 26.6 42.2 26.8 42.2 0.4 0.4 0.8 0.6 1.2 1 66 56.6 141.8 68.2 175.8 70.4-7.2-33.2-29.8-106.4-96-163.2-0.4-0.4-0.8-0.6-1-1-0.2-0.2-20.8-20.8-45.8-20.2-10.8 0.4-21.6 4.8-31.8 13.2l87 74.8c6.8 5.8 7.4 15.8 1.8 22.6-5.8 6.6-15.8 7.4-22.6 1.8l-87-74.8c-6.8 11.2-9.6 22.4-8.4 33.2zM938.4 489.2c0 51-41.6 92.6-92.6 92.6h-353.4c0 8-2.2 16-6.8 23l-87 134.8c11.6 16.4 13.6 35.8 5.4 52.2l-26.4 53c-11.6 23.2-40.2 31.6-56.8 31.6-8.2 0-15.6-1.8-22.4-5.2l-157.4-78.4c-25.6-12.8-39.4-53.6-26.6-79.2l26.4-53c8-16 24.4-26 44-27l17.6-52h-24.8c-51 0-92.6-41.6-92.6-92.6 0-33 17.4-62 43.6-78.4 3.2-32.6 23.2-202.8 104.4-304.6-3-7-4.8-14.8-4.8-23 0-32.2 26.2-58.6 58.6-58.6h449.8c32.2 0 58.6 26.2 58.6 58.6 0 8.2-1.6 16-4.8 23 81.2 101.8 101.2 272 104.4 304.8 26.2 16.4 43.6 45.4 43.6 78.4zM212.2 685.4l-14.2-7c-2.4-1.2-6.2-2-10-2-4 0-7.8 1-9 3.4l-26.4 53c-2.4 4.8 2.6 19.6 7.4 22l157.6 78.4c0.8 0.4 2 0.6 3.4 0.6 6.4 0 16.6-4 18.6-8l26.4-53c2.4-4.8-5.4-13.8-10.4-16.2l-14.2-7 108.4-167.8h-202.2l-35.4 103.6zM177.6 539.2h68.4c0.6 0 1-0.2 1.6-0.2h202.2c0.6 0 1.2 0 1.8 0.2h394.2c27.6 0 50-22.4 50-50s-22.4-50-50-50h-668.2c-27.6 0-50 22.4-50 50s22.4 50 50 50zM736.6 67.2h-449.8c-8.6 0-15.8 7.2-15.8 15.8 0 8.8 7.2 15.8 15.8 15.8h449.8c8.8 0 15.8-7.2 15.8-15.8 0.2-8.6-7.2-15.8-15.8-15.8zM760.2 136.6c-7.2 3.2-15.2 5-23.6 5h-449.8c-8.4 0-16.4-1.8-23.6-5-60.8 79.6-83.2 208.4-90 260.2 1.4 0 3-0.2 4.4-0.2h668.2c1.6 0 3 0.2 4.4 0.2-6.6-51.8-29-180.4-90-260.2z" />
<glyph unicode="&#xe935;" glyph-name="saude-hospital" d="M916.8 667.2h-349.6v186.6c0 11.8-9.6 21.4-21.4 21.4h-439.2c-11.8 0-21.4-9.6-21.4-21.4v-810.2c0-11.8 9.6-21.4 21.4-21.4h810.4c11.8 0 21.4 9.6 21.4 21.4v602.2c-0.2 11.8-9.8 21.4-21.6 21.4zM128 832.6h396.6v-767.6h-67.4v152.8c0 11.8-9.6 21.4-21.4 21.4h-219.2c-11.8 0-21.4-9.6-21.4-21.4v-152.8h-67.2v767.6zM414.6 65h-176.8v131.4h176.8v-131.4zM895.6 65h-328.4v559.6h328.2v-559.6zM623.6 377.6h219.4c11.8 0 21.4 9.6 21.4 21.4v136.8c0 11.8-9.6 21.4-21.4 21.4h-219.4c-11.8 0-21.4-9.6-21.4-21.4v-136.8c0-11.8 9.6-21.4 21.4-21.4zM645 514.4h176.8v-94.2h-176.8v94.2zM289.6 303.8c11.8 0 21.4 9.6 21.4 21.4v150.2c0 11.8-9.6 21.4-21.4 21.4h-109.8c-11.8 0-21.4-9.6-21.4-21.4v-150.2c0-11.8 9.6-21.4 21.4-21.4h109.8zM201.2 454h67v-107.6h-67v107.6zM342.8 475.4v-150.2c0-11.8 9.6-21.4 21.4-21.4h109.8c11.8 0 21.4 9.6 21.4 21.4v150.2c0 11.8-9.6 21.4-21.4 21.4h-109.8c-11.8-0.2-21.4-9.6-21.4-21.4zM385.4 454h67v-107.6h-67v107.6zM623.6 128h219.4c11.8 0 21.4 9.6 21.4 21.4v136.8c0 11.8-9.6 21.4-21.4 21.4h-219.4c-11.8 0-21.4-9.6-21.4-21.4v-136.8c0-11.8 9.6-21.4 21.4-21.4zM645 264.8h176.8v-94.2h-176.8v94.2zM225.2 618.4h54.8v-54.6c0-8.8 7.2-16 16-16h60.6c8.8 0 16 7.2 16 16v54.6h54.6c8.8 0 16 7.2 16 16v60.6c0 8.8-7.2 16-16 16h-54.6v54.6c0 8.8-7.2 16-16 16h-60.6c-8.8 0-16-7.2-16-16v-54.8h-54.8c-8.8 0-16-7.2-16-16v-60.6c0-8.8 7.2-15.8 16-15.8zM241.2 678.8h54.8c8.8 0 16 7.2 16 16v54.8h28.6v-54.6c0-8.8 7.2-16 16-16h54.6v-28.6h-54.6c-8.8 0-16-7.2-16-16v-54.6h-28.6v54.6c0 8.8-7.2 16-16 16h-54.6v28.4z" />
<glyph unicode="&#xe936;" glyph-name="saude-infantil" d="M632.8 383.8c0-15.464-12.536-28-28-28s-28 12.536-28 28c0 15.464 12.536 28 28 28s28-12.536 28-28zM435.4 383.8c0-15.464-12.536-28-28-28s-28 12.536-28 28c0 15.464 12.536 28 28 28s28-12.536 28-28zM574 306.4c-0.4 0-0.6 0-1 0-20.4 0-36.4-7.2-44.6-19.6-0.8-0.8-5-3-22.2-3s-21.2 2.4-21.8 2.6c-8.6 13-24.6 20-45.8 20 0 0-0.2 0-0.2 0-20.6-1.4-59.6-20-59.6-80.8 0-73 53.4-105.4 73.6-105.4h4.6c11.8-0.2 27.8-0.6 40.4 14.8 3.2 4 4.4 4.8 4.6 5 0 0 1 0.4 4.2 0.4 3.8 0 4.8-0.2 4.6-0.2 0 0 1-0.8 3.4-4 10-14.2 22.8-16.4 33-16.4 2.4 0 4.6 0.2 6.8 0.2 2 0.2 4 0.2 6.2 0.2 20.2 0 73.6 32.4 73.6 105.4-0.2 60.8-39.2 79.4-59.8 80.8zM560 152.2c-2.6 0-5.4-0.2-7.8-0.2-9.6-0.6-9.8-0.2-11.8 2.6-9.4 13.4-17.8 17.8-34.2 17.8-16.6 0-24-5.6-33.6-17-2.4-3-4.2-3.4-15-3.2h-4.6c-8.6 1.2-42.2 23.8-42.2 73.4 0 42.8 24.8 48.2 29.4 48.8 8.6-0.2 15.2-2.4 17.6-5.8 10-14.8 30-16.8 48.4-16.8s38.6 2 48.4 16.8c2.4 3.4 9 5.8 17.6 5.8 4.8-0.6 29.4-6 29.4-48.8 0-49.6-33.6-72.2-41.6-73.4zM532.2 213.4c0-10.272-11.641-18.6-26-18.6s-26 8.328-26 18.6c0 10.272 11.641 18.6 26 18.6s26-8.328 26-18.6zM851.8 318.8c10.2 33.8 15.4 68.8 15.4 103.8 0 168.2-118 315.2-281.2 351.8-6 5-12.2 9-18.6 11.8-3.8 1.8-9.4 6.6-12.2 14.2-4 11-2 25.6 6 42.4 3.6 7.8 2.4 17-3.4 23.4s-14.8 8.8-22.8 6c-4.6-1.6-94.2-33.2-127-102.6-155-43.6-262.4-184.8-262.4-347 0-35 5.2-70 15.4-103.8-6.6-7-11.4-15.6-14-25.2-4.2-15.4-2-31.4 5.8-45l33.2-57.6c13.4-23 39.8-33.8 64.6-28.2 106.8-129.6 197.2-143.8 255.4-143 1.6 0 3 0 4.6 0 59.2 0 147.4 16.8 251.4 143 24.8-5.6 51.2 5.2 64.6 28.2l33.2 57.6c13.4 23.2 9.4 51.8-8 70.2zM510.6 813.8c-0.2-11.4 2-20.8 4.6-27.8 6.2-17 19.2-31.4 34.6-38.4 3.6-1.6 7.4-4.4 11-7.8 0 0 0.2-0.2 0.2-0.2 4-3.8 7.4-8 9.8-12 0 0 0 0 0 0 1-1.8 2-3.6 2.6-5.4 0-0.2 0.2-0.4 0.2-0.6 0.6-1.8 0.8-3.4 1-4.8 0 0 0 0 0-0.2 0-21.8-31.8-41-68-41s-68 19.2-68 41c0 2.6 0.2 5.2 0.4 7.8 0 0.8 0.2 1.8 0.4 2.6 0.2 1.6 0.4 3.2 0.8 4.8 0.2 1.2 0.6 2.4 0.8 3.6s0.6 2.2 1 3.4c0.4 1.4 1 3 1.4 4.4 11.4 32.4 42 56 67.2 70.6zM823 270l-33.2-57.6c-2.2-3.8-5.8-6.6-10.2-7.8s-8.8-0.6-12.6 1.6l-1 0.6c-9.2 5.2-20.8 3-27.4-5.4-98.4-124.8-175.6-140-232.4-139-56-0.8-133.4 14.2-231.8 139-6.6 8.4-18.2 10.6-27.4 5.2l-1-0.6c-8-4.6-18.2-1.8-22.8 6l-33.2 58c-2.2 3.8-2.8 8.2-1.6 12.6s4 8 8.2 10.4c8.8 5.2 12.8 15.8 9.6 25.4-11.8 33.8-17.6 68.8-17.6 104.2 0 134.6 83.8 252.8 207.6 298.4 0-1.4 0-3 0-4.4 0-46.8 48.6-83.6 110.6-83.6 3.8 0 7.8 0.2 11.4 0.4 56.4 4.2 99.2 39.2 99.2 83.2 0 1.4 0 3-0.2 4.4 122.8-45.6 207.6-164.4 207.6-298.4 0-35.2-6-70.4-17.6-104.2-3.4-9.6 0.6-20.4 9.6-25.4l0.4-0.2c7.6-4.6 10.4-14.8 5.8-22.8z" />
<glyph unicode="&#xe937;" glyph-name="saude-medico" d="M911.2 509c0 30.8-25.2 56-56 56s-56-25.2-56-56c0-25 16.6-46 39.2-53.2-0.4-7.6-5.4-27.6-29.4-60.6-8.4-11.8-19.4-25.2-32.6-39-31.2 25.4-65 46-101.6 61.6 60 49 95.8 123.2 95.8 201.8 0 143.6-117 260.6-260.6 260.6s-260.6-116.8-260.6-260.6c0-78.8 35.8-152.8 95.8-201.8-36.6-15.4-70.4-36.2-101.4-61.4-13.2 13.8-24.2 27.2-32.6 39-24 33.4-29 53.4-29.4 60.6 22.6 7.2 39.2 28.2 39.2 53.2 0 30.8-25.2 56-56 56s-56-25.2-56-56c0-21.6 12.4-40.2 30.4-49.6-0.8-17.2 6-38.8 20.8-64.2 45.2-77.6 172.4-198.6 329-208.8-0.4-30.6-6.4-88-33.8-108-13.4-9.8-31.6-9.8-55-0.8l-83.2 36.2c1.2 5.8 1.8 11.8 1.8 18 0 53-43.2 96.2-96.2 96.2s-96.4-43-96.4-96.2 43.2-96.2 96.2-96.2c31.8 0 59.8 15.4 77.4 39.2l84-36.6c17-6.6 32.6-9.8 47.2-9.8 18.4 0 34.8 5.2 49 15.6 45.8 33.4 51.4 109.6 51.4 142.6 156 10.4 283 131.2 328.2 208.6 14.8 25.4 21.8 47 20.8 64.2 18.2 9.2 30.6 27.8 30.6 49.4zM165 522.4c7.4 0 13.4-6 13.4-13.4s-6-13.4-13.4-13.4c-7.4 0-13.4 6-13.4 13.4s6 13.4 13.4 13.4zM222.6 78.4c-29.6 0-53.6 24-53.6 53.6s24 53.6 53.6 53.6 53.6-24 53.6-53.6c0 0 0-0.2 0-0.2l-45.2 19.8c-10.8 4.8-23.4-0.2-28-11s0.2-23.4 11-28l45-19.6c-9.6-9-22.2-14.6-36.4-14.6zM411 419.6c-1.8 4.6-5 8.4-9.2 10.8-67.8 38.8-109.8 111.4-109.8 189.2 0 120.2 97.8 218 218 218s218-97.8 218-218c0-77.8-42-150.4-109.6-189.2-3-1.8-5.8-4.4-7.6-7.4-3.4-5.6-4.2-12.6-2-18.8 2.4-6.2 7.4-11 13.6-13 44.8-13.8 86-35.8 122.8-64.8-57.4-50.2-140-98.2-235.4-98.2s-178 48-235.4 98.2c36.8 29.2 78 51 122.8 64.8 5.6 1.8 10.2 5.8 12.8 11.2 2.8 5.6 3.2 11.8 1 17.2zM855.2 522.4c7.4 0 13.4-6 13.4-13.4s-6-13.4-13.4-13.4-13.4 6-13.4 13.4c0 7.4 6 13.4 13.4 13.4z" />
<glyph unicode="&#xe938;" glyph-name="saude-planos-saude" d="M511.8 873.2c-234.6 0-425.4-190.6-425.4-425.2s190.8-425.2 425.2-425.2 425.4 190.6 425.4 425.2-190.8 425.2-425.2 425.2zM511.8 65.4c-211 0-382.6 171.6-382.6 382.6s171.6 382.6 382.6 382.6c211 0 382.6-171.6 382.6-382.6s-171.8-382.6-382.6-382.6zM725 530.8h-130.4v130.4c0 11.8-9.6 21.4-21.4 21.4h-123.2c-11.8 0-21.4-9.6-21.4-21.2l-0.2-130.4h-130.2c-11.8 0-21.4-9.6-21.4-21.4v-123.2c0-11.8 9.6-21.4 21.4-21.4h130.4v-130.4c0-11.8 9.6-21.4 21.4-21.4h123.2c11.8 0 21.4 9.6 21.4 21.4v130.4h130.4c11.8 0 21.4 9.6 21.4 21.4v123.2c-0.2 11.8-9.6 21.2-21.4 21.2zM703.6 407.8h-130.4c-11.8 0-21.4-9.6-21.4-21.4v-130.4h-80.4v130.4c0 11.8-9.6 21.4-21.4 21.4h-130.4v80.4h130c11.8 0 21.4 9.6 21.4 21.2l0.2 130.4h80.8v-130.4c0-11.8 9.6-21.4 21.4-21.4h130.4v-80.2z" />
<glyph unicode="&#xe939;" glyph-name="saude-primeiros-socorros" d="M906.2 689.2h-234.6v85.2c0 17.6-14.4 32-32 32h-266.4c-17.6 0-32-14.4-32-32v-85.2h-224c-17.6 0-32-14.4-32-32v-533c0-17.6 14.4-32 32-32h788.8c17.6 0 32 14.4 32 32v533c0.2 17.6-14.2 32-31.8 32zM383.8 763.8h245.2v-74.6h-245.2v74.6zM895.4 134.8h-767.4v511.8h767.6v-511.8zM581.2 551.4c0 11.8-9.6 21.4-21.4 21.4h-96.2c-11.8 0-21.4-9.6-21.4-21.2l-0.2-91.2h-91.2c-11.8 0-21.4-9.6-21.4-21.4v-96.4c0-11.8 9.6-21.4 21.4-21.4h91.2v-91.2c0-11.8 9.6-21.4 21.4-21.4h96.6c11.8 0 21.4 9.6 21.4 21.4v91.2h91.2c11.8 0 21.4 9.6 21.4 21.4v96.4c0 11.8-9.6 21.4-21.4 21.4h-91.2v91zM651.2 417.6v-53.8h-91.2c-11.8 0-21.4-9.6-21.4-21.4v-91.2h-53.8v91.2c0 11.8-9.6 21.4-21.4 21.4h-91.2v53.8h91.2c11.8 0 21.4 9.6 21.4 21.2l0.2 91.2h53.6v-91.2c0-11.8 9.6-21.4 21.4-21.4h91.2z" />
<glyph unicode="&#xe93a;" glyph-name="residencial-antenas" d="M922.4 160.6l-218.4 65.4c-3.2 1-6.8 1.2-10.2 0.6l-160.8-30.6v354.6l108.4-91.4c4-3.4 8.8-5 13.8-5 6 0 12 2.6 16.4 7.6 7.6 9 6.4 22.4-2.6 30l-135.8 114.6v18.8l50.6 13 158.2-133.4c4-3.4 8.8-5 13.8-5 6 0 12 2.6 16.4 7.6 7.6 9 6.4 22.4-2.6 30l-135 113.8 54 14 120.6-101.6c4-3.4 8.8-5 13.8-5 6 0 12 2.6 16.4 7.6 7.6 9 6.4 22.4-2.6 30l-97.4 82.2 53.2 13.6 78.8-66.4c4-3.4 8.8-5 13.8-5 6 0 12 2.6 16.4 7.6 7.6 9 6.4 22.4-2.6 30l-56 47.2c9.2 4.2 14.4 14.4 11.8 24.6-3 11.4-14.6 18.2-26 15.4l-25.4-6.6-77 65c-9 7.6-22.4 6.4-30-2.6s-6.4-22.4 2.6-30l53.8-45.4-53.2-13.6-120.6 101.6c-9 7.6-22.4 6.4-30-2.6s-6.4-22.4 2.6-30l97.4-82-54-14-158.8 134c-9 7.6-22.4 6.4-30-2.6s-6.4-22.4 2.6-30l135.6-114.4-67.6-17.4-129.6 109.4c-9 7.6-22.4 6.4-30-2.6s-6.4-22.4 2.6-30l106.6-89.8-70.2-18-109.8 92.4c-9 7.6-22.4 6.4-30-2.6s-6.4-22.4 2.6-30l86.6-73-66.4-17-78.4 66c-9 7.6-22.4 6.4-30-2.6s-6.4-22.4 2.6-30l55.2-46.4-2.8-0.8c-11.4-3-18.2-14.6-15.4-26 2.4-9.6 11.2-16 20.6-16 1.8 0 3.6 0.2 5.4 0.6l32.2 8.2 80.6-68c4-3.4 8.8-5 13.8-5 6 0 12 2.6 16.4 7.6 7.6 9 6.4 22.4-2.6 30l-58.8 48.2 66.4 17 100.8-85c4-3.4 8.8-5 13.8-5 6 0 12 2.6 16.4 7.6 7.6 9 6.4 22.4-2.6 30l-77.6 65.4 70.2 18 25.2-21.2v-398.6l-387.8-74c-11.6-2.2-19.2-13.4-17-25 2-10.2 10.8-17.4 21-17.4 1.4 0 2.6 0.2 4 0.4l405.2 77.6c0 0 0 0 0 0l180.6 34.4 213.4-64c11.2-3.4 23.2 3 26.6 14.2 3.4 11.6-3 23.4-14.2 26.8z" />
<glyph unicode="&#xe93b;" glyph-name="residencial-assist" d="M814.4 281.4c-24.6-23-68.4-56.2-102-66.4-2 27.6-14 45.2-25.2 56-43 40.6-125.8 31.8-157.4 26.6-72.8 68.6-169.4 75.8-213.8 75v33.2c0 11.8-9.6 21.4-21.4 21.4h-191.8c-11.8 0-21.4-9.6-21.4-21.4v-338.8c0-11.8 9.6-21.4 21.4-21.4h191.8c11.8 0 21.4 9.6 21.4 21.4v32.4c23.2-12.8 57-29.4 98-44 58.2-20.6 114.6-31 167.8-31 40.8 0 79.4 6.2 115.2 18.4 6.8 2.2 166.6 57 219.8 142.2 22.4 35.8 21.2 71.6-3 96-27.6 27.4-72.4 27.4-99.4 0.4zM273.4 88.4h-149.2v296.2h149.2v-296.2zM880.6 207.6c-45.2-72.4-195.8-124-197.4-124.4-155.4-53.4-325.8 40.4-367 65.6v181.2c38.8 0.6 129.2-5.6 191.4-70.2 5.2-5.2 12.6-7.6 19.8-6 24.6 5.2 101.4 14 130.6-13.8 7.2-6.8 11.2-16 12-27.8h-233.8c-11.8 0-21.4-9.6-21.4-21.4s9.6-21.4 21.4-21.4h249.2c0.4 0 1 0 1.4 0 1-0.2 2.2-0.2 3.2-0.2 0.6 0 1 0.2 1.6 0.2 63-1 142.8 72.2 152.4 81.4 10.8 10.8 28.6 10.8 39.4 0 13-12.8 3.8-32.6-2.8-43.2zM223 146c0-13.365-10.835-24.2-24.2-24.2s-24.2 10.835-24.2 24.2c0 13.365 10.835 24.2 24.2 24.2s24.2-10.835 24.2-24.2zM456.4 708c-11.8 0-21.4-9.6-21.4-21.4v-204.2c0-25.6 20.8-46.6 46.6-46.6h351.8c25.6 0 46.6 20.8 46.6 46.6v204.4c0 11.8-9.6 21.4-21.4 21.4s-21.4-9.6-21.4-21.4v-204.2c0-2.2-1.8-4-4-4h-351.6c-2.2 0-4 1.8-4 4v204.2c0.2 11.6-9.4 21.2-21.2 21.2zM933.6 714.4l-94.6 62.4v78.8c0 11.8-9.6 21.4-21.4 21.4h-71.8c-11.8 0-21.4-9.6-21.4-21.4v-6.6c-6.6 4.2-14 9-22.2 14.4-44.4 29.6-88.6 1.4-90.4 0.2l-232.2-149.2c-10-6.4-12.8-19.6-6.4-29.4 4-6.4 11-9.8 18-9.8 4 0 8 1 11.6 3.4l232 149.2c1 0.6 23.2 14 43.8 0.2 33.4-22.2 55.6-35 56.6-35.6 6.6-3.8 14.6-3.8 21.2 0s10.6 10.8 10.6 18.4v23.6h29.2v-69c0-7.2 3.6-13.8 9.6-17.8l104.2-68.6c9.8-6.4 23-3.8 29.6 6 6.6 9.6 3.8 23-6 29.4z" />
<glyph unicode="&#xe93c;" glyph-name="residencial-bens" d="M651.4 484.6v13c0 3.4-2.8 6.4-6.4 6.4h-27.8l-0.2 1.6c-7 41.6-35 69.4-69.8 69.4h-71.8c-35.4 0-64.2-28.8-70-69.8l-0.2-1.2h-27.8c-3.4 0-6.4-2.8-6.4-6.4v-13c0-3.4 2.8-6.4 6.4-6.4h14.4c-9.8-11.4-15.8-26-15.8-41.8v-36.8c0-17.4 7.6-32.2 21.4-41.6 3-18.8 19.4-33.4 39.2-33.4h6.6c18.2 0 32.8 8.8 39.4 22.6h57.4c6.6-13.8 21-22.6 39.4-22.6h3.4c20.2 0 37.2 14 41.6 32.8 14.2 9.4 22 24.2 22 42v36.8c0 15.8-6.2 30.4-16.2 41.8h14.8c3.4 0.2 6.4 3.2 6.4 6.6zM475.2 543h71.8c21.6 0 34.8-21.4 38.2-42.2-0.2 0-0.4 0-0.6 0l-28.6 2.6c-33.4 3-63.4 3-97-0.4l-22.2-2.2c3.2 20.4 16.2 42.2 38.4 42.2zM614.4 399.8c0-8.2-3.8-14-11.4-17.4-5.8-2.6-9.4-8.2-9.4-14.6 0-6-4.8-11-11-11h-3.4c-3.2 0-10.8 0.8-11.2 7.2-0.4 8.6-7.4 15.2-16 15.2h-82c-8.6 0-15.6-6.8-16-15.2-0.2-6.6-7.8-7.2-11.2-7.2h-6.6c-4.2 0-7.8 3.4-7.8 7.8v3.2c0 6.2-3.6 12-9.4 14.6-7.6 3.4-11.4 9.2-11.4 17.4v36.8c0 16.6 14 31 31.4 32.4l23 2.2c31.4 3 59.6 3.2 91 0.4l28.8-2.6c0 0 0.2 0 0.2 0 18.2-1.4 32.2-15.6 32.2-32.4v-36.8zM468.4 423.6c0-11.046-8.954-20-20-20s-20 8.954-20 20c0 11.046 8.954 20 20 20s20-8.954 20-20zM594 423.6c0-11.046-8.954-20-20-20s-20 8.954-20 20c0 11.046 8.954 20 20 20s20-8.954 20-20zM722 530.8c-8.8 0-16-7.2-16-16v-212.8c0-5.6-4.8-10.4-10.4-10.4h-366.8c-5.6 0-10.4 4.8-10.4 10.4v212.8c0 8.8-7.2 16-16 16s-16-7.2-16-16v-212.8c0-23.4 19-42.4 42.4-42.4h366.8c23.4 0 42.4 19 42.4 42.4v212.8c0 9-7.2 16-16 16zM796.6 538.6l-101.4 66.8v85.6c0 8.8-7.2 16-16 16h-75c-8.8 0-16-7.2-16-16v-18.2c-9 5.6-20.2 12.8-32.8 21.2-42.8 28.6-85.8 1.2-87.4 0.2l-242-155.6c-7.4-4.8-9.6-14.6-4.8-22 3-4.8 8.2-7.4 13.4-7.4 3 0 6 0.8 8.6 2.6l242 155.6c1 0.8 27.4 17 52.4 0.2 34.6-23 57.6-36.2 58.6-36.8 5-2.8 11-2.8 16 0s8 8.2 8 13.8v30.4h43v-78.2c0-5.4 2.8-10.4 7.2-13.4l108.6-71.6c7.4-4.8 17.2-2.8 22.2 4.6 4.8 7.4 2.8 17.2-4.6 22.2zM873.6 771.8c-4.6 4-10.8 5.8-17 5-90.2-12.4-173 0.4-246 38.2-54.6 28.2-83 60.8-83.2 61-3.8 4.6-9.4 7.2-15.4 7.4s-11.6-2-15.8-6.2c-134.4-133.4-326.8-101-329.6-100.6-6.2 1.2-12.6-0.6-17.4-4.6s-7.6-10-7.6-16.4v-353c0-203 345.2-381.8 360-389.4 3-1.6 6.4-2.4 9.6-2.4 3.4 0 6.6 0.8 9.6 2.4 14.6 7.6 360 186.2 360 389.4v353c0 6.2-2.6 12-7.2 16.2zM838.2 402.6c0-90.6-90-180.6-165.6-240.2-67.8-53.4-136.6-92.6-161.4-106-24.8 13.4-93.2 52.2-161 105.6-75.8 59.6-166 149.8-166 240.6v329c58.6-5.2 207-5.6 326.6 100.8 38.8-35.8 148.4-117.2 327.6-100.6v-329.2z" />
<glyph unicode="&#xe93d;" glyph-name="residencial-chaveiro" d="M305.4 736.4c-45.4 0-82.2-36.8-82.2-82.2s36.8-82.2 82.2-82.2 82.2 36.8 82.2 82.2-36.8 82.2-82.2 82.2zM305.4 614.6c-21.8 0-39.6 17.8-39.6 39.6s17.8 39.6 39.6 39.6c21.8 0 39.6-17.8 39.6-39.6s-17.8-39.6-39.6-39.6zM931.6 231.4l-318.6 318.6c4.2 18.8 6.2 38 6.2 57.4 0 147.2-119.8 267-267 267s-267-119.8-267-267 119.8-267 267-267c17.4 0 34.8 1.6 51.8 5l92.6-92.6c1.8-1.8 4-3.2 6.2-4.4l77-35 18.6-69.6c2-7.2 7.4-12.8 14.4-15l94.2-28.4 15.6-62.8c2.4-9.4 10.8-16.2 20.6-16.2h173.4c11.8 0 21.4 9.6 21.4 21.4v173.2c-0.2 6-2.4 11.4-6.4 15.4zM895.2 64.4h-135.2l-14.6 58.4c-1.8 7.2-7.4 13-14.6 15.2l-94.4 28.6-18 67.8c-1.6 6.2-6 11.2-11.8 14l-82.8 37.6-98 98c-5.2 5.2-12.8 7.4-19.8 5.8h-0.2c0 0-0.2 0-0.2 0-17.4-4.2-35.4-6.4-53.4-6.4-123.8 0-224.4 100.6-224.4 224.4s100.6 224 224.4 224 224.4-100.6 224.4-224.4c0-19.8-2.6-39.4-7.6-58.2-2.2-7.4 0-15.4 5.4-21l321-321v-142.8z" />
<glyph unicode="&#xe93e;" glyph-name="residencial-cobertura" d="M801.6 537.6c-0.8 0.4-1.6 0.8-2.4 1.2l-278.8 144.4c-6.2 3.2-13.4 3.2-19.6 0l-279-144.6c-9.4-4.8-13.6-15.8-10.4-25.6v-334.4c0-8.2 4.6-15.6 12-19.2l278.8-136.6c0.8-0.4 1.6-0.6 2.4-0.8 0.6-0.2 1-0.4 1.6-0.6 1.8-0.4 3.6-0.8 5.4-0.8 0 0 0 0 0 0s0 0 0 0c1.8 0 3.6 0.2 5.4 0.8 0.6 0.2 1 0.4 1.6 0.6 0.8 0.2 1.6 0.4 2.4 0.8l278.8 136.6c7.4 3.6 12 11 12 19.2v340.8c0 7.4-3.8 14.2-10.2 18.2zM510.6 640.2l232.2-120.2-92.6-45.4-229.6 119 90 46.6zM511.8 406.6l-232.2 113.8 94.6 49 228.4-118.4-90.8-44.4zM254 485.4l236.2-115.8v-293.4l-236.2 115.6v293.6zM769 192l-236.2-115.8v293.4l236.2 115.8v-293.4zM934.2 624.6c-119 216.4-316.2 248.6-423.2 248.6s-304.2-32.4-423.2-248.6c-5.6-10.4-2-23.2 8.4-29 10.4-5.6 23.2-2 29 8.4 108.4 197.2 288.2 226.6 385.8 226.6s277.4-29.4 385.8-226.6c3.8-7 11.2-11 18.8-11 3.4 0 7 0.8 10.2 2.6 10.2 5.8 14 18.6 8.4 29z" />
<glyph unicode="&#xe93f;" glyph-name="residencial-descarte" d="M579.6 602c-11.4 2.6-23-4.6-25.6-16s4.6-22.8 16-25.4l124.8-28.2c1.6-0.4 3-0.4 4.6-0.6 0 0 0.2 0 0.2 0 1.8 0 3.8 0.2 5.6 0.8 0.6 0.2 1.2 0.6 1.8 0.8 1 0.4 2.2 0.8 3.2 1.4 0.2 0 0.2 0.2 0.4 0.2 0 0 0.2 0 0.4 0.2 0.6 0.4 1 0.8 1.4 1.2 0.6 0.4 1 0.8 1.6 1.2s1 1 1.4 1.4c0.4 0.6 1 1 1.4 1.6s0.6 1 1 1.6c0.4 0.6 0.8 1.2 1 1.8s0.4 1.2 0.6 1.8c0.2 0.6 0.6 1.4 0.6 2 0 0.2 0.2 0.2 0.2 0.4l28.2 124.8c2.6 11.4-4.6 22.8-16 25.4s-23-4.6-25.6-16l-16.2-71.6-132.4 229.8c-10.2 17.8-28.6 28.4-49.2 28.4 0 0 0 0 0 0-20.6 0-38.8-10.6-49.2-28.4l-86.8-150.6c-5.8-10.2-2.4-23.2 7.8-29.2s23.2-2.4 29.2 7.8l87 150.6c3.6 6.4 9.8 7 12.2 7v0c2.4 0 8.6-0.6 12.2-7l135.6-234.8-77.4 17.6zM930.4 199.6l-87.6 150.4c-6 10.2-19 13.6-29.2 7.8-10.2-6-13.6-19-7.8-29.2l87.4-150.2c3.6-6.4 1.2-12 0-14.2s-4.8-7-12.2-7.2l-270.8-1 53.6 58.4c8 8.6 7.4 22.2-1.2 30.2-8.8 8-22.2 7.4-30.2-1.2l-86.6-94.4c-0.4-0.4-0.6-0.8-0.8-1.2-0.4-0.6-1-1.2-1.4-1.8s-0.6-1.2-1-1.8c-0.4-0.6-0.6-1.2-0.8-1.8s-0.4-1.4-0.6-2c-0.2-0.6-0.4-1.2-0.4-2-0.2-0.8-0.2-1.6-0.2-2.4 0-0.4-0.2-1-0.2-1.4 0-0.2 0-0.2 0-0.4 0-0.8 0.2-1.6 0.2-2.4 0-0.6 0.2-1.2 0.2-1.8 0.2-0.8 0.4-1.4 0.6-2s0.4-1.2 0.6-1.8c0.2-0.6 0.6-1.2 1-1.8s0.6-1.2 1-1.8c0.4-0.6 0.8-1 1.2-1.4 0.6-0.6 1-1.2 1.6-1.8 0.2-0.2 0.2-0.2 0.2-0.4l94.4-86.6c4.2-3.8 9.2-5.6 14.4-5.6 5.8 0 11.6 2.4 15.8 7 8 8.6 7.4 22.2-1.2 30.2l-54.4 49.4 265.4 1c20.6 0 38.8 10.8 49 28.6 10.4 17.6 10.2 39 0 56.6zM316.2 146.8l-173.8-2.6c-7.6 0.2-11 4.8-12.4 6.8-1.2 2.2-3.8 7.6-0.2 14.2l132 237 24.6-75.4c3-9 11.2-14.8 20.2-14.8 2.2 0 4.4 0.4 6.6 1 11.2 3.6 17.2 15.8 13.6 26.8l-39.8 121.6c-0.2 0.4-0.4 0.8-0.6 1.4-0.2 0.8-0.6 1.4-1 2.2-0.4 0.6-0.6 1.2-1 1.6-0.4 0.6-0.8 1.2-1.2 1.8s-0.8 1-1.4 1.4c-0.6 0.6-1 1-1.6 1.6-0.6 0.4-1.2 0.8-1.8 1.2-0.4 0.4-0.8 0.6-1.4 1-0.2 0-0.2 0.2-0.4 0.2-0.6 0.4-1.2 0.6-2 0.8-0.6 0.2-1.4 0.6-2 0.8s-1.2 0.2-1.8 0.4c-0.8 0.2-1.4 0.4-2.2 0.4-0.6 0-1.2 0-2 0s-1.4 0-2.2 0c-0.6 0-1.2-0.2-1.8-0.4-0.8-0.2-1.4-0.2-2.2-0.4-0.2 0-0.2 0-0.4 0l-121.6-39.8c-11.2-3.6-17.2-15.8-13.6-26.8 3.6-11.2 15.8-17.4 27-13.6l69.8 22.8-129-232.2c-10-18-9.6-39.2 0.8-56.8 10.4-17.4 28.6-27.6 48.6-27.6 0.4 0 0.6 0 1 0l173.8 2.6c11.8 0.2 21.2 9.8 21 21.6-0.2 12-9.4 21.4-21.6 21.2z" />
<glyph unicode="&#xe940;" glyph-name="residencial-eletricista" d="M937 693.4c0 100.8-82 182.6-182.6 182.6-72.2 0-135-41.4-164.6-103.4l-49.8 92.2c-3.8 6.8-11 11.2-18.8 11.2h-242c-7.8 0-14.8-4.2-18.6-11s-3.6-15 0.4-21.6l129.4-209.4c-31.2 19.4-67.6 30.4-105.4 30.4-110.2 0-199.6-89.6-199.6-199.6 0-39 11.6-77.4 33-110-37.6-41-41.8-104.2-7-150l52.4-69c4.2-5.6 10.6-8.4 17-8.4 4.4 0 9 1.4 12.8 4.4 0.2 0 0.2 0.2 0.2 0.2l9 6.8 51.6-68c4.2-5.6 10.6-8.4 17-8.4 4.4 0 9 1.4 12.8 4.4 9.4 7.2 11.2 20.4 4 29.8l-51.6 68 66 50.2 51.6-68c4.2-5.6 10.6-8.4 17-8.4 4.4 0 9 1.4 12.8 4.4 9.4 7.2 11.2 20.4 4 29.8l-51.6 68 9.2 7c0.2 0 0.2 0.2 0.4 0.2 9.4 7.2 11.2 20.4 4 29.8l-52.4 69c-34.6 45.4-96 58.6-145.4 34-16 25-24.6 54.4-24.6 84.2 0 86.6 70.4 157 157 157 46 0 89.2-20.6 118.8-54.4l-148.2 17.2c-8.6 1-17-3.2-21.2-10.8s-3.4-17 2-23.6l417.6-518.2c4.2-5.2 10.4-8 16.6-8 3.6 0 7.4 1 10.8 3 9.2 5.4 13 16.6 9 26.4l-145.4 358.6 221.4-37.8c8.2-1.4 16.2 2 21 8.6s5.4 15.4 1.4 22.6l-58 107.2c8-1 16-1.8 24-1.8 100.6 0 182.6 81.8 182.6 182.6zM264 320.6l39.4-52-118.6-90.2-39.4 52c-24.8 32.8-18.4 79.6 14.2 104.4 32.6 25 79.6 18.6 104.4-14.2zM514 460.4c-7.6 1.4-15.4-1.6-20.2-7.6s-6-14.2-3.2-21.4l105.6-260.2-294 365 170.2-19.8c8-1 16 2.8 20.4 9.8 4.4 6.8 4.4 15.6 0.2 22.6l-175.6 284.6h191l221.6-410-216 37zM617.2 721.6c13.2 65.2 69.8 111.8 137.2 111.8 77.2 0 140-62.8 140-140s-62.8-140-140-140c-17.8 0-35.2 3.4-51.6 10l-85.6 158.2zM826.6 637.4c11.8 0 21.2 9.6 21.2 21.2v69.4c0 11.8-9.6 21.2-21.2 21.2-11.8 0-21.2-9.6-21.2-21.2v-69.2c-0.2-11.8 9.4-21.4 21.2-21.4zM682 749.4c-11.8 0-21.2-9.6-21.2-21.2v-69.2c0-11.8 9.6-21.2 21.2-21.2 11.8 0 21.2 9.6 21.2 21.2v69c0 11.8-9.6 21.4-21.2 21.4zM776.4 768.4c0-12.15-9.85-22-22-22s-22 9.85-22 22c0 12.15 9.85 22 22 22s22-9.85 22-22zM776.4 618c0-12.15-9.85-22-22-22s-22 9.85-22 22c0 12.15 9.85 22 22 22s22-9.85 22-22z" />
<glyph unicode="&#xe941;" glyph-name="residencial-encanador" d="M305.4 699.8c29.6-5.8 74.8 0 138 18 17.4-18.8 41.8-29.6 67.8-29.6 25.8 0 50.2 10.8 67.6 29.4 62.8-17.8 107.6-23.6 137.2-17.8 21.8 4.4 40.6 17.4 52.8 37 13 20.8 16.8 46.4 10.4 70.2-11.4 43-53 68.2-103.8 62.6-21.2-2.4-54.6-10-99.4-22.6-17.2 16.8-40.6 26.6-65 26.6-24.6 0-48-9.8-65.2-26.8-45.2 12.8-79 20.4-100.2 22.8-50.6 5.6-92.2-19.4-103.8-62.6-6.4-23.8-2.6-49.4 10.4-70.2 12.4-19.6 31.2-32.8 53.2-37zM283.2 796c7.2 27 35.6 33.6 57.8 31.2 20.6-2.2 57.2-11 106-25 6.8-2 14.4-0.2 19.8 4.4 1.4 1.2 2.6 2.4 3.8 4 9.4 13 24.6 20.6 40.6 20.6s31.2-7.8 40.6-20.6c4-5.4 10.6-8.6 17.2-8.8 2.2 0 4.2 0.2 6.4 0.8 48.2 14 84.6 22.4 105 24.8 22 2.4 50.6-4.2 57.8-31.2 3.4-12.4 1.4-25.8-5.4-36.8-5.8-9.4-14.8-15.6-25-17.8-13.6-2.6-48.8-3.6-130.6 20.8-9 2.6-19.2-1.6-24.4-9.4-9.4-13.8-24.8-22.2-41.6-22.2s-32.6 8.4-41.8 22.6c-0.6 1-1.4 2-2.2 2.8l-0.6 0.6c-4 4.4-9.8 6.8-15.6 6.8-2 0-4-0.2-6.2-0.8-82.4-24.6-117.6-23.8-131.4-21-10.2 2-19 8.4-25 17.8-6.6 10.4-8.6 23.8-5.2 36.4zM781.4 593h-117c-10.2 21.2-24.8 40.4-43 55.8-3.8 3.2-8.8 5.2-13.8 5.2h-193.4c0 0 0 0 0 0-5 0-10-1.8-13.8-5.2-18-15.4-32.8-34.6-43-55.8h-251c-11.8 0-21.4-9.6-21.4-21.4v-140.2c0-11.8 9.6-21.4 21.4-21.4h274c32.2-38.4 80.2-61 130.4-61 51.6 0 100.4 23.6 132.8 63.8h77.4c8.8 0 15.8-7 15.8-15.8v-100.2c0-11.8 9.6-21.4 21.4-21.4s21.4 9.6 21.4 21.4v100.2c0 32.2-26.2 58.4-58.4 58.4h-88c-7 0-13.6-3.6-17.6-9.4-24-34.2-63-54.4-104.6-54.4-40.4 0-78.8 19.4-102.4 51.6-4 5.8-10.6 9.4-17.6 9.4h-263.2v97.6h243.8c9 0 17 5.6 20 14 6.6 17.8 17.4 33.8 31 47h177c13.6-13 24-29 30.4-45.8 2.8-9 11-15.2 20.4-15.2h131.2c62.6 0 113.4-50.8 113.4-113.4v-140c0-11.8 9.6-21.4 21.4-21.4s21.4 9.6 21.4 21.4v140c-0.4 86.2-70.4 156.2-156.4 156.2zM851.8 269c0 0 0 0.2 0 0-6.6 6.8-17 8.4-25.4 4-7.2-3.8-98.2-90.8-79.6-181.6 4.8-23.2 19-43.2 39.8-56 15-9.2 32.4-14 49.8-14 8.4 0 17 1.2 25.2 3.4 45.8 12.6 72.4 57.4 65.8 111.6-8.2 70.6-64.6 123-75.6 132.6zM850.4 66c-14-3.8-29.2-1.8-41.6 5.8-10.8 6.6-18 16.6-20.4 28.2-9.8 47.4 26.6 99.6 48 124.2 17-18 43.8-52.4 48.8-92.8 3-24.8-4.2-57-34.8-65.4z" />
</font>
</defs>
</svg>
