<?xml version="1.0" encoding="utf-8"?>
<!-- Generator: Adobe Illustrator 21.1.0, SVG Export Plug-In . SVG Version: 6.00 Build 0)  -->
<svg version="1.1" id="Layer_1" xmlns="http://www.w3.org/2000/svg" xmlns:xlink="http://www.w3.org/1999/xlink" x="0px" y="0px"
	 viewBox="0 0 347.1 142.2" style="enable-background:new 0 0 347.1 142.2;" xml:space="preserve">
<style type="text/css">
	.st0{fill:#CC092F;}
	.st1{fill:#FFFFFF;}
	.st2{fill:#4D4E53;}
</style>
<g>
	<path class="st0" d="M104.9,111.3H42.6c0,0-18.1,0-18.1-18.1V30.9h62.3c0,0,18.1,0,18.1,18.1V111.3L104.9,111.3L104.9,111.3z"/>
	<path class="st1" d="M105.7,112.1H42.6c-0.2,0-18.9-0.2-18.9-18.9V30.1h63.1c0.2,0,18.9,0.2,18.9,18.9V112.1z M25.2,31.6v61.6
		c0,17.2,16.7,17.4,17.4,17.4h61.6V49c0-17.2-16.7-17.4-17.4-17.4H25.2z"/>
	<polygon class="st1" points="61.1,100 57.1,100 57.1,79.7 61.1,79.7 	"/>
	<polygon class="st1" points="71.2,100 64.7,100 64.7,72.2 71.2,72.2 	"/>
	<path class="st1" d="M53.6,52.8c0,0,6.5-6.4,17.6-4.3c0,0,4.9,0.8,8.6,4.1c0,0,0.6,0.5,1,0.1c0,0,0.5-0.4-0.1-1.1
		c0,0-3.2-4.4-9.5-6.4c0,0-8.7-3.1-17.6,1.1c0,0-5.5,2.3-8.5,8.5c0,0-4.3,1.4-7.6,3.2c0,0-1,0.4-0.6,1.1c0,0,0.3,0.5,1.1,0.1
		c0,0,3-1,5.9-1.7c0,0-2.3,6.1,0.1,13.6c1.1,3.4,3.1,6.8,6.1,9.5c0,0,0.5,0.5,1,0.2c0,0,0.5-0.3,0.1-0.9c0,0-2.4-3.6-3.4-8.8
		c-0.8-4.2-0.4-10,2.5-14.7c0,0,11.2-1.6,20.7,2c0,0,16.2,5.3,12.1,15c0,0-1.2,3.4-5.6,6.5c0,0-0.7,0.4-0.3,1.1c0,0,0.3,0.5,1.1,0.2
		c0,0,6.8-2.2,9.8-7.7c0,0,6-9.1-8.1-16.6c0,0-3.9-2.1-8.9-3.2C71.1,53.7,62.1,51.5,53.6,52.8"/>
	<g>
		<path class="st2" d="M296.4,60.1c-0.1-0.3-0.2-0.5-0.2-0.5c-0.1,0-0.3,0.1-0.4,0.2c-0.7,0.4-2,0.9-3.8,0.9c-3.4,0-6.4-2.6-6.4-6.9
			c0-4.6,2.5-7.1,6-7.1c1.9,0,3.2,0.5,4.5,1.3c0.6-2.1,1.6-4.1,2.8-5.8c-0.5-0.4-1.3-0.9-2.4-1.4l0,0c-1.7-0.8-3.6-1.2-5.7-1.2
			c-7.6,0-13.4,5.1-13.4,14c0,8.8,5.8,13.9,13.4,13.9c3.7,0,6.5-1.2,6.5-1.2c0.6-0.2,1.6-0.7,2-0.9
			C297.5,63.1,296.7,60.9,296.4,60.1"/>
		<path class="st2" d="M122.8,31.2h14.9c5.7,0,10,2.9,10,9.1c0,4.5-2,7-5.4,8.3v0.1c4.1,1,6.2,3.5,6.2,7.9c0,8.6-6.5,10.3-12,10.3
			h-13.7L122.8,31.2L122.8,31.2L122.8,31.2z M131,60.2h3.1c3,0,6.1-0.5,6.1-4.2c0-3.9-3.2-4.2-6-4.2H131L131,60.2L131,60.2L131,60.2
			z M131,45.4h3c2.7,0,5.5-0.8,5.5-3.8c0-3.3-2.6-3.6-5.4-3.6H131V45.4L131,45.4L131,45.4z"/>
		<path class="st2" d="M223.7,67h-7.3v-4h-0.1c-1.5,3-4.5,4.6-7.9,4.6c-6.8,0-10.5-6.6-10.5-14.4c0-6.6,3.5-13.5,9.8-13.5
			c3.2,0,5.8,1,7.9,4.1h0.1V31.1h8V67L223.7,67L223.7,67z M211,60.5c2.6,0,4.8-2.9,4.8-6.8c0-4.1-1.9-7-4.8-7
			c-3.1,0-4.8,3.1-4.8,6.6C206.2,57.6,208,60.5,211,60.5"/>
		<path class="st2" d="M300.2,53.7c0-8.9,5.8-14,13.4-14s13.3,5.1,13.3,14c0,8.8-5.8,13.9-13.3,13.9C306,67.6,300.2,62.5,300.2,53.7
			L300.2,53.7L300.2,53.7z M318.7,53.7c0-4-1.5-7.5-5.1-7.5c-3.7,0-5.2,3.5-5.2,7.5c0,3.9,1.5,7.5,5.2,7.5
			C317.2,61.1,318.7,57.6,318.7,53.7"/>
		<path class="st2" d="M194.3,67c-0.4-2.1-0.4-4.2-0.4-6.3v-9.9c0-8.1-5.1-11.1-10.9-11.1c-3.3,0-6.3,0.6-9,1.8v6.2v0.1
			c2.2-1.4,4.8-2,7.3-2c2.9,0,5.2,1,5.2,4.6c-1-0.2-2.4-0.4-3.7-0.4c-4.2,0-11.9,1-11.9,9.1c0,5.8,4.1,8.4,8.6,8.4
			c3,0,5.6-1.4,7-4.1V67H194.3L194.3,67L194.3,67z M186.5,58.5c-1,1.8-2.8,2.8-4.9,2.8c-1.8,0-3.3-1.1-3.3-2.9
			c0-2.6,2.1-3.5,4.8-3.5c1.2,0,2.4,0.1,3.4,0.1V58.5L186.5,58.5L186.5,58.5z"/>
		<path class="st2" d="M167,39.7c-3.4,0-5.4,2.2-6.8,5.5h-0.1v-4.9h-7.2V67h7.9V55.7c0-5.2,2-8.4,5.7-8.6c0.8-0.1,2,0.2,2.7,0.4
			v-7.4C168.6,39.8,167.7,39.7,167,39.7"/>
		<path class="st2" d="M251.7,54.6c0-7.9-3.1-15-11.6-15c-7.1,0-12.3,5.1-12.3,13.9s5.8,14,13.4,14c3,0,5.9-0.5,8.4-1.7v-6.5
			c-2.4,1.5-4.8,2-7,2c-3.9,0-6.3-1.4-6.7-5.1h15.9L251.7,54.6L251.7,54.6L251.7,54.6z M235.8,51.1c0.2-3.1,1.5-5.6,4.4-5.6
			c3.2,0,4.4,2.5,4.4,5.6H235.8L235.8,51.1L235.8,51.1z"/>
		<path class="st2" d="M265,39.7c-4.6,0-9.8,2.5-9.8,8.7c0,9.6,11.3,6.5,11.3,11c0,1.8-1.6,2.1-3.2,2.1c-2.9,0-5.6-0.9-7.4-1.8V66
			c2.1,0.9,4.5,1.6,7.9,1.6c5.2,0,10.7-1.8,10.7-8.9c0-10.1-11.8-6.9-11.8-11c0-1.5,2-1.9,3.7-1.8c1.8,0,4.7,0.8,6.3,2v-6.6
			C270.2,40.2,267.6,39.7,265,39.7"/>
		<path class="st2" d="M138.6,84.3c-2.2-0.9-3.4-1.3-5.6-1.3c-2.4,0-5.2,0.9-5.2,4.1c0,6,12.9,4.6,12.9,14.9c0,6.7-4.9,9.3-11,9.3
			c-2.1,0-4.2-0.6-6.1-1.3l0.4-4.2c1.5,0.6,4,1.5,6.2,1.5c2.4,0,5.9-1.4,5.9-5.1c0-7-12.9-5.1-12.9-14.8c0-5.6,4.2-8.5,9.6-8.5
			c2,0,4.3,0.4,6.4,1.1L138.6,84.3L138.6,84.3L138.6,84.3z"/>
		<path class="st2" d="M162.7,109.9c-1.5,0.6-3.3,1.5-6.9,1.5c-7.8,0-11.3-4.9-11.3-12.3c0-6.8,4.1-11.5,10.3-11.5
			c7.3,0,9.7,5.6,9.7,12.9h-15.7c0,4.5,3.4,7.6,7.2,7.6c2.7,0,5.8-1.4,6.8-2.3v4.1L162.7,109.9L162.7,109.9z M160.1,97.2
			c0-3.5-2-6.3-5.5-6.3c-4,0-5.6,3.4-5.9,6.3H160.1L160.1,97.2L160.1,97.2z"/>
		<path class="st2" d="M189,109.9c0,6.9-3.4,10.9-11.3,10.9c-2.3,0-4.3-0.3-7.9-1.6l0.4-3.9c3.1,1.5,4.9,2.1,7.9,2.1
			c4.3,0,6.8-3,6.8-7.8v-2.2l0,0c-1.7,2.4-4.6,3.5-7.3,3.5c-6.3,0-9.4-5.3-9.4-11.2c0-5.9,3.2-12.1,9.8-12.1c3.9,0,6,1.5,7.2,3.9
			h0.1V88h3.7L189,109.9L189,109.9L189,109.9z M185,99.7c0-4.7-2.1-8.8-6.4-8.8c-4.1,0-6.1,4.6-6.1,8.5c0,4.3,2.3,8.1,6.1,8.1
			S185,104,185,99.7"/>
		<path class="st2" d="M214.7,110.8h-3.9v-3.6h-0.1c-1.2,2.6-4.1,4.2-7.2,4.2c-5.7,0-8.2-3.7-8.2-9.8V88h4v11.8
			c0,5.3,1.1,7.9,4.6,8.1c4.6,0,6.7-3.9,6.7-9.4V88h4v22.8H214.7L214.7,110.8z"/>
		<path class="st2" d="M221.1,88h3.8v3.5h0.1c1.1-2.4,3.4-4.1,5.7-4.1c1.2,0,1.8,0.1,2.7,0.3v3.8c-0.7-0.3-1.5-0.4-2.2-0.4
			c-3.6,0-6,3.6-6,9.3v10.4h-4V88H221.1L221.1,88z"/>
		<path class="st2" d="M246.6,87.5c6.7,0,11.1,5,11.1,11.9c0,6.5-4.6,11.9-11.1,11.9c-6.6,0-11.2-5.4-11.2-11.9
			C235.4,92.5,239.9,87.5,246.6,87.5L246.6,87.5L246.6,87.5z M246.6,108c4.7,0,6.8-4.5,6.8-8.6c0-4.3-2.5-8.5-6.8-8.5
			s-6.9,4.2-6.9,8.5C239.8,103.5,241.9,108,246.6,108"/>
		<path class="st2" d="M261.3,106.4c1.6,1.1,3.9,1.6,5,1.6c1.8,0,4.1-0.8,4.1-3.3c0-4.2-9.5-3.8-9.5-10.2c0-4.7,3.4-7,7.7-7
			c1.9,0,3.4,0.4,5,0.9l-0.3,3.7c-0.9-0.6-3.3-1.2-4.3-1.2c-2.1,0-3.9,0.9-3.9,2.8c0,4.7,9.5,3.3,9.5,10.6c0,4.9-3.7,7.1-7.7,7.1
			c-2.1,0-4.2-0.2-6-1.3L261.3,106.4L261.3,106.4L261.3,106.4z"/>
	</g>
</g>
</svg>
