<?xml version="1.0" encoding="utf-8"?>
<!-- Generator: Adobe Illustrator 21.1.0, SVG Export Plug-In . SVG Version: 6.00 Build 0)  -->
<svg version="1.1" id="Layer_1" xmlns="http://www.w3.org/2000/svg" xmlns:xlink="http://www.w3.org/1999/xlink" x="0px" y="0px"
	 viewBox="0 0 516.7 142.2" style="enable-background:new 0 0 516.7 142.2;" xml:space="preserve">
<style type="text/css">
	.st0{fill:#CC092F;}
	.st1{fill:#FFFFFF;}
	.st2{fill:#4D4E53;}
</style>
<g>
	<path class="st0" d="M105,111.3H42.7c0,0-18.1,0-18.1-18.1V30.9h62.3c0,0,18.1,0,18.1,18.1V111.3L105,111.3L105,111.3z"/>
	<path class="st1" d="M105.8,112.1H42.7c-0.2,0-18.9-0.2-18.9-18.9V30.1h63.1c0.2,0,18.9,0.2,18.9,18.9V112.1z M25.3,31.6v61.6
		c0,17.2,16.7,17.4,17.4,17.4h61.6V49c0-17.2-16.7-17.4-17.4-17.4H25.3z"/>
	<polygon class="st1" points="61.2,100 57.2,100 57.2,79.7 61.2,79.7 	"/>
	<polygon class="st1" points="71.3,100 64.8,100 64.8,72.2 71.3,72.2 	"/>
	<path class="st1" d="M53.7,52.8c0,0,6.5-6.4,17.6-4.3c0,0,4.9,0.8,8.6,4.1c0,0,0.6,0.5,1,0.1c0,0,0.5-0.4-0.1-1.1
		c0,0-3.2-4.4-9.5-6.4c0,0-8.7-3.1-17.6,1.1c0,0-5.5,2.3-8.5,8.5c0,0-4.3,1.4-7.6,3.2c0,0-1,0.4-0.6,1.1c0,0,0.3,0.5,1.1,0.1
		c0,0,3-1,5.9-1.7c0,0-2.3,6.1,0.1,13.6c1.1,3.4,3.1,6.8,6.1,9.5c0,0,0.5,0.5,1,0.2c0,0,0.5-0.3,0.1-0.9c0,0-2.4-3.6-3.4-8.8
		c-0.8-4.2-0.4-10,2.5-14.7c0,0,11.2-1.6,20.7,2c0,0,16.2,5.3,12.1,15c0,0-1.2,3.4-5.6,6.5c0,0-0.7,0.4-0.3,1.1c0,0,0.3,0.5,1.1,0.2
		c0,0,6.8-2.2,9.8-7.7c0,0,6-9.1-8.1-16.6c0,0-3.9-2.1-8.9-3.2C71.2,53.7,62.2,51.5,53.7,52.8"/>
	<g>
		<path class="st2" d="M296.5,82.1c-0.1-0.3-0.2-0.5-0.2-0.5c-0.1,0-0.3,0.1-0.4,0.2c-0.7,0.4-2,0.9-3.8,0.9c-3.4,0-6.4-2.6-6.4-6.9
			c0-4.6,2.5-7.1,6-7.1c1.9,0,3.2,0.5,4.5,1.3c0.6-2.1,1.6-4.1,2.8-5.8c-0.5-0.4-1.3-0.9-2.4-1.4l0,0c-1.7-0.8-3.6-1.2-5.7-1.2
			c-7.6,0-13.4,5.1-13.4,14c0,8.8,5.8,13.9,13.4,13.9c3.7,0,6.5-1.2,6.5-1.2c0.6-0.2,1.6-0.7,2-0.9
			C297.6,85.1,296.8,82.9,296.5,82.1"/>
		<path class="st2" d="M122.9,53.2h14.9c5.7,0,10,2.9,10,9.1c0,4.5-2,7-5.4,8.3v0.1c4.1,1,6.2,3.5,6.2,7.9c0,8.6-6.5,10.3-12,10.3
			h-13.7L122.9,53.2L122.9,53.2L122.9,53.2z M131.1,82.2h3.1c3,0,6.1-0.5,6.1-4.2c0-3.9-3.2-4.2-6-4.2h-3.2L131.1,82.2L131.1,82.2
			L131.1,82.2z M131.1,67.4h3c2.7,0,5.5-0.8,5.5-3.8c0-3.3-2.6-3.6-5.4-3.6h-3.1V67.4L131.1,67.4L131.1,67.4z"/>
		<path class="st2" d="M223.8,89h-7.3v-4h-0.1c-1.5,3-4.5,4.6-7.9,4.6c-6.8,0-10.5-6.6-10.5-14.4c0-6.6,3.5-13.5,9.8-13.5
			c3.2,0,5.8,1,7.9,4.1h0.1V53.1h8V89L223.8,89L223.8,89z M211.1,82.5c2.6,0,4.8-2.9,4.8-6.8c0-4.1-1.9-7-4.8-7
			c-3.1,0-4.8,3.1-4.8,6.6C206.3,79.6,208.1,82.5,211.1,82.5"/>
		<path class="st2" d="M300.3,75.7c0-8.9,5.8-14,13.4-14s13.3,5.1,13.3,14c0,8.8-5.8,13.9-13.3,13.9
			C306.1,89.6,300.3,84.5,300.3,75.7L300.3,75.7L300.3,75.7z M318.8,75.7c0-4-1.5-7.5-5.1-7.5c-3.7,0-5.2,3.5-5.2,7.5
			c0,3.9,1.5,7.5,5.2,7.5C317.3,83.1,318.8,79.6,318.8,75.7"/>
		<path class="st2" d="M194.4,89c-0.4-2.1-0.4-4.2-0.4-6.3v-9.9c0-8.1-5.1-11.1-10.9-11.1c-3.3,0-6.3,0.6-9,1.8v6.2v0.1
			c2.2-1.4,4.8-2,7.3-2c2.9,0,5.2,1,5.2,4.6c-1-0.2-2.4-0.4-3.7-0.4c-4.2,0-11.9,1-11.9,9.1c0,5.8,4.1,8.4,8.6,8.4
			c3,0,5.6-1.4,7-4.1V89H194.4L194.4,89L194.4,89z M186.6,80.5c-1,1.8-2.8,2.8-4.9,2.8c-1.8,0-3.3-1.1-3.3-2.9
			c0-2.6,2.1-3.5,4.8-3.5c1.2,0,2.4,0.1,3.4,0.1V80.5L186.6,80.5L186.6,80.5z"/>
		<path class="st2" d="M167.1,61.7c-3.4,0-5.4,2.2-6.8,5.5h-0.1v-4.9H153V89h7.9V77.7c0-5.2,2-8.4,5.7-8.6c0.8-0.1,2,0.2,2.7,0.4
			v-7.4C168.7,61.8,167.8,61.7,167.1,61.7"/>
		<path class="st2" d="M251.8,76.6c0-7.9-3.1-15-11.6-15c-7.1,0-12.3,5.1-12.3,13.9s5.8,14,13.4,14c3,0,5.9-0.5,8.4-1.7v-6.5
			c-2.4,1.5-4.8,2-7,2c-3.9,0-6.3-1.4-6.7-5.1h15.9L251.8,76.6L251.8,76.6L251.8,76.6z M235.9,73.1c0.2-3.1,1.5-5.6,4.4-5.6
			c3.2,0,4.4,2.5,4.4,5.6H235.9L235.9,73.1L235.9,73.1z"/>
		<path class="st2" d="M265.1,61.7c-4.6,0-9.8,2.5-9.8,8.7c0,9.6,11.3,6.5,11.3,11c0,1.8-1.6,2.1-3.2,2.1c-2.9,0-5.6-0.9-7.4-1.8V88
			c2.1,0.9,4.5,1.6,7.9,1.6c5.2,0,10.7-1.8,10.7-8.9c0-10.1-11.8-6.9-11.8-11c0-1.5,2-1.9,3.7-1.8c1.8,0,4.7,0.8,6.3,2v-6.6
			C270.3,62.2,267.7,61.7,265.1,61.7"/>
		<path class="st2" d="M356.7,62.3c-2.2-0.9-3.4-1.3-5.6-1.3c-2.4,0-5.2,0.9-5.2,4.1c0,6,12.9,4.6,12.9,14.9c0,6.7-4.9,9.3-11,9.3
			c-2.1,0-4.2-0.6-6.1-1.3l0.4-4.2c1.5,0.6,4,1.5,6.2,1.5c2.4,0,5.9-1.4,5.9-5.1c0-7-12.9-5.1-12.9-14.8c0-5.6,4.2-8.5,9.6-8.5
			c2,0,4.3,0.4,6.4,1.1L356.7,62.3L356.7,62.3L356.7,62.3z"/>
		<path class="st2" d="M380.8,87.9c-1.5,0.6-3.3,1.5-6.9,1.5c-7.8,0-11.3-4.9-11.3-12.3c0-6.8,4.1-11.5,10.3-11.5
			c7.3,0,9.7,5.6,9.7,12.9h-15.7c0,4.5,3.4,7.6,7.2,7.6c2.7,0,5.8-1.4,6.8-2.3v4.1L380.8,87.9L380.8,87.9z M378.2,75.2
			c0-3.5-2-6.3-5.5-6.3c-4,0-5.6,3.4-5.9,6.3H378.2L378.2,75.2L378.2,75.2z"/>
		<path class="st2" d="M407.1,87.9c0,6.9-3.4,10.9-11.3,10.9c-2.3,0-4.3-0.3-7.9-1.6l0.4-3.9c3.1,1.5,4.9,2.1,7.9,2.1
			c4.3,0,6.8-3,6.8-7.8v-2.2l0,0c-1.7,2.4-4.6,3.5-7.3,3.5c-6.3,0-9.4-5.3-9.4-11.2c0-5.9,3.2-12.1,9.8-12.1c3.9,0,6,1.5,7.2,3.9
			h0.1V66h3.7L407.1,87.9L407.1,87.9L407.1,87.9z M403.1,77.7c0-4.7-2.1-8.8-6.4-8.8c-4.1,0-6.1,4.6-6.1,8.5c0,4.3,2.3,8.1,6.1,8.1
			S403.1,82,403.1,77.7"/>
		<path class="st2" d="M432.8,88.8h-3.9v-3.6h-0.1c-1.2,2.6-4.1,4.2-7.2,4.2c-5.7,0-8.2-3.7-8.2-9.8V66h4v11.8
			c0,5.3,1.1,7.9,4.6,8.1c4.6,0,6.7-3.9,6.7-9.4V66h4v22.8H432.8L432.8,88.8z"/>
		<path class="st2" d="M439.2,66h3.8v3.5h0.1c1.1-2.4,3.4-4.1,5.7-4.1c1.2,0,1.8,0.1,2.7,0.3v3.8c-0.7-0.3-1.5-0.4-2.2-0.4
			c-3.6,0-6,3.6-6,9.3v10.4h-4V66H439.2L439.2,66z"/>
		<path class="st2" d="M464.7,65.5c6.7,0,11.1,5,11.1,11.9c0,6.5-4.6,11.9-11.1,11.9c-6.6,0-11.2-5.4-11.2-11.9
			C453.5,70.5,458,65.5,464.7,65.5L464.7,65.5L464.7,65.5z M464.7,86c4.7,0,6.8-4.5,6.8-8.6c0-4.3-2.5-8.5-6.8-8.5s-6.9,4.2-6.9,8.5
			C457.9,81.5,460,86,464.7,86"/>
		<path class="st2" d="M479.4,84.4c1.6,1.1,3.9,1.6,5,1.6c1.8,0,4.1-0.8,4.1-3.3c0-4.2-9.5-3.8-9.5-10.2c0-4.7,3.4-7,7.7-7
			c1.9,0,3.4,0.4,5,0.9l-0.3,3.7c-0.9-0.6-3.3-1.2-4.3-1.2c-2.1,0-3.9,0.9-3.9,2.8c0,4.7,9.5,3.3,9.5,10.6c0,4.9-3.7,7.1-7.7,7.1
			c-2.1,0-4.2-0.2-6-1.3L479.4,84.4L479.4,84.4L479.4,84.4z"/>
	</g>
</g>
</svg>
