<?xml version="1.0" encoding="utf-8"?>
<!-- Generator: Adobe Illustrator 21.1.0, SVG Export Plug-In . SVG Version: 6.00 Build 0)  -->
<svg version="1.1" id="Layer_1" xmlns="http://www.w3.org/2000/svg" xmlns:xlink="http://www.w3.org/1999/xlink" x="0px" y="0px"
	 viewBox="0 0 347.1 142.2" style="enable-background:new 0 0 347.1 142.2;" xml:space="preserve">
<style type="text/css">
	.st0{fill:#58595B;}
	.st1{fill:#FFFFFF;}
</style>
<g>
	<g>
		<g>
			<path class="st0" d="M104.6,111.3H42.3c0,0-18.1,0-18.1-18.1V30.9h62.3c0,0,18.1,0,18.1,18.1V111.3L104.6,111.3L104.6,111.3z"/>
			<polygon class="st1" points="60.8,100 56.8,100 56.8,79.7 60.8,79.7 60.8,100 			"/>
			<polygon class="st1" points="70.9,100 64.4,100 64.4,72.2 70.9,72.2 70.9,100 			"/>
			<path class="st1" d="M53.3,52.8c0,0,6.5-6.4,17.6-4.3c0,0,4.9,0.8,8.6,4.1c0,0,0.6,0.5,1,0.1c0,0,0.5-0.4-0.1-1.1
				c0,0-3.2-4.4-9.5-6.4c0,0-8.7-3.1-17.6,1.1c0,0-5.5,2.3-8.5,8.5c0,0-4.3,1.4-7.6,3.2c0,0-1,0.4-0.6,1.1c0,0,0.3,0.5,1.1,0.1
				c0,0,3-1,5.9-1.7c0,0-2.3,6.1,0.1,13.6c1.1,3.4,3.1,6.8,6.1,9.5c0,0,0.5,0.5,1,0.2c0,0,0.5-0.3,0.1-0.9c0,0-2.4-3.6-3.4-8.8
				c-0.8-4.2-0.4-10,2.5-14.7c0,0,11.2-1.6,20.7,2c0,0,16.2,5.3,12.1,15c0,0-1.2,3.4-5.6,6.5c0,0-0.7,0.4-0.3,1.1
				c0,0,0.3,0.5,1.1,0.2c0,0,6.8-2.2,9.8-7.7c0,0,6-9.1-8.1-16.6c0,0-3.9-2.1-8.9-3.2C70.8,53.7,61.8,51.5,53.3,52.8"/>
		</g>
		<g>
			<path class="st0" d="M296.1,60.1c-0.1-0.3-0.2-0.5-0.2-0.5c-0.1,0-0.3,0.1-0.4,0.2c-0.7,0.4-2,0.9-3.8,0.9
				c-3.4,0-6.4-2.6-6.4-6.9c0-4.6,2.5-7.1,6-7.1c1.9,0,3.2,0.5,4.5,1.3c0.6-2.1,1.6-4.1,2.8-5.8c-0.5-0.4-1.3-0.9-2.4-1.4l0,0
				c-1.7-0.8-3.6-1.2-5.7-1.2c-7.6,0-13.4,5.1-13.4,14c0,8.8,5.8,13.9,13.4,13.9c3.7,0,6.5-1.2,6.5-1.2c0.6-0.2,1.6-0.7,2-0.9
				C297.2,63.1,296.4,60.9,296.1,60.1"/>
			<path class="st0" d="M122.5,31.2h14.9c5.7,0,10,2.9,10,9.1c0,4.5-2,7-5.4,8.3v0.1c4.1,1,6.2,3.5,6.2,7.9c0,8.6-6.5,10.3-12,10.3
				h-13.7V31.2L122.5,31.2L122.5,31.2z M130.7,60.2h3.1c3,0,6.1-0.5,6.1-4.2c0-3.9-3.2-4.2-6-4.2h-3.2L130.7,60.2L130.7,60.2
				L130.7,60.2z M130.7,45.4h3c2.7,0,5.5-0.8,5.5-3.8c0-3.3-2.6-3.6-5.4-3.6h-3.1V45.4L130.7,45.4L130.7,45.4z"/>
			<path class="st0" d="M223.5,67h-7.3v-4h-0.1c-1.5,3-4.5,4.6-7.9,4.6c-6.8,0-10.5-6.6-10.5-14.4c0-6.6,3.5-13.5,9.8-13.5
				c3.2,0,5.8,1,7.9,4.1h0.1V31.1h8V67L223.5,67L223.5,67z M210.7,60.5c2.6,0,4.8-2.9,4.8-6.8c0-4.1-1.9-7-4.8-7
				c-3.1,0-4.8,3.1-4.8,6.6C205.9,57.6,207.7,60.5,210.7,60.5"/>
			<path class="st0" d="M299.9,53.7c0-8.9,5.8-14,13.4-14s13.3,5.1,13.3,14c0,8.8-5.8,13.9-13.3,13.9
				C305.7,67.6,299.9,62.5,299.9,53.7L299.9,53.7L299.9,53.7z M318.4,53.7c0-4-1.5-7.5-5.1-7.5c-3.7,0-5.2,3.5-5.2,7.5
				c0,3.9,1.5,7.5,5.2,7.5C316.9,61.1,318.4,57.6,318.4,53.7"/>
			<path class="st0" d="M194,67c-0.4-2.1-0.4-4.2-0.4-6.3v-9.9c0-8.1-5.1-11.1-10.9-11.1c-3.3,0-6.3,0.6-9,1.8v6.2v0.1
				c2.2-1.4,4.8-2,7.3-2c2.9,0,5.2,1,5.2,4.6c-1-0.2-2.4-0.4-3.7-0.4c-4.2,0-11.9,1-11.9,9.1c0,5.8,4.1,8.4,8.6,8.4
				c3,0,5.6-1.4,7-4.1V67H194L194,67L194,67z M186.2,58.5c-1,1.8-2.8,2.8-4.9,2.8c-1.8,0-3.3-1.1-3.3-2.9c0-2.6,2.1-3.5,4.8-3.5
				c1.2,0,2.4,0.1,3.4,0.1V58.5L186.2,58.5L186.2,58.5z"/>
			<path class="st0" d="M166.8,39.7c-3.4,0-5.4,2.2-6.8,5.5h-0.1v-4.9h-7.2V67h7.9V55.7c0-5.2,2-8.4,5.7-8.6c0.8-0.1,2,0.2,2.7,0.4
				v-7.4C168.4,39.8,167.5,39.7,166.8,39.7"/>
			<path class="st0" d="M251.4,54.6c0-7.9-3.1-15-11.6-15c-7.1,0-12.3,5.1-12.3,13.9s5.8,14,13.4,14c3,0,5.9-0.5,8.4-1.7v-6.5
				c-2.4,1.5-4.8,2-7,2c-3.9,0-6.3-1.4-6.7-5.1h15.9L251.4,54.6L251.4,54.6L251.4,54.6z M235.5,51.1c0.2-3.1,1.5-5.6,4.4-5.6
				c3.2,0,4.4,2.5,4.4,5.6H235.5L235.5,51.1L235.5,51.1z"/>
			<path class="st0" d="M264.8,39.7c-4.6,0-9.8,2.5-9.8,8.7c0,9.6,11.3,6.5,11.3,11c0,1.8-1.6,2.1-3.2,2.1c-2.9,0-5.6-0.9-7.4-1.8
				V66c2.1,0.9,4.5,1.6,7.9,1.6c5.2,0,10.7-1.8,10.7-8.9c0-10.1-11.8-6.9-11.8-11c0-1.5,2-1.9,3.7-1.8c1.8,0,4.7,0.8,6.3,2v-6.6
				C269.9,40.2,267.3,39.7,264.8,39.7"/>
			<path class="st0" d="M137.4,84.3c-2.2-0.9-3.4-1.3-5.6-1.3c-2.4,0-5.2,0.9-5.2,4.1c0,6,12.9,4.6,12.9,14.9c0,6.7-4.9,9.3-11,9.3
				c-2.1,0-4.2-0.6-6.1-1.3l0.4-4.2c1.5,0.6,4,1.5,6.2,1.5c2.4,0,5.9-1.4,5.9-5.1c0-7-12.9-5.1-12.9-14.8c0-5.6,4.2-8.5,9.6-8.5
				c2,0,4.3,0.4,6.4,1.1L137.4,84.3L137.4,84.3L137.4,84.3z"/>
			<path class="st0" d="M161.4,109.9c-1.5,0.6-3.3,1.5-6.9,1.5c-7.8,0-11.3-4.9-11.3-12.3c0-6.8,4.1-11.5,10.3-11.5
				c7.3,0,9.7,5.6,9.7,12.9h-15.7c0,4.5,3.4,7.6,7.2,7.6c2.7,0,5.8-1.4,6.8-2.3v4.1H161.4L161.4,109.9z M158.8,97.2
				c0-3.5-2-6.3-5.5-6.3c-4,0-5.6,3.4-5.9,6.3H158.8L158.8,97.2L158.8,97.2z"/>
			<path class="st0" d="M187.7,109.9c0,6.9-3.4,10.9-11.3,10.9c-2.3,0-4.3-0.3-7.9-1.6l0.4-3.9c3.1,1.5,4.9,2.1,7.9,2.1
				c4.3,0,6.8-3,6.8-7.8v-2.2h-0.1c-1.7,2.4-4.6,3.5-7.3,3.5c-6.3,0-9.4-5.3-9.4-11.2c0-5.9,3.2-12.1,9.8-12.1c3.9,0,6,1.5,7.2,3.9
				h0.1V88h3.7L187.7,109.9L187.7,109.9L187.7,109.9z M183.7,99.7c0-4.7-2.1-8.8-6.4-8.8c-4.1,0-6.1,4.6-6.1,8.5
				c0,4.3,2.3,8.1,6.1,8.1S183.7,104,183.7,99.7"/>
			<path class="st0" d="M213.4,110.8h-3.9v-3.6h-0.1c-1.2,2.6-4.1,4.2-7.2,4.2c-5.7,0-8.2-3.7-8.2-9.8V88h4v11.8
				c0,5.3,1.1,7.9,4.6,8.1c4.6,0,6.7-3.9,6.7-9.4V88h4v22.8H213.4L213.4,110.8z"/>
			<path class="st0" d="M219.8,88h3.8v3.5h0.1c1.1-2.4,3.4-4.1,5.7-4.1c1.2,0,1.8,0.1,2.7,0.3v3.8c-0.7-0.3-1.5-0.4-2.2-0.4
				c-3.6,0-6,3.6-6,9.3v10.4h-4V88H219.8L219.8,88z"/>
			<path class="st0" d="M245.4,87.5c6.7,0,11.1,5,11.1,11.9c0,6.5-4.6,11.9-11.1,11.9c-6.6,0-11.2-5.4-11.2-11.9
				C234.2,92.5,238.6,87.5,245.4,87.5L245.4,87.5L245.4,87.5z M245.4,108c4.7,0,6.8-4.5,6.8-8.6c0-4.3-2.5-8.5-6.8-8.5
				s-6.9,4.2-6.9,8.5C238.5,103.5,240.6,108,245.4,108"/>
			<path class="st0" d="M260,106.4c1.6,1.1,3.9,1.6,5,1.6c1.8,0,4.1-0.8,4.1-3.3c0-4.2-9.5-3.8-9.5-10.2c0-4.7,3.4-7,7.7-7
				c1.9,0,3.4,0.4,5,0.9l-0.3,3.7c-0.9-0.6-3.3-1.2-4.3-1.2c-2.1,0-3.9,0.9-3.9,2.8c0,4.7,9.5,3.3,9.5,10.6c0,4.9-3.7,7.1-7.7,7.1
				c-2.1,0-4.2-0.2-6-1.3L260,106.4L260,106.4L260,106.4z"/>
		</g>
	</g>
</g>
</svg>
