<svg id="Layer_1" xmlns="http://www.w3.org/2000/svg" viewBox="0 0 516.7 142.2"><style>.st0{fill:#cc092f}.st1{fill:#fff}.st2{fill:#4d4e53}</style><path class="st0" d="M105 111.3H42.7s-18.1 0-18.1-18.1V30.9h62.3S105 30.9 105 49v62.3z"/><path class="st1" d="M105.8 112.1H42.7c-.2 0-18.9-.2-18.9-18.9V30.1h63.1c.2 0 18.9.2 18.9 18.9v63.1zM25.3 31.6v61.6c0 17.2 16.7 17.4 17.4 17.4h61.6V49c0-17.2-16.7-17.4-17.4-17.4H25.3z"/><path class="st1" d="M61.2 100h-4V79.7h4zm10.1 0h-6.5V72.2h6.5z"/><path class="st1" d="M53.7 52.8s6.5-6.4 17.6-4.3c0 0 4.9.8 8.6 4.1 0 0 .6.5 1 .1 0 0 .5-.4-.1-1.1 0 0-3.2-4.4-9.5-6.4 0 0-8.7-3.1-17.6 1.1 0 0-5.5 2.3-8.5 8.5 0 0-4.3 1.4-7.6 3.2 0 0-1 .4-.6 1.1 0 0 .3.5 1.1.1 0 0 3-1 5.9-1.7 0 0-2.3 6.1.1 13.6 1.1 3.4 3.1 6.8 6.1 9.5 0 0 .5.5 1 .2 0 0 .5-.3.1-.9 0 0-2.4-3.6-3.4-8.8-.8-4.2-.4-10 2.5-14.7 0 0 11.2-1.6 20.7 2 0 0 16.2 5.3 12.1 15 0 0-1.2 3.4-5.6 6.5 0 0-.7.4-.3 1.1 0 0 .3.5 1.1.2 0 0 6.8-2.2 9.8-7.7 0 0 6-9.1-8.1-16.6 0 0-3.9-2.1-8.9-3.2 0 0-9-2.2-17.5-.9"/><path class="st2" d="M296.5 82.1c-.1-.3-.2-.5-.2-.5-.1 0-.3.1-.4.2-.7.4-2 .9-3.8.9-3.4 0-6.4-2.6-6.4-6.9 0-4.6 2.5-7.1 6-7.1 1.9 0 3.2.5 4.5 1.3.6-2.1 1.6-4.1 2.8-5.8-.5-.4-1.3-.9-2.4-1.4-1.7-.8-3.6-1.2-5.7-1.2-7.6 0-13.4 5.1-13.4 14 0 8.8 5.8 13.9 13.4 13.9 3.7 0 6.5-1.2 6.5-1.2.6-.2 1.6-.7 2-.9-1.8-2.3-2.6-4.5-2.9-5.3M122.9 53.2h14.9c5.7 0 10 2.9 10 9.1 0 4.5-2 7-5.4 8.3v.1c4.1 1 6.2 3.5 6.2 7.9 0 8.6-6.5 10.3-12 10.3h-13.7V53.2zm8.2 29h3.1c3 0 6.1-.5 6.1-4.2 0-3.9-3.2-4.2-6-4.2h-3.2v8.4zm0-14.8h3c2.7 0 5.5-.8 5.5-3.8 0-3.3-2.6-3.6-5.4-3.6h-3.1v7.4zM223.8 89h-7.3v-4h-.1c-1.5 3-4.5 4.6-7.9 4.6-6.8 0-10.5-6.6-10.5-14.4 0-6.6 3.5-13.5 9.8-13.5 3.2 0 5.8 1 7.9 4.1h.1V53.1h8V89zm-12.7-6.5c2.6 0 4.8-2.9 4.8-6.8 0-4.1-1.9-7-4.8-7-3.1 0-4.8 3.1-4.8 6.6 0 4.3 1.8 7.2 4.8 7.2m89.2-6.8c0-8.9 5.8-14 13.4-14s13.3 5.1 13.3 14c0 8.8-5.8 13.9-13.3 13.9-7.6 0-13.4-5.1-13.4-13.9zm18.5 0c0-4-1.5-7.5-5.1-7.5-3.7 0-5.2 3.5-5.2 7.5 0 3.9 1.5 7.5 5.2 7.5 3.6-.1 5.1-3.6 5.1-7.5M194.4 89c-.4-2.1-.4-4.2-.4-6.3v-9.9c0-8.1-5.1-11.1-10.9-11.1-3.3 0-6.3.6-9 1.8v6.3c2.2-1.4 4.8-2 7.3-2 2.9 0 5.2 1 5.2 4.6-1-.2-2.4-.4-3.7-.4-4.2 0-11.9 1-11.9 9.1 0 5.8 4.1 8.4 8.6 8.4 3 0 5.6-1.4 7-4.1V89h7.8zm-7.8-8.5c-1 1.8-2.8 2.8-4.9 2.8-1.8 0-3.3-1.1-3.3-2.9 0-2.6 2.1-3.5 4.8-3.5 1.2 0 2.4.1 3.4.1v3.5zm-19.5-18.8c-3.4 0-5.4 2.2-6.8 5.5h-.1v-4.9H153V89h7.9V77.7c0-5.2 2-8.4 5.7-8.6.8-.1 2 .2 2.7.4v-7.4c-.6-.3-1.5-.4-2.2-.4m84.7 14.9c0-7.9-3.1-15-11.6-15-7.1 0-12.3 5.1-12.3 13.9s5.8 14 13.4 14c3 0 5.9-.5 8.4-1.7v-6.5c-2.4 1.5-4.8 2-7 2-3.9 0-6.3-1.4-6.7-5.1h15.9l-.1-1.6zm-15.9-3.5c.2-3.1 1.5-5.6 4.4-5.6 3.2 0 4.4 2.5 4.4 5.6h-8.8zm29.2-11.4c-4.6 0-9.8 2.5-9.8 8.7 0 9.6 11.3 6.5 11.3 11 0 1.8-1.6 2.1-3.2 2.1-2.9 0-5.6-.9-7.4-1.8V88c2.1.9 4.5 1.6 7.9 1.6 5.2 0 10.7-1.8 10.7-8.9 0-10.1-11.8-6.9-11.8-11 0-1.5 2-1.9 3.7-1.8 1.8 0 4.7.8 6.3 2v-6.6c-2.5-1.1-5.1-1.6-7.7-1.6m91.6.6c-2.2-.9-3.4-1.3-5.6-1.3-2.4 0-5.2.9-5.2 4.1 0 6 12.9 4.6 12.9 14.9 0 6.7-4.9 9.3-11 9.3-2.1 0-4.2-.6-6.1-1.3l.4-4.2c1.5.6 4 1.5 6.2 1.5 2.4 0 5.9-1.4 5.9-5.1 0-7-12.9-5.1-12.9-14.8 0-5.6 4.2-8.5 9.6-8.5 2 0 4.3.4 6.4 1.1l-.6 4.3zm24.1 25.6c-1.5.6-3.3 1.5-6.9 1.5-7.8 0-11.3-4.9-11.3-12.3 0-6.8 4.1-11.5 10.3-11.5 7.3 0 9.7 5.6 9.7 12.9h-15.7c0 4.5 3.4 7.6 7.2 7.6 2.7 0 5.8-1.4 6.8-2.3v4.1h-.1zm-2.6-12.7c0-3.5-2-6.3-5.5-6.3-4 0-5.6 3.4-5.9 6.3h11.4zm28.9 12.7c0 6.9-3.4 10.9-11.3 10.9-2.3 0-4.3-.3-7.9-1.6l.4-3.9c3.1 1.5 4.9 2.1 7.9 2.1 4.3 0 6.8-3 6.8-7.8v-2.2c-1.7 2.4-4.6 3.5-7.3 3.5-6.3 0-9.4-5.3-9.4-11.2 0-5.9 3.2-12.1 9.8-12.1 3.9 0 6 1.5 7.2 3.9h.1V66h3.7v21.9zm-4-10.2c0-4.7-2.1-8.8-6.4-8.8-4.1 0-6.1 4.6-6.1 8.5 0 4.3 2.3 8.1 6.1 8.1s6.4-3.5 6.4-7.8m29.7 11.1h-3.9v-3.6h-.1c-1.2 2.6-4.1 4.2-7.2 4.2-5.7 0-8.2-3.7-8.2-9.8V66h4v11.8c0 5.3 1.1 7.9 4.6 8.1 4.6 0 6.7-3.9 6.7-9.4V66h4v22.8h.1zm6.4-22.8h3.8v3.5h.1c1.1-2.4 3.4-4.1 5.7-4.1 1.2 0 1.8.1 2.7.3v3.8c-.7-.3-1.5-.4-2.2-.4-3.6 0-6 3.6-6 9.3v10.4h-4V66h-.1zm25.5-.5c6.7 0 11.1 5 11.1 11.9 0 6.5-4.6 11.9-11.1 11.9-6.6 0-11.2-5.4-11.2-11.9 0-6.9 4.5-11.9 11.2-11.9zm0 20.5c4.7 0 6.8-4.5 6.8-8.6 0-4.3-2.5-8.5-6.8-8.5s-6.9 4.2-6.9 8.5c.1 4.1 2.2 8.6 6.9 8.6m14.7-1.6c1.6 1.1 3.9 1.6 5 1.6 1.8 0 4.1-.8 4.1-3.3 0-4.2-9.5-3.8-9.5-10.2 0-4.7 3.4-7 7.7-7 1.9 0 3.4.4 5 .9l-.3 3.7c-.9-.6-3.3-1.2-4.3-1.2-2.1 0-3.9.9-3.9 2.8 0 4.7 9.5 3.3 9.5 10.6 0 4.9-3.7 7.1-7.7 7.1-2.1 0-4.2-.2-6-1.3l.4-3.7z"/></svg>